SplineFontDB: 3.2
FontName: NotoSansModi-Regular
FullName: Noto Sans Modi Regular
FamilyName: Noto Sans Modi
Weight: Book
Copyright: Copyright 2018 Google Inc. All Rights Reserved.
Version: 2.000
ItalicAngle: 0
UnderlinePosition: -125
UnderlineWidth: 50
Ascent: 800
Descent: 200
InvalidEm: 0
sfntRevision: 0x00020000
LayerCount: 2
Layer: 0 1 "+BBcEMAQ0BD0EOAQ5 +BD8EOwQwBD0A" 1
Layer: 1 1 "+BB8ENQRABDUENAQ9BDgEOQAA +BD8EOwQwBD0A" 0
XUID: [1021 59 1751208496 17582]
StyleMap: 0x0040
FSType: 0
OS2Version: 4
OS2_WeightWidthSlopeOnly: 1
OS2_UseTypoMetrics: 0
CreationTime: 1516652263
ModificationTime: 1632739826
PfmFamily: 17
TTFWeight: 400
TTFWidth: 5
LineGap: 0
VLineGap: 0
Panose: 2 11 5 2 4 5 4 2 2 4
OS2TypoAscent: 891
OS2TypoAOffset: 0
OS2TypoDescent: -463
OS2TypoDOffset: 0
OS2TypoLinegap: 0
OS2WinAscent: 891
OS2WinAOffset: 0
OS2WinDescent: 463
OS2WinDOffset: 0
HheadAscent: 891
HheadAOffset: 0
HheadDescent: -463
HheadDOffset: 0
OS2SubXSize: 650
OS2SubYSize: 600
OS2SubXOff: 0
OS2SubYOff: 75
OS2SupXSize: 650
OS2SupYSize: 600
OS2SupXOff: 0
OS2SupYOff: 350
OS2StrikeYSize: 50
OS2StrikeYPos: 322
OS2CapHeight: 622
OS2XHeight: 536
OS2Vendor: 'GOOG'
OS2CodePages: 00000001.00000000
OS2UnicodeRanges: 80000003.02002000.00000000.00000000
Lookup: 6 0 0 "'rphf' Reph Form in Modi lookup 0" { "'rphf' Reph Form in Modi lookup 0 subtable"  } ['rphf' ('modi' <'dflt' > ) ]
Lookup: 1 0 0 "Single Substitution lookup 1" { "Single Substitution lookup 1 subtable"  } []
Lookup: 4 0 0 "Ligature Substitution lookup 2" { "Ligature Substitution lookup 2 subtable"  } []
Lookup: 5 0 0 "'half' Half Forms in Modi lookup 3" { "'half' Half Forms in Modi lookup 3 subtable"  } ['half' ('modi' <'dflt' > ) ]
Lookup: 4 0 0 "Ligature Substitution lookup 4" { "Ligature Substitution lookup 4 subtable"  } []

StartChar: .notdef
Encoding: 1114112 -1 0
Width: 600
Flags: W
HStem: 0 51<146 455> 663 51<146 455>
VStem: 95 51<51 663> 455 51<51 663>
LayerCount: 2
Fore
SplineSet
95 0 m 1,0,-1
 95 714 l 1,1,-1
 506 714 l 1,2,-1
 506 0 l 1,3,-1
 95 0 l 1,0,-1
146 51 m 1,4,-1
 455 51 l 1,5,-1
 455 663 l 1,6,-1
 146 663 l 1,7,-1
 146 51 l 1,4,-1
EndSplineSet
EndChar

StartChar: uni25CC
Encoding: 9676 9676 7
Width: 594
GlyphClass: 2
Flags: W
HStem: 42 52<271.383 315.265> 60 52<187.383 231.265 355.383 399.265> 107 52<113.383 157.265 429.383 473.265> 181 52<66.3828 110.265 476.383 520.265> 265 52<48.3828 92.2648 494.383 538.265> 349 52<66.3828 110.265 476.383 520.265> 423 52<113.383 157.265 429.383 473.265> 470 52<187.383 231.265 355.383 399.265> 488 52<271.383 315.265>
VStem: 48 52<265.383 309.265> 66 52<181.383 225.265 349.383 393.265> 113 52<107.383 151.265 423.383 467.265> 187 52<60.3828 104.265 470.383 514.265> 271 52<42.3828 86.2648 488.383 532.265> 355 52<60.3828 104.265 470.383 514.265> 429 52<107.383 151.265 423.383 467.265> 476 52<181.383 225.265 349.383 393.265> 494 52<265.383 309.265>
AnchorPoint: "+BBEENQQ3BEsEPARPBD0EPQQ+BDUA--6" 297 674 basechar 0
AnchorPoint: "+BBEENQQ3BEsEPARPBD0EPQQ+BDUA--5" 406 669 basechar 0
AnchorPoint: "+BBEENQQ3BEsEPARPBD0EPQQ+BDUA--4" 429 539 basechar 0
AnchorPoint: "+BBEENQQ3BEsEPARPBD0EPQQ+BDUA--3" 297 -20 basechar 0
AnchorPoint: "+BBEENQQ3BEsEPARPBD0EPQQ+BDUA--2" 297 70 basechar 0
AnchorPoint: "+BBEENQQ3BEsEPARPBD0EPQQ+BDUA--1" 297 -20 basechar 0
AnchorPoint: "+BBEENQQ3BEsEPARPBD0EPQQ+BDUA--0" 297 -20 basechar 0
LayerCount: 2
Fore
SplineSet
297 488 m 0,0,1
 287 488 287 488 279 496 c 128,-1,2
 271 504 271 504 271 514 c 0,3,4
 271 525 271 525 279 532.5 c 128,-1,5
 287 540 287 540 297 540 c 0,6,7
 308 540 308 540 315.5 532.5 c 128,-1,8
 323 525 323 525 323 514 c 0,9,10
 323 504 323 504 315.5 496 c 128,-1,11
 308 488 308 488 297 488 c 0,0,1
213 470 m 0,12,13
 203 470 203 470 195 478 c 128,-1,14
 187 486 187 486 187 496 c 0,15,16
 187 507 187 507 195 514.5 c 128,-1,17
 203 522 203 522 213 522 c 0,18,19
 224 522 224 522 231.5 514.5 c 128,-1,20
 239 507 239 507 239 496 c 0,21,22
 239 486 239 486 231.5 478 c 128,-1,23
 224 470 224 470 213 470 c 0,12,13
381 470 m 0,24,25
 371 470 371 470 363 478 c 128,-1,26
 355 486 355 486 355 496 c 0,27,28
 355 507 355 507 363 514.5 c 128,-1,29
 371 522 371 522 381 522 c 0,30,31
 392 522 392 522 399.5 514.5 c 128,-1,32
 407 507 407 507 407 496 c 0,33,34
 407 486 407 486 399.5 478 c 128,-1,35
 392 470 392 470 381 470 c 0,24,25
455 423 m 0,36,37
 445 423 445 423 437 431 c 128,-1,38
 429 439 429 439 429 449 c 0,39,40
 429 460 429 460 437 467.5 c 128,-1,41
 445 475 445 475 455 475 c 0,42,43
 466 475 466 475 473.5 467.5 c 128,-1,44
 481 460 481 460 481 449 c 0,45,46
 481 439 481 439 473.5 431 c 128,-1,47
 466 423 466 423 455 423 c 0,36,37
139 423 m 0,48,49
 129 423 129 423 121 431 c 128,-1,50
 113 439 113 439 113 449 c 0,51,52
 113 460 113 460 121 467.5 c 128,-1,53
 129 475 129 475 139 475 c 0,54,55
 150 475 150 475 157.5 467.5 c 128,-1,56
 165 460 165 460 165 449 c 0,57,58
 165 439 165 439 157.5 431 c 128,-1,59
 150 423 150 423 139 423 c 0,48,49
92 349 m 0,60,61
 82 349 82 349 74 357 c 128,-1,62
 66 365 66 365 66 375 c 0,63,64
 66 386 66 386 74 393.5 c 128,-1,65
 82 401 82 401 92 401 c 0,66,67
 103 401 103 401 110.5 393.5 c 128,-1,68
 118 386 118 386 118 375 c 0,69,70
 118 365 118 365 110.5 357 c 128,-1,71
 103 349 103 349 92 349 c 0,60,61
502 349 m 0,72,73
 492 349 492 349 484 357 c 128,-1,74
 476 365 476 365 476 375 c 0,75,76
 476 386 476 386 484 393.5 c 128,-1,77
 492 401 492 401 502 401 c 0,78,79
 513 401 513 401 520.5 393.5 c 128,-1,80
 528 386 528 386 528 375 c 0,81,82
 528 365 528 365 520.5 357 c 128,-1,83
 513 349 513 349 502 349 c 0,72,73
74 265 m 0,84,85
 64 265 64 265 56 273 c 128,-1,86
 48 281 48 281 48 291 c 0,87,88
 48 302 48 302 56 309.5 c 128,-1,89
 64 317 64 317 74 317 c 0,90,91
 85 317 85 317 92.5 309.5 c 128,-1,92
 100 302 100 302 100 291 c 0,93,94
 100 281 100 281 92.5 273 c 128,-1,95
 85 265 85 265 74 265 c 0,84,85
520 265 m 0,96,97
 510 265 510 265 502 273 c 128,-1,98
 494 281 494 281 494 291 c 0,99,100
 494 302 494 302 502 309.5 c 128,-1,101
 510 317 510 317 520 317 c 0,102,103
 531 317 531 317 538.5 309.5 c 128,-1,104
 546 302 546 302 546 291 c 0,105,106
 546 281 546 281 538.5 273 c 128,-1,107
 531 265 531 265 520 265 c 0,96,97
92 181 m 0,108,109
 82 181 82 181 74 189 c 128,-1,110
 66 197 66 197 66 207 c 0,111,112
 66 218 66 218 74 225.5 c 128,-1,113
 82 233 82 233 92 233 c 0,114,115
 103 233 103 233 110.5 225.5 c 128,-1,116
 118 218 118 218 118 207 c 0,117,118
 118 197 118 197 110.5 189 c 128,-1,119
 103 181 103 181 92 181 c 0,108,109
502 181 m 0,120,121
 492 181 492 181 484 189 c 128,-1,122
 476 197 476 197 476 207 c 0,123,124
 476 218 476 218 484 225.5 c 128,-1,125
 492 233 492 233 502 233 c 0,126,127
 513 233 513 233 520.5 225.5 c 128,-1,128
 528 218 528 218 528 207 c 0,129,130
 528 197 528 197 520.5 189 c 128,-1,131
 513 181 513 181 502 181 c 0,120,121
139 107 m 0,132,133
 129 107 129 107 121 115 c 128,-1,134
 113 123 113 123 113 133 c 0,135,136
 113 144 113 144 121 151.5 c 128,-1,137
 129 159 129 159 139 159 c 0,138,139
 150 159 150 159 157.5 151.5 c 128,-1,140
 165 144 165 144 165 133 c 0,141,142
 165 123 165 123 157.5 115 c 128,-1,143
 150 107 150 107 139 107 c 0,132,133
455 107 m 0,144,145
 445 107 445 107 437 115 c 128,-1,146
 429 123 429 123 429 133 c 0,147,148
 429 144 429 144 437 151.5 c 128,-1,149
 445 159 445 159 455 159 c 0,150,151
 466 159 466 159 473.5 151.5 c 128,-1,152
 481 144 481 144 481 133 c 0,153,154
 481 123 481 123 473.5 115 c 128,-1,155
 466 107 466 107 455 107 c 0,144,145
213 60 m 0,156,157
 203 60 203 60 195 68 c 128,-1,158
 187 76 187 76 187 86 c 0,159,160
 187 97 187 97 195 104.5 c 128,-1,161
 203 112 203 112 213 112 c 0,162,163
 224 112 224 112 231.5 104.5 c 128,-1,164
 239 97 239 97 239 86 c 0,165,166
 239 76 239 76 231.5 68 c 128,-1,167
 224 60 224 60 213 60 c 0,156,157
381 60 m 0,168,169
 371 60 371 60 363 68 c 128,-1,170
 355 76 355 76 355 86 c 0,171,172
 355 97 355 97 363 104.5 c 128,-1,173
 371 112 371 112 381 112 c 0,174,175
 392 112 392 112 399.5 104.5 c 128,-1,176
 407 97 407 97 407 86 c 0,177,178
 407 76 407 76 399.5 68 c 128,-1,179
 392 60 392 60 381 60 c 0,168,169
297 42 m 0,180,181
 287 42 287 42 279 50 c 128,-1,182
 271 58 271 58 271 68 c 0,183,184
 271 79 271 79 279 86.5 c 128,-1,185
 287 94 287 94 297 94 c 0,186,187
 308 94 308 94 315.5 86.5 c 128,-1,188
 323 79 323 79 323 68 c 0,189,190
 323 58 323 58 315.5 50 c 128,-1,191
 308 42 308 42 297 42 c 0,180,181
EndSplineSet
EndChar

StartChar: uniA830
Encoding: 43056 43056 8
Width: 237
GlyphClass: 2
Flags: W
HStem: 0 21G<78 159>
VStem: 78 81<0 622>
LayerCount: 2
Fore
SplineSet
159 0 m 1,0,-1
 78 0 l 1,1,-1
 78 622 l 1,2,-1
 159 622 l 1,3,-1
 159 0 l 1,0,-1
EndSplineSet
EndChar

StartChar: uniA831
Encoding: 43057 43057 9
Width: 437
GlyphClass: 2
Flags: W
HStem: 0 21G<78 159 278 359>
VStem: 78 81<0 622> 278 81<0 622>
LayerCount: 2
Fore
SplineSet
359 0 m 1,0,-1
 278 0 l 1,1,-1
 278 622 l 1,2,-1
 359 622 l 1,3,-1
 359 0 l 1,0,-1
159 0 m 1,4,-1
 78 0 l 1,5,-1
 78 622 l 1,6,-1
 159 622 l 1,7,-1
 159 0 l 1,4,-1
EndSplineSet
EndChar

StartChar: uniA832
Encoding: 43058 43058 10
Width: 637
GlyphClass: 2
Flags: W
HStem: 0 21G<78 159 278 359 479 559>
VStem: 78 81<0 622> 278 81<0 622> 479 80<0 622>
LayerCount: 2
Fore
SplineSet
359 0 m 1,0,-1
 278 0 l 1,1,-1
 278 622 l 1,2,-1
 359 622 l 1,3,-1
 359 0 l 1,0,-1
159 0 m 1,4,-1
 78 0 l 1,5,-1
 78 622 l 1,6,-1
 159 622 l 1,7,-1
 159 0 l 1,4,-1
559 0 m 1,8,-1
 479 0 l 1,9,-1
 479 622 l 1,10,-1
 559 622 l 1,11,-1
 559 0 l 1,8,-1
EndSplineSet
EndChar

StartChar: uniA833
Encoding: 43059 43059 11
Width: 622
GlyphClass: 2
Flags: W
HStem: 412 210
LayerCount: 2
Fore
SplineSet
60 412 m 1,0,-1
 40 491 l 1,1,-1
 563 622 l 1,2,-1
 583 542 l 1,3,-1
 60 412 l 1,0,-1
EndSplineSet
EndChar

StartChar: uniA834
Encoding: 43060 43060 12
Width: 622
GlyphClass: 2
Flags: W
LayerCount: 2
Fore
SplineSet
60 412 m 1,0,-1
 40 491 l 1,1,-1
 563 622 l 1,2,-1
 583 542 l 1,3,-1
 60 412 l 1,0,-1
60 215 m 1,4,-1
 40 294 l 1,5,-1
 563 425 l 1,6,-1
 583 345 l 1,7,-1
 60 215 l 1,4,-1
EndSplineSet
EndChar

StartChar: uniA835
Encoding: 43061 43061 13
Width: 622
GlyphClass: 2
Flags: W
LayerCount: 2
Fore
SplineSet
60 412 m 1,0,-1
 40 491 l 1,1,-1
 563 622 l 1,2,-1
 583 542 l 1,3,-1
 60 412 l 1,0,-1
60 215 m 1,4,-1
 40 294 l 1,5,-1
 563 425 l 1,6,-1
 583 345 l 1,7,-1
 60 215 l 1,4,-1
60 18 m 1,8,-1
 40 97 l 1,9,-1
 563 228 l 1,10,-1
 583 148 l 1,11,-1
 60 18 l 1,8,-1
EndSplineSet
EndChar

StartChar: uniA836
Encoding: 43062 43062 14
Width: 460
GlyphClass: 2
Flags: W
HStem: 167 70<167.781 292.523> 404 69<168.067 290.562>
VStem: 67 76<261.318 379.052> 317 76<261.626 378.349>
LayerCount: 2
Fore
SplineSet
230 167 m 0,0,1
 158 167 158 167 112.5 210 c 128,-1,2
 67 253 67 253 67 321 c 0,3,4
 67 365 67 365 87.5 399 c 128,-1,5
 108 433 108 433 145 453 c 128,-1,6
 182 473 182 473 230 473 c 0,7,8
 303 473 303 473 348 430.5 c 128,-1,9
 393 388 393 388 393 321 c 256,10,11
 393 254 393 254 348 210.5 c 128,-1,12
 303 167 303 167 230 167 c 0,0,1
230 404 m 0,13,14
 189 404 189 404 166 380.5 c 128,-1,15
 143 357 143 357 143 321 c 0,16,17
 143 282 143 282 166.5 259.5 c 128,-1,18
 190 237 190 237 230 237 c 256,19,20
 270 237 270 237 293.5 259.5 c 128,-1,21
 317 282 317 282 317 321 c 0,22,23
 317 357 317 357 293 380.5 c 128,-1,24
 269 404 269 404 230 404 c 0,13,14
EndSplineSet
EndChar

StartChar: uniA837
Encoding: 43063 43063 15
Width: 509
GlyphClass: 2
Flags: W
HStem: 86 70<157.834 281.79>
VStem: 57 76<181.294 297.696> 307 76<181.294 296.792>
LayerCount: 2
Fore
SplineSet
499 565 m 1,0,-1
 407 492 l 2,1,2
 376 467 376 467 339.5 441 c 128,-1,3
 303 415 303 415 262 387 c 1,4,5
 319 375 319 375 351 335.5 c 128,-1,6
 383 296 383 296 383 240 c 0,7,8
 383 196 383 196 362.5 161 c 128,-1,9
 342 126 342 126 305.5 106 c 128,-1,10
 269 86 269 86 221 86 c 256,11,12
 173 86 173 86 136 106 c 128,-1,13
 99 126 99 126 78 161 c 128,-1,14
 57 196 57 196 57 240 c 0,15,16
 57 286 57 286 80.5 320 c 128,-1,17
 104 354 104 354 158 395 c 2,18,-1
 453 623 l 1,19,-1
 499 565 l 1,0,-1
220 323 m 0,20,21
 180 323 180 323 156.5 300 c 128,-1,22
 133 277 133 277 133 240 c 0,23,24
 133 202 133 202 156.5 179 c 128,-1,25
 180 156 180 156 220 156 c 256,26,27
 260 156 260 156 283.5 179 c 128,-1,28
 307 202 307 202 307 240 c 0,29,30
 307 276 307 276 283 299.5 c 128,-1,31
 259 323 259 323 220 323 c 0,20,21
EndSplineSet
EndChar

StartChar: uniA838
Encoding: 43064 43064 16
Width: 307
GlyphClass: 2
Flags: W
HStem: -188 73<-150.189 51.975>
VStem: 101 81<546.289 616.556> 164 82<12.9103 421.278>
LayerCount: 2
Fore
SplineSet
-157 -177 m 1,0,-1
 -151 -104 l 1,1,2
 -125 -109 -125 -109 -103.5 -112 c 128,-1,3
 -82 -115 -82 -115 -63 -115 c 0,4,5
 17 -115 17 -115 66.5 -85.5 c 128,-1,6
 116 -56 116 -56 140 7 c 0,7,8
 164 69 164 69 164 180 c 0,9,10
 164 276 164 276 147 391 c 128,-1,11
 130 506 130 506 101 615 c 1,12,-1
 182 633 l 1,13,14
 202 561 202 561 216.5 480.5 c 128,-1,15
 231 400 231 400 238.5 321.5 c 128,-1,16
 246 243 246 243 246 177 c 0,17,18
 246 42 246 42 212.5 -35 c 128,-1,19
 179 -112 179 -112 111 -150 c 256,20,21
 43 -188 43 -188 -61 -188 c 0,22,23
 -83 -188 -83 -188 -107 -185 c 128,-1,24
 -131 -182 -131 -182 -157 -177 c 1,0,-1
EndSplineSet
EndChar

StartChar: uniA839
Encoding: 43065 43065 17
Width: 337
GlyphClass: 2
Flags: W
HStem: -240 75<-155 51.4034> 558 75<254.875 315.24>
VStem: 65 81<331.17 482.37> 176 81<-61.9504 146.877>
LayerCount: 2
Fore
SplineSet
-157 -237 m 1,0,-1
 -155 -162 l 1,1,2
 -135 -165 -135 -165 -104 -165 c 0,3,4
 83 -165 83 -165 145 -78 c 0,5,6
 176 -35 176 -35 176 29 c 0,7,8
 176 77 176 77 161 126 c 128,-1,9
 146 175 146 175 121 230 c 0,10,11
 94 289 94 289 79.5 333 c 128,-1,12
 65 377 65 377 65 421 c 0,13,14
 65 580 65 580 313 633 c 1,15,-1
 337 558 l 1,16,17
 237 539 237 539 191.5 506 c 128,-1,18
 146 473 146 473 146 421 c 0,19,20
 146 401 146 401 151.5 379 c 128,-1,21
 157 357 157 357 169.5 327 c 128,-1,22
 182 297 182 297 202 250 c 0,23,24
 227 194 227 194 242 139 c 128,-1,25
 257 84 257 84 257 30 c 0,26,27
 257 -98 257 -98 167 -169 c 128,-1,28
 77 -240 77 -240 -100 -240 c 0,29,30
 -128 -240 -128 -240 -157 -237 c 1,0,-1
EndSplineSet
EndChar

StartChar: A_iv
Encoding: 71168 71168 18
Width: 756
GlyphClass: 2
Flags: W
HStem: -10 73<391.149 534.237> 124 74<175.303 271.584> 333 65<263 315.995> 530 92<198.726 317.012> 551 71<0 132 385 596 676 766>
VStem: 26 73<283.156 336.438> 333 80<418.753 513.912> 342 81<217.578 317.607> 596 80<139.259 551>
AnchorPoint: "+BBEENQQ3BEsEPARPBD0EPQQ+BDUA--5" 636 718 basechar 0
LayerCount: 2
Fore
SplineSet
0 622 m 1,0,-1
 766 622 l 1,1,-1
 766 551 l 1,2,-1
 676 551 l 1,3,-1
 676 282 l 2,4,5
 676 223 676 223 665.5 170 c 128,-1,6
 655 117 655 117 630.5 76.5 c 128,-1,7
 606 36 606 36 564 13 c 128,-1,8
 522 -10 522 -10 460 -10 c 0,9,10
 412 -10 412 -10 372 8.5 c 128,-1,11
 332 27 332 27 304 57.5 c 128,-1,12
 276 88 276 88 263 124 c 1,13,-1
 250 124 l 2,14,15
 222 124 222 124 188 134 c 128,-1,16
 154 144 154 144 121.5 167.5 c 128,-1,17
 89 191 89 191 63.5 232 c 128,-1,18
 38 273 38 273 26 335 c 1,19,-1
 99 350 l 1,20,21
 110 297 110 297 130 266.5 c 128,-1,22
 150 236 150 236 173 221 c 128,-1,23
 196 206 196 206 216.5 202 c 128,-1,24
 237 198 237 198 250 198 c 0,25,26
 303 198 303 198 322.5 219.5 c 128,-1,27
 342 241 342 241 342 266 c 0,28,29
 342 278 342 278 337.5 292.5 c 128,-1,30
 333 307 333 307 318.5 319 c 128,-1,31
 304 331 304 331 273 333 c 2,32,-1
 263 333 l 1,33,-1
 263 398 l 1,34,35
 302 399 302 399 317.5 421.5 c 128,-1,36
 333 444 333 444 333 470 c 0,37,38
 333 493 333 493 317.5 511.5 c 128,-1,39
 302 530 302 530 270 530 c 0,40,41
 229 530 229 530 200.5 509.5 c 128,-1,42
 172 489 172 489 151 468 c 1,43,-1
 102 525 l 1,44,45
 109 532 109 532 116.5 538.5 c 128,-1,46
 124 545 124 545 132 551 c 1,47,-1
 0 551 l 1,48,-1
 0 622 l 1,0,-1
461 63 m 0,49,50
 499 63 499 63 529.5 81.5 c 128,-1,51
 560 100 560 100 578 148 c 128,-1,52
 596 196 596 196 596 282 c 2,53,-1
 596 551 l 1,54,-1
 385 551 l 1,55,56
 413 514 413 514 413 468 c 0,57,58
 413 409 413 409 368 369 c 1,59,60
 397 348 397 348 410 319.5 c 128,-1,61
 423 291 423 291 423 268 c 0,62,63
 423 229 423 229 403.5 194.5 c 128,-1,64
 384 160 384 160 341 141 c 1,65,66
 355 110 355 110 388 86.5 c 128,-1,67
 421 63 421 63 461 63 c 0,49,50
EndSplineSet
EndChar

StartChar: AA_iv
Encoding: 71169 71169 19
Width: 735
GlyphClass: 2
Flags: W
HStem: -10 71<307.915 528.617> 20 70<476.987 583> 322 70<138.417 222.75> 533 89<141.143 235.014> 551 71<0 81 299 568 644.6 745>
VStem: 50 70<410.392 512.576> 187 81<100.636 290.06> 251 79<407.013 518.307> 542 81<151.24 530.891>
AnchorPoint: "+BBEENQQ3BEsEPARPBD0EPQQ+BDUA--5" 610 718 basechar 0
LayerCount: 2
Fore
SplineSet
657 -21 m 1,0,1
 642 -5 642 -5 633.5 3.5 c 128,-1,2
 625 12 625 12 615 16 c 128,-1,3
 605 20 605 20 587 20 c 0,4,5
 558 20 558 20 532 12.5 c 128,-1,6
 506 5 506 5 474 -2.5 c 128,-1,7
 442 -10 442 -10 394 -10 c 0,8,9
 340 -10 340 -10 292.5 8 c 128,-1,10
 245 26 245 26 216 67 c 128,-1,11
 187 108 187 108 187 178 c 0,12,13
 187 222 187 222 197 256.5 c 128,-1,14
 207 291 207 291 223 327 c 1,15,16
 215 324 215 324 206 323 c 128,-1,17
 197 322 197 322 187 322 c 0,18,19
 149 322 149 322 117.5 341 c 128,-1,20
 86 360 86 360 68 392 c 128,-1,21
 50 424 50 424 50 462 c 0,22,23
 50 488 50 488 58.5 510.5 c 128,-1,24
 67 533 67 533 81 551 c 1,25,-1
 0 551 l 1,26,-1
 0 622 l 1,27,-1
 745 622 l 1,28,-1
 745 551 l 1,29,-1
 650 551 l 1,30,31
 637 502 637 502 630 453 c 128,-1,32
 623 404 623 404 623 355 c 0,33,34
 623 276 623 276 630.5 222 c 128,-1,35
 638 168 638 168 651 131 c 128,-1,36
 664 94 664 94 682 65 c 1,37,38
 694 56 694 56 706 42.5 c 128,-1,39
 718 29 718 29 731 9 c 1,40,-1
 657 -21 l 1,0,1
542 352 m 0,41,42
 542 401 542 401 549 451 c 128,-1,43
 556 501 556 501 568 551 c 1,44,-1
 299 551 l 1,45,46
 316 529 316 529 323 502 c 128,-1,47
 330 475 330 475 330 449 c 0,48,49
 330 415 330 415 320.5 382 c 128,-1,50
 311 349 311 349 299 316.5 c 128,-1,51
 287 284 287 284 277.5 250 c 128,-1,52
 268 216 268 216 268 179 c 0,53,54
 268 121 268 121 298 91 c 128,-1,55
 328 61 328 61 397 61 c 0,56,57
 436 61 436 61 466.5 68 c 128,-1,58
 497 75 497 75 525 82 c 128,-1,59
 553 89 553 89 583 90 c 1,60,61
 542 183 542 183 542 352 c 0,41,42
189 392 m 0,62,63
 206 392 206 392 220.5 397.5 c 128,-1,64
 235 403 235 403 247 412 c 1,65,66
 249 423 249 423 250 436 c 128,-1,67
 251 449 251 449 251 462 c 0,68,69
 251 473 251 473 246 489.5 c 128,-1,70
 241 506 241 506 228 519.5 c 128,-1,71
 215 533 215 533 190 533 c 0,72,73
 161 533 161 533 140.5 512.5 c 128,-1,74
 120 492 120 492 120 461 c 0,75,76
 120 437 120 437 131.5 421.5 c 128,-1,77
 143 406 143 406 159.5 399 c 128,-1,78
 176 392 176 392 189 392 c 0,62,63
EndSplineSet
EndChar

StartChar: I_iv
Encoding: 71170 71170 20
Width: 638
GlyphClass: 2
Flags: W
HStem: -10 74<199.268 392.241> 278 70<182.298 265> 502 120<164.942 245> 551 71<0 140 245 433 541 648>
VStem: 60 80<114.95 239.497 379.553 476.67> 458 83<471.493 551> 498 80<180.05 486.027>
AnchorPoint: "+BBEENQQ3BEsEPARPBD0EPQQ+BDUA--6" 319 880 basechar 0
AnchorPoint: "+BBEENQQ3BEsEPARPBD0EPQQ+BDUA--5" 578 758 basechar 0
LayerCount: 2
Fore
SplineSet
648 551 m 1,0,-1
 541 551 l 1,1,2
 558 496 558 496 568 436 c 128,-1,3
 578 376 578 376 578 312 c 0,4,5
 578 253 578 253 563.5 195.5 c 128,-1,6
 549 138 549 138 516 91.5 c 128,-1,7
 483 45 483 45 428.5 17.5 c 128,-1,8
 374 -10 374 -10 294 -10 c 0,9,10
 232 -10 232 -10 178.5 11 c 128,-1,11
 125 32 125 32 92.5 73.5 c 128,-1,12
 60 115 60 115 60 178 c 0,13,14
 60 218 60 218 80 251.5 c 128,-1,15
 100 285 100 285 134 307 c 1,16,17
 98 327 98 327 79 359 c 128,-1,18
 60 391 60 391 60 429 c 256,19,20
 60 467 60 467 79.5 499.5 c 128,-1,21
 99 532 99 532 140 551 c 1,22,-1
 0 551 l 1,23,-1
 0 622 l 1,24,-1
 433 622 l 1,25,26
 418 661 418 661 401 701 c 128,-1,27
 384 741 384 741 365 782 c 1,28,-1
 439 805 l 1,29,30
 458 765 458 765 478 718.5 c 128,-1,31
 498 672 498 672 517 622 c 1,32,-1
 648 622 l 1,33,-1
 648 551 l 1,0,-1
265 278 m 1,34,35
 213 278 213 278 176.5 252.5 c 128,-1,36
 140 227 140 227 140 177 c 0,37,38
 140 137 140 137 164 112 c 128,-1,39
 188 87 188 87 224 75.5 c 128,-1,40
 260 64 260 64 294 64 c 0,41,42
 389 64 389 64 443.5 125.5 c 128,-1,43
 498 187 498 187 498 312 c 0,44,45
 498 373 498 373 487.5 432.5 c 128,-1,46
 477 492 477 492 458 551 c 1,47,-1
 245 551 l 1,48,-1
 245 502 l 1,49,50
 186 502 186 502 163.5 479 c 128,-1,51
 141 456 141 456 141 428 c 0,52,53
 141 397 141 397 169 372.5 c 128,-1,54
 197 348 197 348 265 348 c 1,55,-1
 265 278 l 1,34,35
EndSplineSet
EndChar

StartChar: II_iv
Encoding: 71171 71171 21
Width: 640
GlyphClass: 2
Flags: W
HStem: -10 74<198.284 400.823> 278 70<183.164 265> 502 120<164.942 245> 551 71<0 140 245 372 477 650> 728 72<466.516 575.358>
VStem: 60 80<114.426 238.596 379.553 476.67> 370 83<622.281 712.01> 490 80<148.437 356.453>
AnchorPoint: "+BBEENQQ3BEsEPARPBD0EPQQ+BDUA--6" 320 880 basechar 0
AnchorPoint: "+BBEENQQ3BEsEPARPBD0EPQQ+BDUA--5" 710 758 basechar 0
LayerCount: 2
Fore
SplineSet
650 551 m 1,0,-1
 477 551 l 1,1,2
 494 503 494 503 516 451 c 128,-1,3
 538 399 538 399 554 347 c 128,-1,4
 570 295 570 295 570 247 c 0,5,6
 570 163 570 163 535 105.5 c 128,-1,7
 500 48 500 48 437.5 19 c 128,-1,8
 375 -10 375 -10 294 -10 c 0,9,10
 232 -10 232 -10 178.5 10 c 128,-1,11
 125 30 125 30 92.5 72.5 c 128,-1,12
 60 115 60 115 60 182 c 0,13,14
 60 219 60 219 80.5 252 c 128,-1,15
 101 285 101 285 135 307 c 1,16,17
 98 327 98 327 79 359 c 128,-1,18
 60 391 60 391 60 429 c 256,19,20
 60 467 60 467 79.5 499.5 c 128,-1,21
 99 532 99 532 140 551 c 1,22,-1
 0 551 l 1,23,-1
 0 622 l 1,24,-1
 372 622 l 1,25,26
 371 630 371 630 370.5 637.5 c 128,-1,27
 370 645 370 645 370 652 c 0,28,29
 370 718 370 718 404 759 c 128,-1,30
 438 800 438 800 509 800 c 0,31,32
 559 800 559 800 588 780.5 c 128,-1,33
 617 761 617 761 634 732 c 1,34,-1
 565 699 l 1,35,36
 555 713 555 713 542 720.5 c 128,-1,37
 529 728 529 728 510 728 c 0,38,39
 483 728 483 728 468 712.5 c 128,-1,40
 453 697 453 697 453 658 c 0,41,42
 453 649 453 649 454 640 c 128,-1,43
 455 631 455 631 457 622 c 1,44,-1
 650 622 l 1,45,-1
 650 551 l 1,0,-1
265 278 m 1,46,-1
 260 278 l 2,47,48
 210 277 210 277 175 251 c 128,-1,49
 140 225 140 225 140 181 c 0,50,51
 140 138 140 138 164 112 c 128,-1,52
 188 86 188 86 224 75 c 128,-1,53
 260 64 260 64 294 64 c 0,54,55
 350 64 350 64 394 82.5 c 128,-1,56
 438 101 438 101 464 141 c 128,-1,57
 490 181 490 181 490 245 c 0,58,59
 490 295 490 295 472 346.5 c 128,-1,60
 454 398 454 398 430 449.5 c 128,-1,61
 406 501 406 501 389 551 c 1,62,-1
 245 551 l 1,63,-1
 245 502 l 1,64,65
 186 502 186 502 163.5 479 c 128,-1,66
 141 456 141 456 141 428 c 0,67,68
 141 397 141 397 169 372.5 c 128,-1,69
 197 348 197 348 265 348 c 1,70,-1
 265 278 l 1,46,-1
EndSplineSet
EndChar

StartChar: U_iv
Encoding: 71172 71172 22
Width: 742
GlyphClass: 2
Flags: W
HStem: -10 71<217.55 329.395> 204 69<282.986 327.208> 551 71<0 88 203 545 658 752> 726 74<285.396 465.158>
VStem: 60 81<171.322 522.764> 88 83<455.956 551> 350 81<80.9465 179.203> 602 80<157.478 536.958>
AnchorPoint: "+BBEENQQ3BEsEPARPBD0EPQQ+BDUA--6" 371 880 basechar 0
AnchorPoint: "+BBEENQQ3BEsEPARPBD0EPQQ+BDUA--5" 682 758 basechar 0
LayerCount: 2
Fore
SplineSet
284 273 m 1,0,1
 352 269 352 269 391.5 228.5 c 128,-1,2
 431 188 431 188 431 132 c 0,3,4
 431 92 431 92 411 60 c 128,-1,5
 391 28 391 28 355.5 9 c 128,-1,6
 320 -10 320 -10 273 -10 c 0,7,8
 174 -10 174 -10 117 81.5 c 128,-1,9
 60 173 60 173 60 340 c 0,10,11
 60 398 60 398 67 451 c 128,-1,12
 74 504 74 504 88 551 c 1,13,-1
 0 551 l 1,14,-1
 0 622 l 1,15,-1
 116 622 l 1,16,17
 156 704 156 704 222.5 752 c 128,-1,18
 289 800 289 800 382 800 c 0,19,20
 468 800 468 800 531 750 c 128,-1,21
 594 700 594 700 631 622 c 1,22,-1
 752 622 l 1,23,-1
 752 551 l 1,24,-1
 658 551 l 1,25,26
 682 472 682 472 682 382 c 0,27,28
 682 317 682 317 674 246.5 c 128,-1,29
 666 176 666 176 650.5 108 c 128,-1,30
 635 40 635 40 614 -17 c 1,31,-1
 542 15 l 1,32,33
 560 64 560 64 573.5 125 c 128,-1,34
 587 186 587 186 594.5 252 c 128,-1,35
 602 318 602 318 602 381 c 0,36,37
 602 421 602 421 596 465 c 128,-1,38
 590 509 590 509 576 551 c 1,39,-1
 171 551 l 1,40,41
 155 502 155 502 148 447 c 128,-1,42
 141 392 141 392 141 338 c 0,43,44
 141 239 141 239 160 178 c 128,-1,45
 179 117 179 117 209.5 89 c 128,-1,46
 240 61 240 61 274 61 c 0,47,48
 307 61 307 61 328.5 80.5 c 128,-1,49
 350 100 350 100 350 129 c 0,50,51
 350 156 350 156 331.5 178 c 128,-1,52
 313 200 313 200 274 204 c 1,53,-1
 284 273 l 1,0,1
378 726 m 0,54,55
 317 726 317 726 274 697.5 c 128,-1,56
 231 669 231 669 203 622 c 1,57,-1
 545 622 l 1,58,59
 518 668 518 668 477.5 697 c 128,-1,60
 437 726 437 726 378 726 c 0,54,55
EndSplineSet
EndChar

StartChar: UU_iv
Encoding: 71173 71173 23
Width: 742
GlyphClass: 2
Flags: W
HStem: -10 71<212.086 295.169 532.029 579.945> 204 69<242.986 287.208> 551 71<0 88 203 543 651 752> 726 74<285.396 465.525>
VStem: 60 81<168.365 522.764> 88 83<455.956 551> 310 81<77.362 179.203> 443 80<69.4449 274.706> 605 80<90.9425 398.85>
AnchorPoint: "+BBEENQQ3BEsEPARPBD0EPQQ+BDUA--6" 371 880 basechar 0
AnchorPoint: "+BBEENQQ3BEsEPARPBD0EPQQ+BDUA--5" 685 758 basechar 0
LayerCount: 2
Fore
SplineSet
752 551 m 1,0,-1
 651 551 l 1,1,2
 668 491 668 491 676.5 422.5 c 128,-1,3
 685 354 685 354 685 282 c 0,4,5
 685 251 685 251 683 212.5 c 128,-1,6
 681 174 681 174 674 135 c 128,-1,7
 667 96 667 96 652.5 63 c 128,-1,8
 638 30 638 30 613 10 c 128,-1,9
 588 -10 588 -10 550 -10 c 0,10,11
 499 -10 499 -10 471 29.5 c 128,-1,12
 443 69 443 69 443 139 c 0,13,14
 443 181 443 181 453.5 230 c 128,-1,15
 464 279 464 279 483 329 c 128,-1,16
 502 379 502 379 528.5 423 c 128,-1,17
 555 467 555 467 586 498 c 1,18,19
 583 512 583 512 580 525 c 128,-1,20
 577 538 577 538 572 551 c 1,21,-1
 171 551 l 1,22,23
 155 502 155 502 148 447 c 128,-1,24
 141 392 141 392 141 338 c 0,25,26
 141 239 141 239 159.5 178 c 128,-1,27
 178 117 178 117 205 89 c 128,-1,28
 232 61 232 61 257 61 c 0,29,30
 280 61 280 61 295 80.5 c 128,-1,31
 310 100 310 100 310 129 c 0,32,33
 310 156 310 156 291.5 178 c 128,-1,34
 273 200 273 200 234 204 c 1,35,-1
 244 273 l 1,36,37
 312 269 312 269 351.5 228.5 c 128,-1,38
 391 188 391 188 391 132 c 0,39,40
 391 72 391 72 353.5 31 c 128,-1,41
 316 -10 316 -10 255 -10 c 0,42,43
 198 -10 198 -10 154 31 c 128,-1,44
 110 72 110 72 85 150.5 c 128,-1,45
 60 229 60 229 60 340 c 0,46,47
 60 398 60 398 67 451 c 128,-1,48
 74 504 74 504 88 551 c 1,49,-1
 0 551 l 1,50,-1
 0 622 l 1,51,-1
 116 622 l 1,52,53
 156 704 156 704 222.5 752 c 128,-1,54
 289 800 289 800 382 800 c 0,55,56
 470 800 470 800 530 751 c 128,-1,57
 590 702 590 702 625 622 c 1,58,-1
 752 622 l 1,59,-1
 752 551 l 1,0,-1
378 726 m 0,60,61
 317 726 317 726 274 697.5 c 128,-1,62
 231 669 231 669 203 622 c 1,63,-1
 543 622 l 1,64,65
 518 668 518 668 477.5 697 c 128,-1,66
 437 726 437 726 378 726 c 0,60,61
605 280 m 0,67,68
 605 305 605 305 604 336 c 128,-1,69
 603 367 603 367 600 401 c 1,70,71
 568 358 568 358 551.5 306.5 c 128,-1,72
 535 255 535 255 529 208.5 c 128,-1,73
 523 162 523 162 523 134 c 0,74,75
 523 90 523 90 533.5 75 c 128,-1,76
 544 60 544 60 554 60 c 0,77,78
 572 60 572 60 583 90 c 128,-1,79
 594 120 594 120 599.5 170.5 c 128,-1,80
 605 221 605 221 605 280 c 0,67,68
EndSplineSet
EndChar

StartChar: VocR_iv
Encoding: 71174 71174 24
Width: 795
GlyphClass: 2
Flags: W
HStem: -10 74<420.502 450.041> 254 75<404 519.077> 367 76<80.7182 261.671> 530 92<574.41 649.169> 551 71<0 324 404 511 715 805>
VStem: 324 80<84.5061 240 389 551> 486 75<380.448 513.402> 643 79<89.1381 208.899> 660 75<413.663 519.836>
AnchorPoint: "+BBEENQQ3BEsEPARPBD0EPQQ+BDUA--5" 620 718 basechar 0
LayerCount: 2
Fore
SplineSet
805 551 m 1,0,-1
 715 551 l 1,1,2
 735 519 735 519 735 478 c 0,3,4
 735 434 735 434 710.5 388 c 128,-1,5
 686 342 686 342 634 308 c 1,6,7
 666 269 666 269 694 226.5 c 128,-1,8
 722 184 722 184 722 140 c 0,9,10
 722 82 722 82 690.5 49 c 128,-1,11
 659 16 659 16 613 -7 c 1,12,-1
 572 57 l 1,13,14
 598 69 598 69 620.5 88 c 128,-1,15
 643 107 643 107 643 144 c 256,16,17
 643 181 643 181 619.5 211.5 c 128,-1,18
 596 242 596 242 567 276 c 1,19,20
 538 266 538 266 503 260 c 128,-1,21
 468 254 468 254 427 254 c 0,22,23
 421 254 421 254 415.5 254 c 128,-1,24
 410 254 410 254 404 255 c 1,25,-1
 404 141 l 2,26,27
 404 100 404 100 420 84 c 128,-1,28
 436 68 436 68 460 64 c 1,29,-1
 449 -10 l 1,30,31
 383 -6 383 -6 353.5 26.5 c 128,-1,32
 324 59 324 59 324 137 c 2,33,-1
 324 240 l 1,34,-1
 116 155 l 1,35,-1
 88 232 l 1,36,-1
 301 312 l 1,37,38
 274 339 274 339 253 350.5 c 128,-1,39
 232 362 232 362 213.5 364.5 c 128,-1,40
 195 367 195 367 174 367 c 0,41,42
 149 367 149 367 124 360.5 c 128,-1,43
 99 354 99 354 69 340 c 1,44,-1
 40 413 l 1,45,46
 76 429 76 429 108.5 436 c 128,-1,47
 141 443 141 443 172 443 c 0,48,49
 213 443 213 443 250 431.5 c 128,-1,50
 287 420 287 420 324 389 c 1,51,-1
 324 551 l 1,52,-1
 0 551 l 1,53,-1
 0 622 l 1,54,-1
 805 622 l 1,55,-1
 805 551 l 1,0,-1
486 462 m 0,56,57
 486 514 486 514 511 551 c 1,58,-1
 404 551 l 1,59,-1
 404 329 l 1,60,-1
 430 329 l 2,61,62
 456 329 456 329 478.5 332 c 128,-1,63
 501 335 501 335 520 339 c 1,64,65
 505 365 505 365 495.5 395 c 128,-1,66
 486 425 486 425 486 462 c 0,56,57
561 462 m 0,67,68
 561 435 561 435 569 412 c 128,-1,69
 577 389 577 389 590 368 c 1,70,71
 626 391 626 391 643 421 c 128,-1,72
 660 451 660 451 660 481 c 0,73,74
 660 501 660 501 649.5 515.5 c 128,-1,75
 639 530 639 530 617 530 c 0,76,77
 587 530 587 530 574 509 c 128,-1,78
 561 488 561 488 561 462 c 0,67,68
EndSplineSet
EndChar

StartChar: VocRR_iv
Encoding: 71175 71175 25
Width: 835
GlyphClass: 2
Flags: W
HStem: -10 74<420.502 450.041> 254 75<404 519.077> 324 62<709.408 743.077> 367 76<80.7182 261.671> 530 92<574.41 649.169> 551 71<0 324 404 511 715 845>
VStem: 324 80<84.5061 240 389 551> 486 75<380.448 513.402> 643 79<89.1381 172.118> 660 75<413.461 519.836> 757 65<243.163 314.164>
AnchorPoint: "+BBEENQQ3BEsEPARPBD0EPQQ+BDUA--5" 617 718 basechar 0
LayerCount: 2
Fore
SplineSet
845 551 m 1,0,-1
 715 551 l 1,1,2
 735 519 735 519 735 478 c 0,3,4
 735 432 735 432 709 386 c 1,5,6
 759 386 759 386 790.5 354.5 c 128,-1,7
 822 323 822 323 822 278 c 0,8,9
 822 235 822 235 791.5 204.5 c 128,-1,10
 761 174 761 174 719 170 c 1,11,12
 722 155 722 155 722 140 c 0,13,14
 722 82 722 82 690.5 49 c 128,-1,15
 659 16 659 16 613 -7 c 1,16,-1
 572 57 l 1,17,18
 598 69 598 69 620.5 88 c 128,-1,19
 643 107 643 107 643 144 c 0,20,21
 643 172 643 172 630 195 c 128,-1,22
 617 218 617 218 599 238 c 128,-1,23
 581 258 581 258 567 276 c 1,24,25
 538 266 538 266 503 260 c 128,-1,26
 468 254 468 254 427 254 c 0,27,28
 421 254 421 254 415.5 254 c 128,-1,29
 410 254 410 254 404 255 c 1,30,-1
 404 141 l 2,31,32
 404 100 404 100 420 84 c 128,-1,33
 436 68 436 68 460 64 c 1,34,-1
 449 -10 l 1,35,36
 383 -6 383 -6 353.5 26.5 c 128,-1,37
 324 59 324 59 324 137 c 2,38,-1
 324 240 l 1,39,-1
 116 155 l 1,40,-1
 88 232 l 1,41,-1
 301 312 l 1,42,43
 274 339 274 339 253 350.5 c 128,-1,44
 232 362 232 362 213.5 364.5 c 128,-1,45
 195 367 195 367 174 367 c 0,46,47
 149 367 149 367 124 360.5 c 128,-1,48
 99 354 99 354 69 340 c 1,49,-1
 40 413 l 1,50,51
 76 429 76 429 108.5 436 c 128,-1,52
 141 443 141 443 172 443 c 0,53,54
 213 443 213 443 250 431.5 c 128,-1,55
 287 420 287 420 324 389 c 1,56,-1
 324 551 l 1,57,-1
 0 551 l 1,58,-1
 0 622 l 1,59,-1
 845 622 l 1,60,-1
 845 551 l 1,0,-1
486 462 m 0,61,62
 486 514 486 514 511 551 c 1,63,-1
 404 551 l 1,64,-1
 404 329 l 1,65,-1
 430 329 l 2,66,67
 456 329 456 329 478.5 332 c 128,-1,68
 501 335 501 335 520 339 c 1,69,70
 505 365 505 365 495.5 395 c 128,-1,71
 486 425 486 425 486 462 c 0,61,62
561 462 m 0,72,73
 561 435 561 435 569 412 c 128,-1,74
 577 389 577 389 590 368 c 1,75,76
 626 391 626 391 643 421 c 128,-1,77
 660 451 660 451 660 481 c 0,78,79
 660 501 660 501 649.5 515.5 c 128,-1,80
 639 530 639 530 617 530 c 0,81,82
 587 530 587 530 574 509 c 128,-1,83
 561 488 561 488 561 462 c 0,72,73
664 282 m 0,84,85
 664 278 664 278 664.5 275 c 128,-1,86
 665 272 665 272 666 268 c 0,87,88
 669 266 669 266 679 252 c 0,89,90
 685 245 685 245 692 239 c 128,-1,91
 699 233 699 233 710 233 c 0,92,93
 729 233 729 233 743 245.5 c 128,-1,94
 757 258 757 258 757 279 c 0,95,96
 757 299 757 299 743.5 311.5 c 128,-1,97
 730 324 730 324 710 324 c 0,98,99
 691 324 691 324 677.5 310 c 128,-1,100
 664 296 664 296 664 282 c 0,84,85
EndSplineSet
EndChar

StartChar: VocL_iv
Encoding: 71176 71176 26
Width: 660
GlyphClass: 2
Flags: W
HStem: -40 70<491.624 599.592> 383 73<163.688 265.543 394.148 426> 551 71<0 426 506 670>
VStem: 60 80<195.57 357.404> 391 80<42.2952 133.75> 426 80<448.395 551> 520 80<245.94 366.422>
AnchorPoint: "+BBEENQQ3BEsEPARPBD0EPQQ+BDUA--5" 475 718 basechar 0
LayerCount: 2
Fore
SplineSet
188 10 m 1,0,1
 155 44 155 44 126 90.5 c 128,-1,2
 97 137 97 137 78.5 189 c 128,-1,3
 60 241 60 241 60 290 c 0,4,5
 60 336 60 336 78 373.5 c 128,-1,6
 96 411 96 411 129.5 433.5 c 128,-1,7
 163 456 163 456 211 456 c 0,8,9
 240 456 240 456 273 443 c 128,-1,10
 306 430 306 430 330 400 c 1,11,12
 366 444 366 444 426 453 c 1,13,-1
 426 551 l 1,14,-1
 0 551 l 1,15,-1
 0 622 l 1,16,-1
 670 622 l 1,17,-1
 670 551 l 1,18,-1
 506 551 l 1,19,-1
 506 448 l 1,20,21
 545 435 545 435 572.5 402.5 c 128,-1,22
 600 370 600 370 600 322 c 0,23,24
 600 279 600 279 587 249 c 128,-1,25
 574 219 574 219 555 197 c 128,-1,26
 536 175 536 175 516.5 157.5 c 128,-1,27
 497 140 497 140 484 123 c 128,-1,28
 471 106 471 106 471 86 c 0,29,30
 471 55 471 55 491 42.5 c 128,-1,31
 511 30 511 30 527 30 c 0,32,33
 547 30 547 30 567 33.5 c 128,-1,34
 587 37 587 37 600 43 c 1,35,-1
 617 -22 l 1,36,37
 598 -30 598 -30 576.5 -35 c 128,-1,38
 555 -40 555 -40 532 -40 c 0,39,40
 481 -40 481 -40 450 -22 c 128,-1,41
 419 -4 419 -4 405 24 c 128,-1,42
 391 52 391 52 391 82 c 0,43,44
 391 113 391 113 404 136 c 128,-1,45
 417 159 417 159 436 178 c 128,-1,46
 455 197 455 197 474.5 216.5 c 128,-1,47
 494 236 494 236 507 260.5 c 128,-1,48
 520 285 520 285 520 318 c 0,49,50
 520 349 520 349 500 366 c 128,-1,51
 480 383 480 383 455 383 c 0,52,53
 442 383 442 383 422.5 377.5 c 128,-1,54
 403 372 403 372 386.5 354 c 128,-1,55
 370 336 370 336 364 300 c 1,56,-1
 296 300 l 1,57,58
 289 346 289 346 264 364.5 c 128,-1,59
 239 383 239 383 213 383 c 0,60,61
 179 383 179 383 159.5 356.5 c 128,-1,62
 140 330 140 330 140 289 c 0,63,64
 140 252 140 252 156 210 c 128,-1,65
 172 168 172 168 196 129 c 128,-1,66
 220 90 220 90 245 59 c 1,67,-1
 188 10 l 1,0,1
EndSplineSet
EndChar

StartChar: VocLL_iv
Encoding: 71177 71177 27
Width: 660
GlyphClass: 2
Flags: W
HStem: -210 70<496.113 636.024> -40 70<508.774 604.049> 383 73<163.688 265.543 394.148 426> 551 71<0 426 506 670>
VStem: 60 80<195.57 357.404> 391 80<42.4517 133.75> 408 80<-127.392 -48.288> 426 80<448.395 551> 520 80<245.94 366.422>
AnchorPoint: "+BBEENQQ3BEsEPARPBD0EPQQ+BDUA--5" 475 718 basechar 0
LayerCount: 2
Fore
SplineSet
188 10 m 1,0,1
 155 44 155 44 126 90.5 c 128,-1,2
 97 137 97 137 78.5 189 c 128,-1,3
 60 241 60 241 60 290 c 0,4,5
 60 336 60 336 78 373.5 c 128,-1,6
 96 411 96 411 129.5 433.5 c 128,-1,7
 163 456 163 456 211 456 c 0,8,9
 240 456 240 456 273 443 c 128,-1,10
 306 430 306 430 330 400 c 1,11,12
 366 444 366 444 426 453 c 1,13,-1
 426 551 l 1,14,-1
 0 551 l 1,15,-1
 0 622 l 1,16,-1
 670 622 l 1,17,-1
 670 551 l 1,18,-1
 506 551 l 1,19,-1
 506 448 l 1,20,21
 545 435 545 435 572.5 402.5 c 128,-1,22
 600 370 600 370 600 322 c 0,23,24
 600 279 600 279 587 249 c 128,-1,25
 574 219 574 219 555 197 c 128,-1,26
 536 175 536 175 516.5 157.5 c 128,-1,27
 497 140 497 140 484 123 c 128,-1,28
 471 106 471 106 471 86 c 0,29,30
 471 55 471 55 491 42.5 c 128,-1,31
 511 30 511 30 527 30 c 0,32,33
 547 30 547 30 566 33 c 128,-1,34
 585 36 585 36 600 43 c 1,35,-1
 617 -22 l 1,36,37
 598 -30 598 -30 576.5 -35 c 128,-1,38
 555 -40 555 -40 532 -40 c 0,39,40
 525 -40 525 -40 519 -39 c 1,41,42
 505 -52 505 -52 496.5 -64.5 c 128,-1,43
 488 -77 488 -77 488 -92 c 0,44,45
 488 -113 488 -113 497.5 -123 c 128,-1,46
 507 -133 507 -133 520 -136.5 c 128,-1,47
 533 -140 533 -140 544 -140 c 0,48,49
 571 -140 571 -140 596.5 -134 c 128,-1,50
 622 -128 622 -128 641 -115 c 1,51,-1
 663 -182 l 1,52,53
 640 -196 640 -196 610.5 -203 c 128,-1,54
 581 -210 581 -210 549 -210 c 0,55,56
 473 -210 473 -210 440.5 -175.5 c 128,-1,57
 408 -141 408 -141 408 -96 c 0,58,59
 408 -72 408 -72 418 -53 c 128,-1,60
 428 -34 428 -34 443 -18 c 1,61,62
 415 -1 415 -1 403 26.5 c 128,-1,63
 391 54 391 54 391 82 c 0,64,65
 391 113 391 113 404 136 c 128,-1,66
 417 159 417 159 436 178 c 128,-1,67
 455 197 455 197 474.5 216.5 c 128,-1,68
 494 236 494 236 507 260.5 c 128,-1,69
 520 285 520 285 520 318 c 0,70,71
 520 349 520 349 500 366 c 128,-1,72
 480 383 480 383 455 383 c 0,73,74
 442 383 442 383 422.5 377.5 c 128,-1,75
 403 372 403 372 386.5 354 c 128,-1,76
 370 336 370 336 364 300 c 1,77,-1
 296 300 l 1,78,79
 289 346 289 346 264 364.5 c 128,-1,80
 239 383 239 383 213 383 c 0,81,82
 179 383 179 383 159.5 356.5 c 128,-1,83
 140 330 140 330 140 289 c 0,84,85
 140 252 140 252 156 210 c 128,-1,86
 172 168 172 168 196 129 c 128,-1,87
 220 90 220 90 245 59 c 1,88,-1
 188 10 l 1,0,1
EndSplineSet
EndChar

StartChar: E_iv
Encoding: 71178 71178 28
Width: 756
GlyphClass: 2
Flags: W
HStem: -10 73<391.149 534.237> 124 74<175.303 271.584> 333 65<263 315.995> 530 92<198.726 317.012> 551 71<0 132 385 591 676 766> 781 67<348 466.072>
VStem: 26 73<283.156 336.438> 333 80<418.753 513.912> 342 81<217.578 317.607> 596 80<139.259 551>
AnchorPoint: "+BBEENQQ3BEsEPARPBD0EPQQ+BDUA--6" 485 900 basechar 0
AnchorPoint: "+BBEENQQ3BEsEPARPBD0EPQQ+BDUA--5" 701 758 basechar 0
LayerCount: 2
Fore
SplineSet
0 622 m 1,0,-1
 591 622 l 1,1,2
 578 660 578 660 554 694.5 c 128,-1,3
 530 729 530 729 482 752.5 c 128,-1,4
 434 776 434 776 348 781 c 1,5,-1
 329 848 l 1,6,7
 417 848 417 848 478 827.5 c 128,-1,8
 539 807 539 807 578.5 773 c 128,-1,9
 618 739 618 739 640.5 699.5 c 128,-1,10
 663 660 663 660 673 622 c 1,11,-1
 766 622 l 1,12,-1
 766 551 l 1,13,-1
 676 551 l 1,14,-1
 676 282 l 2,15,16
 676 223 676 223 665.5 170 c 128,-1,17
 655 117 655 117 630.5 76.5 c 128,-1,18
 606 36 606 36 564 13 c 128,-1,19
 522 -10 522 -10 460 -10 c 0,20,21
 412 -10 412 -10 372 8.5 c 128,-1,22
 332 27 332 27 304 57.5 c 128,-1,23
 276 88 276 88 263 124 c 1,24,-1
 250 124 l 2,25,26
 222 124 222 124 188 134 c 128,-1,27
 154 144 154 144 121.5 167.5 c 128,-1,28
 89 191 89 191 63.5 232 c 128,-1,29
 38 273 38 273 26 335 c 1,30,-1
 99 350 l 1,31,32
 110 297 110 297 130 266.5 c 128,-1,33
 150 236 150 236 173 221 c 128,-1,34
 196 206 196 206 216.5 202 c 128,-1,35
 237 198 237 198 250 198 c 0,36,37
 303 198 303 198 322.5 219.5 c 128,-1,38
 342 241 342 241 342 266 c 0,39,40
 342 278 342 278 337.5 292.5 c 128,-1,41
 333 307 333 307 318.5 319 c 128,-1,42
 304 331 304 331 273 333 c 2,43,-1
 263 333 l 1,44,-1
 263 398 l 1,45,46
 302 399 302 399 317.5 421.5 c 128,-1,47
 333 444 333 444 333 470 c 0,48,49
 333 493 333 493 317.5 511.5 c 128,-1,50
 302 530 302 530 270 530 c 0,51,52
 229 530 229 530 200.5 509.5 c 128,-1,53
 172 489 172 489 151 468 c 1,54,-1
 102 525 l 1,55,56
 109 532 109 532 116.5 538.5 c 128,-1,57
 124 545 124 545 132 551 c 1,58,-1
 0 551 l 1,59,-1
 0 622 l 1,0,-1
461 63 m 0,60,61
 499 63 499 63 529.5 81.5 c 128,-1,62
 560 100 560 100 578 148 c 128,-1,63
 596 196 596 196 596 282 c 2,64,-1
 596 551 l 1,65,-1
 385 551 l 1,66,67
 413 514 413 514 413 468 c 0,68,69
 413 409 413 409 368 369 c 1,70,71
 397 348 397 348 410 319.5 c 128,-1,72
 423 291 423 291 423 268 c 0,73,74
 423 229 423 229 403.5 194.5 c 128,-1,75
 384 160 384 160 341 141 c 1,76,77
 355 110 355 110 388 86.5 c 128,-1,78
 421 63 421 63 461 63 c 0,60,61
EndSplineSet
EndChar

StartChar: AI_iv
Encoding: 71179 71179 29
Width: 756
GlyphClass: 2
Flags: W
HStem: -10 73<391.149 534.237> 124 74<175.303 271.584> 333 65<263 315.995> 530 92<198.726 317.012> 551 71<0 132 385 595 676 766> 725 70<374.825 554.898>
VStem: 26 73<283.156 336.438> 333 80<418.753 513.912> 342 81<217.578 317.607> 596 80<139.259 551>
AnchorPoint: "+BBEENQQ3BEsEPARPBD0EPQQ+BDUA--6" 461 900 basechar 0
AnchorPoint: "+BBEENQQ3BEsEPARPBD0EPQQ+BDUA--5" 741 758 basechar 0
LayerCount: 2
Fore
SplineSet
0 622 m 1,0,-1
 595 622 l 1,1,-1
 573 749 l 1,2,3
 550 739 550 739 520.5 732 c 128,-1,4
 491 725 491 725 460 725 c 0,5,6
 424 725 424 725 375 738.5 c 128,-1,7
 326 752 326 752 282 799 c 1,8,-1
 331 847 l 1,9,10
 356 825 356 825 388.5 810 c 128,-1,11
 421 795 421 795 455 795 c 0,12,13
 504 795 504 795 537.5 809 c 128,-1,14
 571 823 571 823 587 836 c 1,15,-1
 636 819 l 1,16,-1
 674 622 l 1,17,-1
 766 622 l 1,18,-1
 766 551 l 1,19,-1
 676 551 l 1,20,-1
 676 282 l 2,21,22
 676 223 676 223 665.5 170 c 128,-1,23
 655 117 655 117 630.5 76.5 c 128,-1,24
 606 36 606 36 564 13 c 128,-1,25
 522 -10 522 -10 460 -10 c 0,26,27
 412 -10 412 -10 372 8.5 c 128,-1,28
 332 27 332 27 304 57.5 c 128,-1,29
 276 88 276 88 263 124 c 1,30,-1
 250 124 l 2,31,32
 222 124 222 124 188 134 c 128,-1,33
 154 144 154 144 121.5 167.5 c 128,-1,34
 89 191 89 191 63.5 232 c 128,-1,35
 38 273 38 273 26 335 c 1,36,-1
 99 350 l 1,37,38
 110 297 110 297 130 266.5 c 128,-1,39
 150 236 150 236 173 221 c 128,-1,40
 196 206 196 206 216.5 202 c 128,-1,41
 237 198 237 198 250 198 c 0,42,43
 303 198 303 198 322.5 219.5 c 128,-1,44
 342 241 342 241 342 266 c 0,45,46
 342 278 342 278 337.5 292.5 c 128,-1,47
 333 307 333 307 318.5 319 c 128,-1,48
 304 331 304 331 273 333 c 2,49,-1
 263 333 l 1,50,-1
 263 398 l 1,51,52
 302 399 302 399 317.5 421.5 c 128,-1,53
 333 444 333 444 333 470 c 0,54,55
 333 493 333 493 317.5 511.5 c 128,-1,56
 302 530 302 530 270 530 c 0,57,58
 229 530 229 530 200.5 509.5 c 128,-1,59
 172 489 172 489 151 468 c 1,60,-1
 102 525 l 1,61,62
 109 532 109 532 116.5 538.5 c 128,-1,63
 124 545 124 545 132 551 c 1,64,-1
 0 551 l 1,65,-1
 0 622 l 1,0,-1
461 63 m 0,66,67
 499 63 499 63 529.5 81.5 c 128,-1,68
 560 100 560 100 578 148 c 128,-1,69
 596 196 596 196 596 282 c 2,70,-1
 596 551 l 1,71,-1
 385 551 l 1,72,73
 413 514 413 514 413 468 c 0,74,75
 413 409 413 409 368 369 c 1,76,77
 397 348 397 348 410 319.5 c 128,-1,78
 423 291 423 291 423 268 c 0,79,80
 423 229 423 229 403.5 194.5 c 128,-1,81
 384 160 384 160 341 141 c 1,82,83
 355 110 355 110 388 86.5 c 128,-1,84
 421 63 421 63 461 63 c 0,66,67
EndSplineSet
EndChar

StartChar: O_iv
Encoding: 71180 71180 30
Width: 735
GlyphClass: 2
Flags: W
HStem: -10 71<307.915 528.617> 20 70<476.987 583> 322 70<138.417 222.75> 533 89<141.143 235.014> 551 71<0 81 299 568 649.595 745> 781 67<331 449.072>
VStem: 50 70<410.392 512.576> 187 81<100.636 290.06> 251 79<407.013 518.307> 542 81<151.24 530.891>
AnchorPoint: "+BBEENQQ3BEsEPARPBD0EPQQ+BDUA--6" 447 920 basechar 0
AnchorPoint: "+BBEENQQ3BEsEPARPBD0EPQQ+BDUA--5" 683 758 basechar 0
LayerCount: 2
Fore
SplineSet
657 -21 m 1,0,1
 642 -5 642 -5 633.5 3.5 c 128,-1,2
 625 12 625 12 615 16 c 128,-1,3
 605 20 605 20 587 20 c 0,4,5
 558 20 558 20 532 12.5 c 128,-1,6
 506 5 506 5 474 -2.5 c 128,-1,7
 442 -10 442 -10 394 -10 c 0,8,9
 340 -10 340 -10 292.5 8 c 128,-1,10
 245 26 245 26 216 67 c 128,-1,11
 187 108 187 108 187 178 c 0,12,13
 187 222 187 222 197 256.5 c 128,-1,14
 207 291 207 291 223 327 c 1,15,16
 215 324 215 324 206 323 c 128,-1,17
 197 322 197 322 187 322 c 0,18,19
 149 322 149 322 117.5 341 c 128,-1,20
 86 360 86 360 68 392 c 128,-1,21
 50 424 50 424 50 462 c 0,22,23
 50 488 50 488 58.5 510.5 c 128,-1,24
 67 533 67 533 81 551 c 1,25,-1
 0 551 l 1,26,-1
 0 622 l 1,27,-1
 574 622 l 1,28,29
 561 660 561 660 537 694.5 c 128,-1,30
 513 729 513 729 465 752.5 c 128,-1,31
 417 776 417 776 331 781 c 1,32,-1
 312 848 l 1,33,34
 400 848 400 848 461 827.5 c 128,-1,35
 522 807 522 807 561.5 773 c 128,-1,36
 601 739 601 739 623.5 699.5 c 128,-1,37
 646 660 646 660 656 622 c 1,38,-1
 745 622 l 1,39,-1
 745 551 l 1,40,-1
 650 551 l 1,41,42
 637 502 637 502 630 453 c 128,-1,43
 623 404 623 404 623 355 c 0,44,45
 623 276 623 276 630.5 222 c 128,-1,46
 638 168 638 168 651 131 c 128,-1,47
 664 94 664 94 682 65 c 1,48,49
 694 56 694 56 706 42.5 c 128,-1,50
 718 29 718 29 731 9 c 1,51,-1
 657 -21 l 1,0,1
542 352 m 0,52,53
 542 401 542 401 549 451 c 128,-1,54
 556 501 556 501 568 551 c 1,55,-1
 299 551 l 1,56,57
 316 529 316 529 323 502 c 128,-1,58
 330 475 330 475 330 449 c 0,59,60
 330 415 330 415 320.5 382 c 128,-1,61
 311 349 311 349 299 316.5 c 128,-1,62
 287 284 287 284 277.5 250 c 128,-1,63
 268 216 268 216 268 179 c 0,64,65
 268 121 268 121 298 91 c 128,-1,66
 328 61 328 61 397 61 c 0,67,68
 436 61 436 61 466.5 68 c 128,-1,69
 497 75 497 75 525 82 c 128,-1,70
 553 89 553 89 583 90 c 1,71,72
 542 183 542 183 542 352 c 0,52,53
189 392 m 0,73,74
 206 392 206 392 220.5 397.5 c 128,-1,75
 235 403 235 403 247 412 c 1,76,77
 249 423 249 423 250 436 c 128,-1,78
 251 449 251 449 251 462 c 0,79,80
 251 473 251 473 246 489.5 c 128,-1,81
 241 506 241 506 228 519.5 c 128,-1,82
 215 533 215 533 190 533 c 0,83,84
 161 533 161 533 140.5 512.5 c 128,-1,85
 120 492 120 492 120 461 c 0,86,87
 120 437 120 437 131.5 421.5 c 128,-1,88
 143 406 143 406 159.5 399 c 128,-1,89
 176 392 176 392 189 392 c 0,73,74
EndSplineSet
EndChar

StartChar: AU_iv
Encoding: 71181 71181 31
Width: 735
GlyphClass: 2
Flags: W
HStem: -10 71<307.915 528.617> 20 70<476.987 583> 322 70<138.417 222.75> 533 89<141.143 235.014> 551 71<0 81 299 568 654 745> 725 70<354.825 534.898>
VStem: 50 70<410.392 512.576> 187 81<100.636 290.06> 251 79<407.013 518.307> 542 81<151.24 530.891>
AnchorPoint: "+BBEENQQ3BEsEPARPBD0EPQQ+BDUA--6" 427 900 basechar 0
AnchorPoint: "+BBEENQQ3BEsEPARPBD0EPQQ+BDUA--5" 718 758 basechar 0
LayerCount: 2
Fore
SplineSet
657 -21 m 1,0,1
 642 -5 642 -5 633.5 3.5 c 128,-1,2
 625 12 625 12 615 16 c 128,-1,3
 605 20 605 20 587 20 c 0,4,5
 558 20 558 20 532 12.5 c 128,-1,6
 506 5 506 5 474 -2.5 c 128,-1,7
 442 -10 442 -10 394 -10 c 0,8,9
 340 -10 340 -10 292.5 8 c 128,-1,10
 245 26 245 26 216 67 c 128,-1,11
 187 108 187 108 187 178 c 0,12,13
 187 222 187 222 197 256.5 c 128,-1,14
 207 291 207 291 223 327 c 1,15,16
 215 324 215 324 206 323 c 128,-1,17
 197 322 197 322 187 322 c 0,18,19
 149 322 149 322 117.5 341 c 128,-1,20
 86 360 86 360 68 392 c 128,-1,21
 50 424 50 424 50 462 c 0,22,23
 50 488 50 488 58.5 510.5 c 128,-1,24
 67 533 67 533 81 551 c 1,25,-1
 0 551 l 1,26,-1
 0 622 l 1,27,-1
 575 622 l 1,28,-1
 553 749 l 1,29,30
 530 739 530 739 500.5 732 c 128,-1,31
 471 725 471 725 440 725 c 0,32,33
 404 725 404 725 355 738.5 c 128,-1,34
 306 752 306 752 262 799 c 1,35,-1
 311 847 l 1,36,37
 336 825 336 825 368.5 810 c 128,-1,38
 401 795 401 795 435 795 c 0,39,40
 484 795 484 795 517.5 809 c 128,-1,41
 551 823 551 823 567 836 c 1,42,-1
 616 819 l 1,43,-1
 654 622 l 1,44,-1
 745 622 l 1,45,-1
 745 551 l 1,46,-1
 650 551 l 1,47,48
 637 502 637 502 630 453 c 128,-1,49
 623 404 623 404 623 355 c 0,50,51
 623 276 623 276 630.5 222 c 128,-1,52
 638 168 638 168 651 131 c 128,-1,53
 664 94 664 94 682 65 c 1,54,55
 694 56 694 56 706 42.5 c 128,-1,56
 718 29 718 29 731 9 c 1,57,-1
 657 -21 l 1,0,1
542 352 m 0,58,59
 542 401 542 401 549 451 c 128,-1,60
 556 501 556 501 568 551 c 1,61,-1
 299 551 l 1,62,63
 316 529 316 529 323 502 c 128,-1,64
 330 475 330 475 330 449 c 0,65,66
 330 415 330 415 320.5 382 c 128,-1,67
 311 349 311 349 299 316.5 c 128,-1,68
 287 284 287 284 277.5 250 c 128,-1,69
 268 216 268 216 268 179 c 0,70,71
 268 121 268 121 298 91 c 128,-1,72
 328 61 328 61 397 61 c 0,73,74
 436 61 436 61 466.5 68 c 128,-1,75
 497 75 497 75 525 82 c 128,-1,76
 553 89 553 89 583 90 c 1,77,78
 542 183 542 183 542 352 c 0,58,59
189 392 m 0,79,80
 206 392 206 392 220.5 397.5 c 128,-1,81
 235 403 235 403 247 412 c 1,82,83
 249 423 249 423 250 436 c 128,-1,84
 251 449 251 449 251 462 c 0,85,86
 251 473 251 473 246 489.5 c 128,-1,87
 241 506 241 506 228 519.5 c 128,-1,88
 215 533 215 533 190 533 c 0,89,90
 161 533 161 533 140.5 512.5 c 128,-1,91
 120 492 120 492 120 461 c 0,92,93
 120 437 120 437 131.5 421.5 c 128,-1,94
 143 406 143 406 159.5 399 c 128,-1,95
 176 392 176 392 189 392 c 0,79,80
EndSplineSet
EndChar

StartChar: Ka
Encoding: 71182 71182 32
Width: 655
GlyphClass: 2
Flags: W
HStem: -10 70<505.789 558.184> 0 21G<88 173.5> 178 70<285.256 411> 551 71<0 101 177.899 474 548.808 665>
VStem: 40 80<302.759 481.894> 411 80<82.1823 167> 474 82<484.017 551> 560 75<60.397 138.084>
AnchorPoint: "+BBEENQQ3BEsEPARPBD0EPQQ+BDUA--6" 327 718 basechar 0
AnchorPoint: "+BBEENQQ3BEsEPARPBD0EPQQ+BDUA--5" 529 718 basechar 0
AnchorPoint: "+BBEENQQ3BEsEPARPBD0EPQQ+BDUA--4" 556 622 basechar 0
AnchorPoint: "+BBEENQQ3BEsEPARPBD0EPQQ+BDUA--3" 532 -47 basechar 0
AnchorPoint: "+BBEENQQ3BEsEPARPBD0EPQQ+BDUA--2" 447 90 basechar 0
AnchorPoint: "+BBEENQQ3BEsEPARPBD0EPQQ+BDUA--1" 339 -80 basechar 0
AnchorPoint: "+BBEENQQ3BEsEPARPBD0EPQQ+BDUA--0" 491 -80 basechar 0
LayerCount: 2
Fore
SplineSet
0 622 m 1,0,-1
 665 622 l 1,1,-1
 665 551 l 1,2,-1
 556 551 l 1,3,4
 522 454 522 454 508.5 374.5 c 128,-1,5
 495 295 495 295 492 239 c 1,6,7
 540 227 540 227 571.5 201.5 c 128,-1,8
 603 176 603 176 619 145 c 128,-1,9
 635 114 635 114 635 85 c 0,10,11
 635 72 635 72 627 49 c 128,-1,12
 619 26 619 26 597.5 8 c 128,-1,13
 576 -10 576 -10 533 -10 c 0,14,15
 475 -10 475 -10 444 38.5 c 128,-1,16
 413 87 413 87 411 178 c 1,17,18
 352 177 352 177 302 162 c 128,-1,19
 252 147 252 147 217 109 c 128,-1,20
 182 71 182 71 165 0 c 1,21,-1
 88 0 l 1,22,23
 89 7 89 7 93 16 c 0,24,25
 101 46 101 46 105.5 77.5 c 128,-1,26
 110 109 110 109 110 131 c 0,27,28
 110 166 110 166 99.5 196.5 c 128,-1,29
 89 227 89 227 75 257.5 c 128,-1,30
 61 288 61 288 50.5 321.5 c 128,-1,31
 40 355 40 355 40 395 c 0,32,33
 40 438 40 438 54 473 c 128,-1,34
 68 508 68 508 101 551 c 1,35,-1
 0 551 l 1,36,-1
 0 622 l 1,0,-1
413 248 m 1,37,38
 417 292 417 292 425.5 344 c 128,-1,39
 434 396 434 396 446.5 449.5 c 128,-1,40
 459 503 459 503 474 551 c 1,41,-1
 199 551 l 1,42,43
 150 503 150 503 135 468.5 c 128,-1,44
 120 434 120 434 120 402 c 0,45,46
 120 360 120 360 133.5 324 c 128,-1,47
 147 288 147 288 163 252 c 128,-1,48
 179 216 179 216 186 175 c 1,49,50
 228 213 228 213 285 230 c 128,-1,51
 342 247 342 247 413 248 c 1,37,38
560 89 m 0,52,53
 560 106 560 106 544.5 130 c 128,-1,54
 529 154 529 154 491 167 c 1,55,56
 493 103 493 103 505.5 81.5 c 128,-1,57
 518 60 518 60 534 60 c 0,58,59
 548 60 548 60 554 71.5 c 128,-1,60
 560 83 560 83 560 89 c 0,52,53
EndSplineSet
EndChar

StartChar: Kha
Encoding: 71183 71183 33
Width: 694
GlyphClass: 2
Flags: W
HStem: -10 74<275.865 450.453> 551 71<0 157 290 516.804 590 704> 728 72<113.181 208.089>
VStem: 55 80<340.942 435.892> 146 80<111.141 244.166> 218 80<622.625 715.087> 554 80<180.868 477.792>
AnchorPoint: "+BBEENQQ3BEsEPARPBD0EPQQ+BDUA--6" 498 718 basechar 0
AnchorPoint: "+BBEENQQ3BEsEPARPBD0EPQQ+BDUA--5" 534 718 basechar 0
AnchorPoint: "+BBEENQQ3BEsEPARPBD0EPQQ+BDUA--4" 646 622 basechar 0
AnchorPoint: "+BBEENQQ3BEsEPARPBD0EPQQ+BDUA--3" 357 -70 basechar 0
AnchorPoint: "+BBEENQQ3BEsEPARPBD0EPQQ+BDUA--2" 421 61 basechar 0
AnchorPoint: "+BBEENQQ3BEsEPARPBD0EPQQ+BDUA--1" 357 -80 basechar 0
AnchorPoint: "+BBEENQQ3BEsEPARPBD0EPQQ+BDUA--0" 357 -80 basechar 0
LayerCount: 2
Fore
SplineSet
704 551 m 1,0,-1
 590 551 l 1,1,2
 607 508 607 508 620.5 446 c 128,-1,3
 634 384 634 384 634 310 c 0,4,5
 634 252 634 252 618 195 c 128,-1,6
 602 138 602 138 569 91.5 c 128,-1,7
 536 45 536 45 483.5 17.5 c 128,-1,8
 431 -10 431 -10 357 -10 c 0,9,10
 255 -10 255 -10 200.5 41.5 c 128,-1,11
 146 93 146 93 146 171 c 0,12,13
 146 222 146 222 171 262 c 1,14,15
 126 266 126 266 101 284 c 128,-1,16
 76 302 76 302 65.5 327.5 c 128,-1,17
 55 353 55 353 55 376 c 0,18,19
 55 410 55 410 71 439.5 c 128,-1,20
 87 469 87 469 110.5 496.5 c 128,-1,21
 134 524 134 524 157 551 c 1,22,-1
 0 551 l 1,23,-1
 0 622 l 1,24,-1
 206 622 l 1,25,26
 211 635 211 635 214.5 648 c 128,-1,27
 218 661 218 661 218 675 c 0,28,29
 218 692 218 692 208 710 c 128,-1,30
 198 728 198 728 164 728 c 0,31,32
 145 728 145 728 127.5 717 c 128,-1,33
 110 706 110 706 101 692 c 1,34,-1
 40 732 l 1,35,36
 69 773 69 773 100.5 786.5 c 128,-1,37
 132 800 132 800 166 800 c 0,38,39
 234 800 234 800 266 764 c 128,-1,40
 298 728 298 728 298 679 c 0,41,42
 298 649 298 649 290 622 c 1,43,-1
 704 622 l 1,44,-1
 704 551 l 1,0,-1
304 293 m 1,45,46
 268 271 268 271 247 243.5 c 128,-1,47
 226 216 226 216 226 172 c 0,48,49
 226 148 226 148 239.5 123 c 128,-1,50
 253 98 253 98 283 81 c 128,-1,51
 313 64 313 64 361 64 c 0,52,53
 412 64 412 64 456 89 c 128,-1,54
 500 114 500 114 527 168.5 c 128,-1,55
 554 223 554 223 554 311 c 0,56,57
 554 383 554 383 540 446 c 128,-1,58
 526 509 526 509 509 551 c 1,59,-1
 255 551 l 1,60,61
 231 517 231 517 203 488.5 c 128,-1,62
 175 460 175 460 155 433.5 c 128,-1,63
 135 407 135 407 135 376 c 0,64,65
 135 354 135 354 149.5 343 c 128,-1,66
 164 332 164 332 189 332 c 0,67,68
 213 332 213 332 231.5 337.5 c 128,-1,69
 250 343 250 343 274 355 c 1,70,-1
 304 293 l 1,45,46
EndSplineSet
Substitution2: "Single Substitution lookup 14 subtable" Kha.alt
EndChar

StartChar: Ga
Encoding: 71184 71184 34
Width: 662
GlyphClass: 2
Flags: W
HStem: 0 21G<502 582> 45 71<133.763 220.461> 233 71<136.577 237.46> 551 71<0 194.795 274 502 582 672>
VStem: 40 80<131.77 218.867> 187 87<486.203 551> 502 80<0 551>
AnchorPoint: "+BBEENQQ3BEsEPARPBD0EPQQ+BDUA--5" 537 718 basechar 0
AnchorPoint: "+BBEENQQ3BEsEPARPBD0EPQQ+BDUA--4" 582 622 basechar 0
AnchorPoint: "+BBEENQQ3BEsEPARPBD0EPQQ+BDUA--2" 503 160 basechar 0
AnchorPoint: "+BBEENQQ3BEsEPARPBD0EPQQ+BDUA--0" 502 0 basechar 0
LayerCount: 2
Fore
SplineSet
582 0 m 1,0,-1
 502 0 l 1,1,-1
 502 551 l 1,2,-1
 274 551 l 1,3,4
 295 490 295 490 306 428 c 128,-1,5
 317 366 317 366 321 315.5 c 128,-1,6
 325 265 325 265 325 236 c 0,7,8
 325 191 325 191 311 147 c 128,-1,9
 297 103 297 103 265 74 c 128,-1,10
 233 45 233 45 177 45 c 0,11,12
 142 45 142 45 110.5 59.5 c 128,-1,13
 79 74 79 74 59.5 103 c 128,-1,14
 40 132 40 132 40 176 c 0,15,16
 40 232 40 232 77.5 268 c 128,-1,17
 115 304 115 304 179 304 c 0,18,19
 196 304 196 304 212 300 c 128,-1,20
 228 296 228 296 242 289 c 1,21,22
 238 343 238 343 225.5 412.5 c 128,-1,23
 213 482 213 482 187 551 c 1,24,-1
 0 551 l 1,25,-1
 0 622 l 1,26,-1
 672 622 l 1,27,-1
 672 551 l 1,28,-1
 582 551 l 1,29,-1
 582 0 l 1,0,-1
177 116 m 0,30,31
 200 116 200 116 214 130 c 128,-1,32
 228 144 228 144 235 165 c 128,-1,33
 242 186 242 186 244 206 c 1,34,35
 231 217 231 217 215.5 225 c 128,-1,36
 200 233 200 233 180 233 c 0,37,38
 159 233 159 233 139.5 218.5 c 128,-1,39
 120 204 120 204 120 176 c 0,40,41
 120 154 120 154 134.5 135 c 128,-1,42
 149 116 149 116 177 116 c 0,30,31
EndSplineSet
EndChar

StartChar: Gha
Encoding: 71185 71185 35
Width: 636
GlyphClass: 2
Flags: W
HStem: 0 21G<476 556> 89 71<194.245 370.252> 551 71<0 75 150.75 476 556 646>
VStem: 40 80<412.22 517.776> 91 81<182.138 296.247> 476 80<0 161 230.7 551>
AnchorPoint: "+BBEENQQ3BEsEPARPBD0EPQQ+BDUA--5" 511 718 basechar 0
AnchorPoint: "+BBEENQQ3BEsEPARPBD0EPQQ+BDUA--4" 556 622 basechar 0
AnchorPoint: "+BBEENQQ3BEsEPARPBD0EPQQ+BDUA--2" 476 120 basechar 0
AnchorPoint: "+BBEENQQ3BEsEPARPBD0EPQQ+BDUA--0" 476 0 basechar 0
LayerCount: 2
Fore
SplineSet
556 0 m 1,0,-1
 476 0 l 1,1,-1
 476 161 l 1,2,3
 435 128 435 128 380 108.5 c 128,-1,4
 325 89 325 89 269 89 c 0,5,6
 222 89 222 89 181.5 103.5 c 128,-1,7
 141 118 141 118 116 149.5 c 128,-1,8
 91 181 91 181 91 232 c 0,9,10
 91 294 91 294 127 333 c 1,11,12
 84 345 84 345 62 374.5 c 128,-1,13
 40 404 40 404 40 444 c 0,14,15
 40 468 40 468 48.5 495.5 c 128,-1,16
 57 523 57 523 75 551 c 1,17,-1
 0 551 l 1,18,-1
 0 622 l 1,19,-1
 646 622 l 1,20,-1
 646 551 l 1,21,-1
 556 551 l 1,22,-1
 556 0 l 1,0,-1
276 351 m 1,23,-1
 261 345 l 2,24,25
 215 326 215 326 193.5 296.5 c 128,-1,26
 172 267 172 267 172 238 c 0,27,28
 172 196 172 196 199 178 c 128,-1,29
 226 160 226 160 266 160 c 0,30,31
 301 160 301 160 340.5 171.5 c 128,-1,32
 380 183 380 183 416 204 c 128,-1,33
 452 225 452 225 476 251 c 1,34,-1
 476 551 l 1,35,-1
 173 551 l 1,36,37
 148 531 148 531 134 505 c 128,-1,38
 120 479 120 479 120 456 c 0,39,40
 120 431 120 431 136.5 414 c 128,-1,41
 153 397 153 397 190 397 c 0,42,43
 207 397 207 397 222 402 c 128,-1,44
 237 407 237 407 253 414 c 1,45,-1
 276 351 l 1,23,-1
EndSplineSet
EndChar

StartChar: Nga
Encoding: 71186 71186 36
Width: 660
GlyphClass: 2
Flags: W
HStem: -10 74<255.762 441.76> 249 71<278.048 396.529> 259 71<314.188 467.875> 372 110<497.986 570.014> 551 71<0 315 409.837 670>
VStem: 180 80<329.142 423.401> 482 104<382.893 465.498> 490 80<109.568 236.364>
AnchorPoint: "+BBEENQQ3BEsEPARPBD0EPQQ+BDUA--5" 462 718 basechar 0
AnchorPoint: "+BBEENQQ3BEsEPARPBD0EPQQ+BDUA--4" 556 622 basechar 0
AnchorPoint: "+BBEENQQ3BEsEPARPBD0EPQQ+BDUA--3" 358 -70 basechar 0
AnchorPoint: "+BBEENQQ3BEsEPARPBD0EPQQ+BDUA--2" 390 54 basechar 0
AnchorPoint: "+BBEENQQ3BEsEPARPBD0EPQQ+BDUA--1" 355 -80 basechar 0
AnchorPoint: "+BBEENQQ3BEsEPARPBD0EPQQ+BDUA--0" 319 -80 basechar 0
LayerCount: 2
Fore
SplineSet
670 551 m 1,0,-1
 453 551 l 1,1,2
 355 507 355 507 307.5 455.5 c 128,-1,3
 260 404 260 404 260 365 c 0,4,5
 260 340 260 340 277.5 330 c 128,-1,6
 295 320 295 320 319 320 c 0,7,8
 336 320 336 320 361 325 c 128,-1,9
 386 330 386 330 411 330 c 0,10,11
 491 330 491 330 530.5 288 c 128,-1,12
 570 246 570 246 570 170 c 0,13,14
 570 126 570 126 546 84.5 c 128,-1,15
 522 43 522 43 475 16.5 c 128,-1,16
 428 -10 428 -10 358 -10 c 0,17,18
 257 -10 257 -10 174.5 47 c 128,-1,19
 92 104 92 104 24 243 c 1,20,-1
 93 277 l 1,21,22
 148 159 148 159 212 111.5 c 128,-1,23
 276 64 276 64 355 64 c 0,24,25
 402 64 402 64 432 80 c 128,-1,26
 462 96 462 96 476 121 c 128,-1,27
 490 146 490 146 490 173 c 0,28,29
 490 195 490 195 483 214.5 c 128,-1,30
 476 234 476 234 456.5 246.5 c 128,-1,31
 437 259 437 259 397 259 c 0,32,33
 382 259 382 259 358.5 254 c 128,-1,34
 335 249 335 249 308 249 c 0,35,36
 278 249 278 249 248.5 260 c 128,-1,37
 219 271 219 271 199.5 296.5 c 128,-1,38
 180 322 180 322 180 363 c 0,39,40
 180 418 180 418 217 464.5 c 128,-1,41
 254 511 254 511 315 551 c 1,42,-1
 0 551 l 1,43,-1
 0 622 l 1,44,-1
 670 622 l 1,45,-1
 670 551 l 1,0,-1
534 482 m 256,46,47
 555 482 555 482 570.5 466 c 128,-1,48
 586 450 586 450 586 427 c 0,49,50
 586 405 586 405 570.5 388.5 c 128,-1,51
 555 372 555 372 534 372 c 256,52,53
 513 372 513 372 497.5 388.5 c 128,-1,54
 482 405 482 405 482 427 c 0,55,56
 482 450 482 450 497.5 466 c 128,-1,57
 513 482 513 482 534 482 c 256,46,47
EndSplineSet
EndChar

StartChar: Ca
Encoding: 71187 71187 37
Width: 645
GlyphClass: 2
Flags: W
HStem: -10 74<308.688 448.622> 159 72<31.3435 133.084> 295 69<369.187 444.302> 551 71<0 481.258 556 655>
VStem: 493 80<109.675 248.152> 504 81<402.354 528.086>
AnchorPoint: "+BBEENQQ3BEsEPARPBD0EPQQ+BDUA--5" 493 718 basechar 0
AnchorPoint: "+BBEENQQ3BEsEPARPBD0EPQQ+BDUA--4" 520 622 basechar 0
AnchorPoint: "+BBEENQQ3BEsEPARPBD0EPQQ+BDUA--3" 382 -70 basechar 0
AnchorPoint: "+BBEENQQ3BEsEPARPBD0EPQQ+BDUA--2" 395 54 basechar 0
AnchorPoint: "+BBEENQQ3BEsEPARPBD0EPQQ+BDUA--1" 382 -80 basechar 0
AnchorPoint: "+BBEENQQ3BEsEPARPBD0EPQQ+BDUA--0" 379 -80 basechar 0
LayerCount: 2
Fore
SplineSet
655 551 m 1,0,-1
 556 551 l 1,1,2
 585 511 585 511 585 464 c 0,3,4
 585 414 585 414 558.5 381 c 128,-1,5
 532 348 532 348 492 328 c 1,6,7
 534 300 534 300 553.5 261.5 c 128,-1,8
 573 223 573 223 573 180 c 0,9,10
 573 126 573 126 550.5 83 c 128,-1,11
 528 40 528 40 485.5 15 c 128,-1,12
 443 -10 443 -10 383 -10 c 0,13,14
 333 -10 333 -10 296 7 c 128,-1,15
 259 24 259 24 230 49 c 128,-1,16
 201 74 201 74 176 99.5 c 128,-1,17
 151 125 151 125 126.5 142 c 128,-1,18
 102 159 102 159 72 159 c 0,19,20
 62 159 62 159 52 156.5 c 128,-1,21
 42 154 42 154 31 150 c 1,22,-1
 10 218 l 1,23,24
 24 224 24 224 38 227.5 c 128,-1,25
 52 231 52 231 72 231 c 0,26,27
 115 231 115 231 148 214 c 128,-1,28
 181 197 181 197 208 172.5 c 128,-1,29
 235 148 235 148 261 123 c 128,-1,30
 287 98 287 98 316.5 81 c 128,-1,31
 346 64 346 64 385 64 c 0,32,33
 418 64 418 64 442.5 81 c 128,-1,34
 467 98 467 98 480 125 c 128,-1,35
 493 152 493 152 493 181 c 0,36,37
 493 209 493 209 480 234.5 c 128,-1,38
 467 260 467 260 439 277 c 128,-1,39
 411 294 411 294 364 295 c 1,40,-1
 369 365 l 1,41,42
 375 364 375 364 377.5 364 c 128,-1,43
 380 364 380 364 382 364 c 0,44,45
 446 364 446 364 475 394 c 128,-1,46
 504 424 504 424 504 463 c 0,47,48
 504 518 504 518 458 551 c 1,49,-1
 0 551 l 1,50,-1
 0 622 l 1,51,-1
 655 622 l 1,52,-1
 655 551 l 1,0,-1
EndSplineSet
Substitution2: "Single Substitution lookup 14 subtable" Ca.alt
EndChar

StartChar: Cha
Encoding: 71188 71188 38
Width: 696
GlyphClass: 2
Flags: W
HStem: -10 74<249.534 444.563> 345 68<431.676 533.509> 532 90<429.926 509.591> 551 71<0 85 157.396 364 577 706>
VStem: 40 80<388.365 507.189> 108 80<119.076 260.053> 338 78<427.524 517.081> 536 80<170.266 359 421.603 510.589>
AnchorPoint: "+BBEENQQ3BEsEPARPBD0EPQQ+BDUA--6" 348 718 basechar 0
AnchorPoint: "+BBEENQQ3BEsEPARPBD0EPQQ+BDUA--5" 532 718 basechar 0
AnchorPoint: "+BBEENQQ3BEsEPARPBD0EPQQ+BDUA--4" 546 622 basechar 0
AnchorPoint: "+BBEENQQ3BEsEPARPBD0EPQQ+BDUA--3" 353 -70 basechar 0
AnchorPoint: "+BBEENQQ3BEsEPARPBD0EPQQ+BDUA--2" 383 54 basechar 0
AnchorPoint: "+BBEENQQ3BEsEPARPBD0EPQQ+BDUA--1" 353 -80 basechar 0
AnchorPoint: "+BBEENQQ3BEsEPARPBD0EPQQ+BDUA--0" 354 -80 basechar 0
LayerCount: 2
Fore
SplineSet
706 551 m 1,0,-1
 577 551 l 1,1,2
 597 523 597 523 606.5 486.5 c 128,-1,3
 616 450 616 450 616 412 c 2,4,-1
 616 302 l 2,5,6
 616 158 616 158 549.5 74 c 128,-1,7
 483 -10 483 -10 354 -10 c 0,8,9
 264 -10 264 -10 210 17.5 c 128,-1,10
 156 45 156 45 132 89.5 c 128,-1,11
 108 134 108 134 108 183 c 0,12,13
 108 215 108 215 117.5 246.5 c 128,-1,14
 127 278 127 278 147 306 c 1,15,16
 103 314 103 314 71.5 343.5 c 128,-1,17
 40 373 40 373 40 431 c 0,18,19
 40 460 40 460 50 491.5 c 128,-1,20
 60 523 60 523 85 551 c 1,21,-1
 0 551 l 1,22,-1
 0 622 l 1,23,-1
 706 622 l 1,24,-1
 706 551 l 1,0,-1
281 317 m 1,25,26
 231 296 231 296 209.5 260 c 128,-1,27
 188 224 188 224 188 185 c 0,28,29
 188 154 188 154 204.5 126.5 c 128,-1,30
 221 99 221 99 257.5 81.5 c 128,-1,31
 294 64 294 64 353 64 c 0,32,33
 442 64 442 64 489 124 c 128,-1,34
 536 184 536 184 536 308 c 2,35,-1
 536 359 l 1,36,37
 508 345 508 345 474 345 c 0,38,39
 410 345 410 345 374 379.5 c 128,-1,40
 338 414 338 414 338 470 c 0,41,42
 338 495 338 495 345 515 c 128,-1,43
 352 535 352 535 364 551 c 1,44,-1
 178 551 l 1,45,46
 150 526 150 526 135 495 c 128,-1,47
 120 464 120 464 120 436 c 256,48,49
 120 408 120 408 139.5 389 c 128,-1,50
 159 370 159 370 202 370 c 0,51,52
 216 370 216 370 229 374 c 128,-1,53
 242 378 242 378 255 383 c 1,54,-1
 281 317 l 1,25,26
475 413 m 0,55,56
 494 413 494 413 508.5 419 c 128,-1,57
 523 425 523 425 534 435 c 1,58,59
 533 457 533 457 528 479 c 128,-1,60
 523 501 523 501 510 516.5 c 128,-1,61
 497 532 497 532 472 532 c 0,62,63
 443 532 443 532 429.5 513 c 128,-1,64
 416 494 416 494 416 471 c 0,65,66
 416 443 416 443 434.5 428 c 128,-1,67
 453 413 453 413 475 413 c 0,55,56
EndSplineSet
EndChar

StartChar: Ja
Encoding: 71189 71189 39
Width: 618
GlyphClass: 2
Flags: W
HStem: -10 72<320.577 415.789> 323 69<133.164 222.157> 501 121<132.708 220.55> 551 71<0 104 244 512 605 658>
VStem: 50 73<403.485 489.91> 227 78<77.3433 192.838> 428 78<75.3132 187.25>
AnchorPoint: "+BBEENQQ3BEsEPARPBD0EPQQ+BDUA--6" 375 718 basechar 0
AnchorPoint: "+BBEENQQ3BEsEPARPBD0EPQQ+BDUA--5" 512 718 basechar 0
AnchorPoint: "+BBEENQQ3BEsEPARPBD0EPQQ+BDUA--4" 585 622 basechar 0
AnchorPoint: "+BBEENQQ3BEsEPARPBD0EPQQ+BDUA--3" 365 -70 basechar 0
AnchorPoint: "+BBEENQQ3BEsEPARPBD0EPQQ+BDUA--2" 383 52 basechar 0
AnchorPoint: "+BBEENQQ3BEsEPARPBD0EPQQ+BDUA--1" 365 -80 basechar 0
AnchorPoint: "+BBEENQQ3BEsEPARPBD0EPQQ+BDUA--0" 363 -80 basechar 0
LayerCount: 2
Fore
SplineSet
658 551 m 1,0,-1
 605 551 l 1,1,-1
 531 463 l 2,2,3
 496 422 496 422 466.5 386.5 c 128,-1,4
 437 351 437 351 413 320 c 1,5,-1
 437 282 l 2,6,7
 469 230 469 230 487.5 185.5 c 128,-1,8
 506 141 506 141 506 120 c 0,9,10
 506 84 506 84 492.5 54.5 c 128,-1,11
 479 25 479 25 448.5 7.5 c 128,-1,12
 418 -10 418 -10 365 -10 c 0,13,14
 315 -10 315 -10 284.5 8.5 c 128,-1,15
 254 27 254 27 240.5 55.5 c 128,-1,16
 227 84 227 84 227 113 c 0,17,18
 227 160 227 160 254 210.5 c 128,-1,19
 281 261 281 261 328 322 c 1,20,-1
 287 393 l 1,21,22
 277 371 277 371 247.5 347 c 128,-1,23
 218 323 218 323 174 323 c 0,24,25
 125 323 125 323 87.5 356 c 128,-1,26
 50 389 50 389 50 447 c 0,27,28
 50 481 50 481 65 508 c 128,-1,29
 80 535 80 535 104 551 c 1,30,-1
 0 551 l 1,31,-1
 0 622 l 1,32,-1
 658 622 l 1,33,-1
 658 551 l 1,0,-1
244 551 m 1,34,35
 284 526 284 526 315 480 c 128,-1,36
 346 434 346 434 375 382 c 1,37,-1
 512 551 l 1,38,-1
 244 551 l 1,34,35
173 501 m 0,39,40
 159 501 159 501 141 487.5 c 128,-1,41
 123 474 123 474 123 446 c 0,42,43
 123 426 123 426 133 414 c 128,-1,44
 143 402 143 402 156 397 c 128,-1,45
 169 392 169 392 177 392 c 0,46,47
 209 392 209 392 222.5 413.5 c 128,-1,48
 236 435 236 435 240 460 c 1,49,50
 205 501 205 501 173 501 c 0,39,40
366 257 m 1,51,52
 305 169 305 169 305 123 c 0,53,54
 305 96 305 96 322 79 c 128,-1,55
 339 62 339 62 363 62 c 0,56,57
 401 62 401 62 414.5 78.5 c 128,-1,58
 428 95 428 95 428 123 c 0,59,60
 428 159 428 159 366 257 c 1,51,52
EndSplineSet
PairPos2: "'kern' Horizontal Kerning in Modi lookup 0 subtable" II_dv dx=0 dy=0 dh=0 dv=0 dx=70 dy=0 dh=70 dv=0
PairPos2: "'kern' Horizontal Kerning in Modi lookup 0 subtable" I_dv dx=0 dy=0 dh=0 dv=0 dx=70 dy=0 dh=70 dv=0
EndChar

StartChar: Jha
Encoding: 71190 71190 40
Width: 730
GlyphClass: 2
Flags: W
HStem: -10 70<87.6805 200.708 580.789 633.184> 125 70<90.0621 179.572> 174 70.5<385.75 486> 278 70<149.403 256.628> 287 70<188.438 294.651> 551 71<0 161 251.837 549 623.808 740>
VStem: 5 76<67.2119 118.434> 60 80<355.245 446.918> 486 80<82.1823 167> 549 82<484.017 551> 635 75<60.397 138.084>
AnchorPoint: "+BBEENQQ3BEsEPARPBD0EPQQ+BDUA--5" 595 718 basechar 0
AnchorPoint: "+BBEENQQ3BEsEPARPBD0EPQQ+BDUA--4" 631 622 basechar 0
AnchorPoint: "+BBEENQQ3BEsEPARPBD0EPQQ+BDUA--3" 608 -47 basechar 0
AnchorPoint: "+BBEENQQ3BEsEPARPBD0EPQQ+BDUA--2" 522 90 basechar 0
AnchorPoint: "+BBEENQQ3BEsEPARPBD0EPQQ+BDUA--1" 375 -80 basechar 0
AnchorPoint: "+BBEENQQ3BEsEPARPBD0EPQQ+BDUA--0" 566 -80 basechar 0
LayerCount: 2
Fore
SplineSet
0 622 m 1,0,-1
 740 622 l 1,1,-1
 740 551 l 1,2,-1
 631 551 l 1,3,4
 597 454 597 454 583.5 374.5 c 128,-1,5
 570 295 570 295 567 239 c 1,6,7
 615 227 615 227 646.5 201.5 c 128,-1,8
 678 176 678 176 694 145 c 128,-1,9
 710 114 710 114 710 85 c 0,10,11
 710 72 710 72 702 49 c 128,-1,12
 694 26 694 26 672.5 8 c 128,-1,13
 651 -10 651 -10 608 -10 c 0,14,15
 550 -10 550 -10 519 38.5 c 128,-1,16
 488 87 488 87 486 178 c 1,17,18
 458 177 458 177 430.5 174 c 128,-1,19
 403 171 403 171 378 163 c 1,20,21
 362 118 362 118 323 78.5 c 128,-1,22
 284 39 284 39 231 14.5 c 128,-1,23
 178 -10 178 -10 120 -10 c 0,24,25
 91 -10 91 -10 64.5 2 c 128,-1,26
 38 14 38 14 21.5 36 c 128,-1,27
 5 58 5 58 5 88 c 0,28,29
 5 122 5 122 18 143 c 128,-1,30
 31 164 31 164 50.5 175.5 c 128,-1,31
 70 187 70 187 90 191 c 128,-1,32
 110 195 110 195 124 195 c 0,33,34
 168 195 168 195 201 176.5 c 128,-1,35
 234 158 234 158 262 129 c 1,36,37
 282 150 282 150 294 173 c 128,-1,38
 306 196 306 196 306 216 c 0,39,40
 306 245 306 245 295 266 c 128,-1,41
 284 287 284 287 253 287 c 0,42,43
 225 287 225 287 208.5 282.5 c 128,-1,44
 192 278 192 278 169 278 c 0,45,46
 145 278 145 278 119.5 289.5 c 128,-1,47
 94 301 94 301 77 325 c 128,-1,48
 60 349 60 349 60 386 c 0,49,50
 60 433 60 433 87.5 474.5 c 128,-1,51
 115 516 115 516 161 551 c 1,52,-1
 0 551 l 1,53,-1
 0 622 l 1,0,-1
262 357 m 0,54,55
 313 357 313 357 346 325.5 c 128,-1,56
 379 294 379 294 385 237 c 1,57,58
 409 242 409 242 435 244.5 c 128,-1,59
 461 247 461 247 488 248 c 1,60,61
 492 292 492 292 500.5 344 c 128,-1,62
 509 396 509 396 521.5 449.5 c 128,-1,63
 534 503 534 503 549 551 c 1,64,-1
 289 551 l 1,65,66
 214 512 214 512 177 467.5 c 128,-1,67
 140 423 140 423 140 388 c 0,68,69
 140 366 140 366 154.5 357 c 128,-1,70
 169 348 169 348 188 348 c 0,71,72
 202 348 202 348 218 352.5 c 128,-1,73
 234 357 234 357 262 357 c 0,54,55
635 89 m 0,74,75
 635 106 635 106 619.5 130 c 128,-1,76
 604 154 604 154 566 167 c 1,77,78
 568 103 568 103 580.5 81.5 c 128,-1,79
 593 60 593 60 609 60 c 0,80,81
 623 60 623 60 629 71.5 c 128,-1,82
 635 83 635 83 635 89 c 0,74,75
127 60 m 0,83,84
 146 60 146 60 165 66.5 c 128,-1,85
 184 73 184 73 203 83 c 1,86,87
 184 102 184 102 165 113.5 c 128,-1,88
 146 125 146 125 128 125 c 0,89,90
 112 125 112 125 96.5 117.5 c 128,-1,91
 81 110 81 110 81 90 c 0,92,93
 81 80 81 80 92 70 c 128,-1,94
 103 60 103 60 127 60 c 0,83,84
EndSplineSet
Substitution2: "Single Substitution lookup 14 subtable" Jha.alt
EndChar

StartChar: Nya
Encoding: 71191 71191 41
Width: 736
GlyphClass: 2
Flags: W
HStem: -10 70<582.084 639.184> 50 70<149.805 285.426> 317 70<141.471 291.572> 551 71<0 555 629.979 746>
VStem: 483 80<82.6982 170> 555 82<486.32 551> 641 75<60.397 135.382>
AnchorPoint: "+BBEENQQ3BEsEPARPBD0EPQQ+BDUA--5" 600 718 basechar 0
AnchorPoint: "+BBEENQQ3BEsEPARPBD0EPQQ+BDUA--4" 637 622 basechar 0
AnchorPoint: "+BBEENQQ3BEsEPARPBD0EPQQ+BDUA--3" 615 -47 basechar 0
AnchorPoint: "+BBEENQQ3BEsEPARPBD0EPQQ+BDUA--2" 519 90 basechar 0
AnchorPoint: "+BBEENQQ3BEsEPARPBD0EPQQ+BDUA--1" 391 -80 basechar 0
AnchorPoint: "+BBEENQQ3BEsEPARPBD0EPQQ+BDUA--0" 573 -80 basechar 0
LayerCount: 2
Fore
SplineSet
76 226 m 1,0,1
 102 181 102 181 138 150.5 c 128,-1,2
 174 120 174 120 220 120 c 0,3,4
 265 120 265 120 292.5 148.5 c 128,-1,5
 320 177 320 177 320 223 c 256,6,7
 320 269 320 269 295 293 c 128,-1,8
 270 317 270 317 229 317 c 0,9,10
 207 317 207 317 181.5 312.5 c 128,-1,11
 156 308 156 308 141 303 c 1,12,-1
 122 369 l 1,13,14
 143 375 143 375 170 381 c 128,-1,15
 197 387 197 387 231 387 c 0,16,17
 287 387 287 387 330.5 359.5 c 128,-1,18
 374 332 374 332 391 282 c 1,19,20
 415 281 415 281 439.5 277.5 c 128,-1,21
 464 274 464 274 489 269 c 1,22,23
 497 333 497 333 515 408.5 c 128,-1,24
 533 484 533 484 555 551 c 1,25,-1
 0 551 l 1,26,-1
 0 622 l 1,27,-1
 746 622 l 1,28,-1
 746 551 l 1,29,-1
 637 551 l 1,30,31
 604 458 604 458 587.5 380.5 c 128,-1,32
 571 303 571 303 566 247 c 1,33,34
 629 225 629 225 672.5 185 c 128,-1,35
 716 145 716 145 716 85 c 0,36,37
 716 72 716 72 708 49 c 128,-1,38
 700 26 700 26 678.5 8 c 128,-1,39
 657 -10 657 -10 614 -10 c 0,40,41
 550 -10 550 -10 516.5 43 c 128,-1,42
 483 96 483 96 483 196 c 1,43,44
 461 201 461 201 440.5 204 c 128,-1,45
 420 207 420 207 399 209 c 1,46,47
 395 153 395 153 366.5 118 c 128,-1,48
 338 83 338 83 298 66.5 c 128,-1,49
 258 50 258 50 218 50 c 0,50,51
 148 50 148 50 101 88 c 128,-1,52
 54 126 54 126 20 186 c 1,53,-1
 76 226 l 1,0,1
641 89 m 0,54,55
 641 115 641 115 619 135.5 c 128,-1,56
 597 156 597 156 563 170 c 1,57,58
 565 104 565 104 581.5 82 c 128,-1,59
 598 60 598 60 615 60 c 0,60,61
 629 60 629 60 635 71.5 c 128,-1,62
 641 83 641 83 641 89 c 0,54,55
EndSplineSet
Substitution2: "Single Substitution lookup 14 subtable" Nya.alt
EndChar

StartChar: Tta
Encoding: 71192 71192 42
Width: 554
GlyphClass: 2
Flags: W
HStem: -10 74<195.253 349.777> 341 74<200.301 281> 551 71<0 373 450.58 564>
VStem: 60 80<122.069 279.496> 365 80<358.969 550.374> 414 80<131.643 336.833>
AnchorPoint: "+BBEENQQ3BEsEPARPBD0EPQQ+BDUA--5" 422 718 basechar 0
AnchorPoint: "+BBEENQQ3BEsEPARPBD0EPQQ+BDUA--4" 458 622 basechar 0
AnchorPoint: "+BBEENQQ3BEsEPARPBD0EPQQ+BDUA--3" 277 -70 basechar 0
AnchorPoint: "+BBEENQQ3BEsEPARPBD0EPQQ+BDUA--2" 322 57 basechar 0
AnchorPoint: "+BBEENQQ3BEsEPARPBD0EPQQ+BDUA--1" 273 -80 basechar 0
AnchorPoint: "+BBEENQQ3BEsEPARPBD0EPQQ+BDUA--0" 282 -80 basechar 0
LayerCount: 2
Fore
SplineSet
281 341 m 1,0,-1
 273 341 l 2,1,2
 234 341 234 341 204 322 c 128,-1,3
 174 303 174 303 157 272 c 128,-1,4
 140 241 140 241 140 203 c 0,5,6
 140 146 140 146 174 105 c 128,-1,7
 208 64 208 64 272 64 c 256,8,9
 336 64 336 64 375 107.5 c 128,-1,10
 414 151 414 151 414 224 c 0,11,12
 414 266 414 266 402 305 c 128,-1,13
 390 344 390 344 377.5 385 c 128,-1,14
 365 426 365 426 365 472 c 0,15,16
 365 489 365 489 366 510.5 c 128,-1,17
 367 532 367 532 373 551 c 1,18,-1
 0 551 l 1,19,-1
 0 622 l 1,20,-1
 564 622 l 1,21,-1
 564 551 l 1,22,-1
 458 551 l 1,23,24
 449 531 449 531 447 508 c 128,-1,25
 445 485 445 485 445 471 c 0,26,27
 445 431 445 431 457.5 390 c 128,-1,28
 470 349 470 349 482 306 c 128,-1,29
 494 263 494 263 494 215 c 0,30,31
 494 148 494 148 466.5 97 c 128,-1,32
 439 46 439 46 389.5 18 c 128,-1,33
 340 -10 340 -10 273 -10 c 0,34,35
 208 -10 208 -10 160 17 c 128,-1,36
 112 44 112 44 86 92 c 128,-1,37
 60 140 60 140 60 203 c 0,38,39
 60 230 60 230 70 266 c 128,-1,40
 80 302 80 302 104 336 c 128,-1,41
 128 370 128 370 169 392.5 c 128,-1,42
 210 415 210 415 272 415 c 0,43,44
 277 415 277 415 282.5 415 c 128,-1,45
 288 415 288 415 292 414 c 1,46,-1
 281 341 l 1,0,-1
EndSplineSet
EndChar

StartChar: Dda
Encoding: 71194 71194 44
Width: 630
GlyphClass: 2
Flags: W
HStem: -10 74<255.762 441.76> 249 71<278.048 396.529> 259 71<314.188 467.875> 551 71<0 315 409.837 640>
VStem: 180 80<329.142 423.401> 490 80<109.568 236.364>
AnchorPoint: "+BBEENQQ3BEsEPARPBD0EPQQ+BDUA--5" 472 718 basechar 0
AnchorPoint: "+BBEENQQ3BEsEPARPBD0EPQQ+BDUA--4" 463 622 basechar 0
AnchorPoint: "+BBEENQQ3BEsEPARPBD0EPQQ+BDUA--3" 355 -70 basechar 0
AnchorPoint: "+BBEENQQ3BEsEPARPBD0EPQQ+BDUA--2" 401 54 basechar 0
AnchorPoint: "+BBEENQQ3BEsEPARPBD0EPQQ+BDUA--1" 358 -80 basechar 0
AnchorPoint: "+BBEENQQ3BEsEPARPBD0EPQQ+BDUA--0" 338 -80 basechar 0
LayerCount: 2
Fore
SplineSet
640 551 m 1,0,-1
 453 551 l 1,1,2
 355 507 355 507 307.5 455.5 c 128,-1,3
 260 404 260 404 260 365 c 0,4,5
 260 340 260 340 277.5 330 c 128,-1,6
 295 320 295 320 319 320 c 0,7,8
 336 320 336 320 361 325 c 128,-1,9
 386 330 386 330 411 330 c 0,10,11
 491 330 491 330 530.5 288 c 128,-1,12
 570 246 570 246 570 170 c 0,13,14
 570 126 570 126 546 84.5 c 128,-1,15
 522 43 522 43 475 16.5 c 128,-1,16
 428 -10 428 -10 358 -10 c 0,17,18
 257 -10 257 -10 174.5 47 c 128,-1,19
 92 104 92 104 24 243 c 1,20,-1
 93 277 l 1,21,22
 148 159 148 159 212 111.5 c 128,-1,23
 276 64 276 64 355 64 c 0,24,25
 402 64 402 64 432 80 c 128,-1,26
 462 96 462 96 476 121 c 128,-1,27
 490 146 490 146 490 173 c 0,28,29
 490 195 490 195 483 214.5 c 128,-1,30
 476 234 476 234 456.5 246.5 c 128,-1,31
 437 259 437 259 397 259 c 0,32,33
 382 259 382 259 358.5 254 c 128,-1,34
 335 249 335 249 308 249 c 0,35,36
 278 249 278 249 248.5 260 c 128,-1,37
 219 271 219 271 199.5 296.5 c 128,-1,38
 180 322 180 322 180 363 c 0,39,40
 180 418 180 418 217 464.5 c 128,-1,41
 254 511 254 511 315 551 c 1,42,-1
 0 551 l 1,43,-1
 0 622 l 1,44,-1
 640 622 l 1,45,-1
 640 551 l 1,0,-1
EndSplineSet
Substitution2: "Single Substitution lookup 14 subtable" Dda.alt
EndChar

StartChar: Ddha
Encoding: 71195 71195 45
Width: 574
GlyphClass: 2
Flags: W
HStem: -10 74<199.618 315.248> 250 68<342.142 441.045> 551 71<0 305 382.447 584>
VStem: 60 80<122.286 264.815> 251 75<133.169 234.368> 305 80<488.349 551> 459 75<116.043 230.938>
AnchorPoint: "+BBEENQQ3BEsEPARPBD0EPQQ+BDUA--6" 337 718 basechar 0
AnchorPoint: "+BBEENQQ3BEsEPARPBD0EPQQ+BDUA--5" 459 718 basechar 0
AnchorPoint: "+BBEENQQ3BEsEPARPBD0EPQQ+BDUA--4" 385 622 basechar 0
AnchorPoint: "+BBEENQQ3BEsEPARPBD0EPQQ+BDUA--3" 289 -70 basechar 0
AnchorPoint: "+BBEENQQ3BEsEPARPBD0EPQQ+BDUA--2" 347 54 basechar 0
AnchorPoint: "+BBEENQQ3BEsEPARPBD0EPQQ+BDUA--1" 291 -80 basechar 0
AnchorPoint: "+BBEENQQ3BEsEPARPBD0EPQQ+BDUA--0" 316 -80 basechar 0
LayerCount: 2
Fore
SplineSet
584 551 m 1,0,-1
 385 551 l 1,1,2
 381 499 381 499 354.5 460 c 128,-1,3
 328 421 328 421 292.5 389.5 c 128,-1,4
 257 358 257 358 222 329 c 128,-1,5
 187 300 187 300 163.5 267.5 c 128,-1,6
 140 235 140 235 140 194 c 0,7,8
 140 165 140 165 154.5 134.5 c 128,-1,9
 169 104 169 104 202.5 84 c 128,-1,10
 236 64 236 64 291 64 c 0,11,12
 297 64 297 64 303.5 64 c 128,-1,13
 310 64 310 64 316 65 c 1,14,15
 286 83 286 83 268.5 113 c 128,-1,16
 251 143 251 143 251 179 c 0,17,18
 251 218 251 218 268.5 249.5 c 128,-1,19
 286 281 286 281 318 299.5 c 128,-1,20
 350 318 350 318 391 318 c 0,21,22
 436 318 436 318 468 298 c 128,-1,23
 500 278 500 278 517 246.5 c 128,-1,24
 534 215 534 215 534 179 c 0,25,26
 534 124 534 124 503.5 81 c 128,-1,27
 473 38 473 38 418 14 c 128,-1,28
 363 -10 363 -10 291 -10 c 0,29,30
 229 -10 229 -10 176 11 c 128,-1,31
 123 32 123 32 91.5 77 c 128,-1,32
 60 122 60 122 60 192 c 0,33,34
 60 237 60 237 76.5 270.5 c 128,-1,35
 93 304 93 304 119.5 331.5 c 128,-1,36
 146 359 146 359 176.5 383 c 128,-1,37
 207 407 207 407 234.5 432 c 128,-1,38
 262 457 262 457 281.5 485.5 c 128,-1,39
 301 514 301 514 305 551 c 1,40,-1
 0 551 l 1,41,-1
 0 622 l 1,42,-1
 584 622 l 1,43,-1
 584 551 l 1,0,-1
326 181 m 0,44,45
 326 158 326 158 347.5 133 c 128,-1,46
 369 108 369 108 417 96 c 1,47,48
 459 128 459 128 459 181 c 0,49,50
 459 210 459 210 440.5 230 c 128,-1,51
 422 250 422 250 391 250 c 0,52,53
 367 250 367 250 352.5 238.5 c 128,-1,54
 338 227 338 227 332 211 c 128,-1,55
 326 195 326 195 326 181 c 0,44,45
EndSplineSet
PairPos2: "'kern' Horizontal Kerning in Modi lookup 0 subtable" II.med dx=0 dy=0 dh=0 dv=0 dx=-40 dy=0 dh=-40 dv=0
PairPos2: "'kern' Horizontal Kerning in Modi lookup 0 subtable" I.med dx=0 dy=0 dh=0 dv=0 dx=-30 dy=0 dh=-30 dv=0
EndChar

StartChar: Nna
Encoding: 71196 71196 46
Width: 721
GlyphClass: 2
Flags: W
HStem: 0 21G<561 641> 40 74<195.657 345.351> 320 65<270.187 339.986> 551 71<0 90 162.094 349.019 419 561 641 731>
VStem: 60 80<181.328 521.985> 90 77<450.417 551> 364 80<410.242 540.228> 386 79<152.416 278.037> 561 80<0 551>
AnchorPoint: "+BBEENQQ3BEsEPARPBD0EPQQ+BDUA--5" 596 718 basechar 0
AnchorPoint: "+BBEENQQ3BEsEPARPBD0EPQQ+BDUA--4" 641 622 basechar 0
AnchorPoint: "+BBEENQQ3BEsEPARPBD0EPQQ+BDUA--2" 561 120 basechar 0
AnchorPoint: "+BBEENQQ3BEsEPARPBD0EPQQ+BDUA--0" 561 0 basechar 0
LayerCount: 2
Fore
SplineSet
641 0 m 1,0,-1
 561 0 l 1,1,-1
 561 551 l 1,2,-1
 419 551 l 1,3,4
 444 507 444 507 444 463 c 0,5,6
 444 429 444 429 428.5 400 c 128,-1,7
 413 371 413 371 383 351 c 1,8,9
 425 327 425 327 445 292.5 c 128,-1,10
 465 258 465 258 465 215 c 0,11,12
 465 168 465 168 447 134.5 c 128,-1,13
 429 101 429 101 400 80 c 128,-1,14
 371 59 371 59 337 49.5 c 128,-1,15
 303 40 303 40 270 40 c 0,16,17
 206 40 206 40 165 63 c 128,-1,18
 124 86 124 86 101 126 c 128,-1,19
 78 166 78 166 69 216.5 c 128,-1,20
 60 267 60 267 60 322 c 0,21,22
 60 381 60 381 67 441 c 128,-1,23
 74 501 74 501 90 551 c 1,24,-1
 0 551 l 1,25,-1
 0 622 l 1,26,-1
 731 622 l 1,27,-1
 731 551 l 1,28,-1
 641 551 l 1,29,-1
 641 0 l 1,0,-1
270 386 m 1,30,31
 276 385 276 385 278.5 385 c 128,-1,32
 281 385 281 385 282 385 c 0,33,34
 323 385 323 385 343.5 410.5 c 128,-1,35
 364 436 364 436 364 470 c 0,36,37
 364 514 364 514 335 551 c 1,38,-1
 167 551 l 1,39,40
 157 510 157 510 148.5 448.5 c 128,-1,41
 140 387 140 387 140 325 c 0,42,43
 140 271 140 271 149 222.5 c 128,-1,44
 158 174 158 174 186 144 c 128,-1,45
 214 114 214 114 269 114 c 0,46,47
 294 114 294 114 321 123.5 c 128,-1,48
 348 133 348 133 367 155.5 c 128,-1,49
 386 178 386 178 386 216 c 0,50,51
 386 253 386 253 358.5 285 c 128,-1,52
 331 317 331 317 265 320 c 1,53,-1
 270 386 l 1,30,31
EndSplineSet
EndChar

StartChar: Ta
Encoding: 71197 71197 47
Width: 532
GlyphClass: 2
Flags: W
HStem: 0 21G<372 452> 403 73<300.455 372> 551 71<0 372 452 542>
VStem: 60 81<188.443 310.138> 372 80<0 403 471.297 551>
AnchorPoint: "+BBEENQQ3BEsEPARPBD0EPQQ+BDUA--5" 407 718 basechar 0
AnchorPoint: "+BBEENQQ3BEsEPARPBD0EPQQ+BDUA--4" 452 622 basechar 0
AnchorPoint: "+BBEENQQ3BEsEPARPBD0EPQQ+BDUA--2" 372 80 basechar 0
AnchorPoint: "+BBEENQQ3BEsEPARPBD0EPQQ+BDUA--1" 296 -80 basechar 0
AnchorPoint: "+BBEENQQ3BEsEPARPBD0EPQQ+BDUA--0" 372 0 basechar 0
LayerCount: 2
Fore
SplineSet
452 0 m 1,0,-1
 372 0 l 1,1,-1
 372 403 l 1,2,3
 264 375 264 375 202.5 341 c 128,-1,4
 141 307 141 307 141 258 c 0,5,6
 141 207 141 207 199 137 c 2,7,-1
 261 61 l 1,8,-1
 226 -14 l 1,9,-1
 128 103 l 2,10,11
 95 143 95 143 77.5 181 c 128,-1,12
 60 219 60 219 60 254 c 0,13,14
 60 325 60 325 134.5 382 c 128,-1,15
 209 439 209 439 372 476 c 1,16,-1
 372 551 l 1,17,-1
 0 551 l 1,18,-1
 0 622 l 1,19,-1
 542 622 l 1,20,-1
 542 551 l 1,21,-1
 452 551 l 1,22,-1
 452 0 l 1,0,-1
EndSplineSet
Substitution2: "Single Substitution lookup 14 subtable" Ta.alt
EndChar

StartChar: Tha
Encoding: 71198 71198 48
Width: 834
GlyphClass: 2
Flags: W
HStem: -10 74<487.491 615.072> 76 70<275.465 372.547> 322 70<138.417 223.54> 533 89<141.143 235.014> 551 71<0 81 300 643.625 717 844>
VStem: 50 70<410.392 512.576> 188 80<152.352 286.352> 251 79<406.78 518.02> 694 80<165.291 448.167>
AnchorPoint: "+BBEENQQ3BEsEPARPBD0EPQQ+BDUA--5" 669 718 basechar 0
AnchorPoint: "+BBEENQQ3BEsEPARPBD0EPQQ+BDUA--4" 702 622 basechar 0
AnchorPoint: "+BBEENQQ3BEsEPARPBD0EPQQ+BDUA--0" 507 -80 basechar 0
LayerCount: 2
Fore
SplineSet
844 551 m 1,0,-1
 717 551 l 1,1,2
 737 508 737 508 755.5 446 c 128,-1,3
 774 384 774 384 774 310 c 0,4,5
 774 252 774 252 763 195 c 128,-1,6
 752 138 752 138 726.5 91.5 c 128,-1,7
 701 45 701 45 657 17.5 c 128,-1,8
 613 -10 613 -10 547 -10 c 0,9,10
 500 -10 500 -10 467.5 8 c 128,-1,11
 435 26 435 26 417 52.5 c 128,-1,12
 399 79 399 79 395 105 c 1,13,14
 375 92 375 92 351.5 84 c 128,-1,15
 328 76 328 76 302 76 c 0,16,17
 263 76 263 76 238 93 c 128,-1,18
 213 110 213 110 200.5 135 c 128,-1,19
 188 160 188 160 188 183 c 0,20,21
 188 214 188 214 199 251.5 c 128,-1,22
 210 289 210 289 224 327 c 1,23,24
 206 322 206 322 187 322 c 0,25,26
 149 322 149 322 117.5 341 c 128,-1,27
 86 360 86 360 68 392 c 128,-1,28
 50 424 50 424 50 462 c 0,29,30
 50 488 50 488 58.5 510.5 c 128,-1,31
 67 533 67 533 81 551 c 1,32,-1
 0 551 l 1,33,-1
 0 622 l 1,34,-1
 844 622 l 1,35,-1
 844 551 l 1,0,-1
508 235 m 1,36,37
 486 196 486 196 478 174 c 128,-1,38
 470 152 470 152 470 132 c 0,39,40
 470 104 470 104 487.5 84 c 128,-1,41
 505 64 505 64 549 64 c 0,42,43
 587 64 587 64 620 89 c 128,-1,44
 653 114 653 114 673.5 168.5 c 128,-1,45
 694 223 694 223 694 311 c 0,46,47
 694 353 694 353 685 396.5 c 128,-1,48
 676 440 676 440 662 480.5 c 128,-1,49
 648 521 648 521 634 551 c 1,50,-1
 300 551 l 1,51,52
 316 530 316 530 323 506 c 128,-1,53
 330 482 330 482 330 459 c 0,54,55
 330 422 330 422 320.5 388.5 c 128,-1,56
 311 355 311 355 299 322.5 c 128,-1,57
 287 290 287 290 277.5 257.5 c 128,-1,58
 268 225 268 225 268 190 c 0,59,60
 268 165 268 165 279 155.5 c 128,-1,61
 290 146 290 146 306 146 c 0,62,63
 327 146 327 146 348.5 154 c 128,-1,64
 370 162 370 162 395 188 c 128,-1,65
 420 214 420 214 450 266 c 1,66,-1
 508 235 l 1,36,37
189 392 m 0,67,68
 206 392 206 392 220.5 397.5 c 128,-1,69
 235 403 235 403 247 412 c 1,70,71
 249 424 249 424 250 436.5 c 128,-1,72
 251 449 251 449 251 462 c 0,73,74
 251 473 251 473 246 489.5 c 128,-1,75
 241 506 241 506 228 519.5 c 128,-1,76
 215 533 215 533 190 533 c 0,77,78
 161 533 161 533 140.5 512.5 c 128,-1,79
 120 492 120 492 120 461 c 0,80,81
 120 437 120 437 131.5 421.5 c 128,-1,82
 143 406 143 406 159.5 399 c 128,-1,83
 176 392 176 392 189 392 c 0,67,68
EndSplineSet
Substitution2: "Single Substitution lookup 14 subtable" Tha.alt
EndChar

StartChar: Da
Encoding: 71199 71199 49
Width: 642
GlyphClass: 2
Flags: W
HStem: -10 74<250.302 416.721> 551 71<0 67 139.435 458.769 531 652>
VStem: 40 80<392.344 533.513> 118 80<114.392 263.021> 502 80<164.24 465.043>
AnchorPoint: "+BBEENQQ3BEsEPARPBD0EPQQ+BDUA--6" 321 718 basechar 0
AnchorPoint: "+BBEENQQ3BEsEPARPBD0EPQQ+BDUA--5" 485 718 basechar 0
AnchorPoint: "+BBEENQQ3BEsEPARPBD0EPQQ+BDUA--4" 516 622 basechar 0
AnchorPoint: "+BBEENQQ3BEsEPARPBD0EPQQ+BDUA--3" 331 -70 basechar 0
AnchorPoint: "+BBEENQQ3BEsEPARPBD0EPQQ+BDUA--2" 374 54 basechar 0
AnchorPoint: "+BBEENQQ3BEsEPARPBD0EPQQ+BDUA--1" 321 -80 basechar 0
AnchorPoint: "+BBEENQQ3BEsEPARPBD0EPQQ+BDUA--0" 335 -80 basechar 0
LayerCount: 2
Fore
SplineSet
652 551 m 1,0,-1
 531 551 l 1,1,2
 549 508 549 508 565.5 446 c 128,-1,3
 582 384 582 384 582 310 c 0,4,5
 582 252 582 252 570 195 c 128,-1,6
 558 138 558 138 530 91.5 c 128,-1,7
 502 45 502 45 453.5 17.5 c 128,-1,8
 405 -10 405 -10 331 -10 c 0,9,10
 263 -10 263 -10 215.5 15.5 c 128,-1,11
 168 41 168 41 143 84 c 128,-1,12
 118 127 118 127 118 179 c 0,13,14
 118 213 118 213 126 244 c 128,-1,15
 134 275 134 275 157 304 c 1,16,17
 98 313 98 313 69 354.5 c 128,-1,18
 40 396 40 396 40 446 c 0,19,20
 40 500 40 500 67 551 c 1,21,-1
 0 551 l 1,22,-1
 0 622 l 1,23,-1
 652 622 l 1,24,-1
 652 551 l 1,0,-1
502 311 m 0,25,26
 502 383 502 383 485.5 446 c 128,-1,27
 469 509 469 509 450 551 c 1,28,-1
 153 551 l 1,29,30
 133 523 133 523 126.5 496.5 c 128,-1,31
 120 470 120 470 120 448 c 0,32,33
 120 414 120 414 140 393 c 128,-1,34
 160 372 160 372 197 372 c 0,35,36
 211 372 211 372 229 376 c 128,-1,37
 247 380 247 380 272 390 c 1,38,-1
 302 331 l 1,39,40
 244 299 244 299 221 265 c 128,-1,41
 198 231 198 231 198 183 c 0,42,43
 198 154 198 154 212 126.5 c 128,-1,44
 226 99 226 99 256.5 81.5 c 128,-1,45
 287 64 287 64 335 64 c 0,46,47
 411 64 411 64 456.5 121.5 c 128,-1,48
 502 179 502 179 502 311 c 0,25,26
EndSplineSet
Substitution2: "Single Substitution lookup 15 subtable" Da.alt2
Substitution2: "Single Substitution lookup 14 subtable" Da.alt
EndChar

StartChar: Dha
Encoding: 71200 71200 50
Width: 673
GlyphClass: 2
Flags: W
HStem: -10 72<299.864 456.249> 353 68<146.386 230.467> 535 87<145.639 231.59> 551 71<0 82 300 485.938 559 683>
VStem: 50 78<430.026 518.444> 185 75<98.934 218.863> 245 78<434.795 521.084> 533 80<157.539 452.07>
AnchorPoint: "+BBEENQQ3BEsEPARPBD0EPQQ+BDUA--6" 336 718 basechar 0
AnchorPoint: "+BBEENQQ3BEsEPARPBD0EPQQ+BDUA--5" 515 718 basechar 0
AnchorPoint: "+BBEENQQ3BEsEPARPBD0EPQQ+BDUA--4" 544 622 basechar 0
AnchorPoint: "+BBEENQQ3BEsEPARPBD0EPQQ+BDUA--3" 374 -70 basechar 0
AnchorPoint: "+BBEENQQ3BEsEPARPBD0EPQQ+BDUA--2" 414 55 basechar 0
AnchorPoint: "+BBEENQQ3BEsEPARPBD0EPQQ+BDUA--1" 336 -80 basechar 0
AnchorPoint: "+BBEENQQ3BEsEPARPBD0EPQQ+BDUA--0" 371 -80 basechar 0
LayerCount: 2
Fore
SplineSet
683 551 m 1,0,-1
 559 551 l 1,1,2
 578 505 578 505 595.5 441.5 c 128,-1,3
 613 378 613 378 613 310 c 0,4,5
 613 221 613 221 588.5 148.5 c 128,-1,6
 564 76 564 76 511 33 c 128,-1,7
 458 -10 458 -10 371 -10 c 0,8,9
 313 -10 313 -10 271 13 c 128,-1,10
 229 36 229 36 207 72.5 c 128,-1,11
 185 109 185 109 185 149 c 0,12,13
 185 200 185 200 209 237 c 1,14,15
 157 242 157 242 121.5 272.5 c 128,-1,16
 86 303 86 303 68 348.5 c 128,-1,17
 50 394 50 394 50 444 c 0,18,19
 50 471 50 471 58 499.5 c 128,-1,20
 66 528 66 528 82 551 c 1,21,-1
 0 551 l 1,22,-1
 0 622 l 1,23,-1
 683 622 l 1,24,-1
 683 551 l 1,0,-1
533 311 m 0,25,26
 533 352 533 352 524.5 395.5 c 128,-1,27
 516 439 516 439 503 480 c 128,-1,28
 490 521 490 521 477 551 c 1,29,-1
 300 551 l 1,30,31
 311 536 311 536 317 518 c 128,-1,32
 323 500 323 500 323 479 c 0,33,34
 323 418 323 418 284.5 385.5 c 128,-1,35
 246 353 246 353 188 353 c 0,36,37
 166 353 166 353 146 359 c 1,38,39
 158 334 158 334 179.5 319 c 128,-1,40
 201 304 201 304 232 304 c 0,41,42
 249 304 249 304 269.5 309.5 c 128,-1,43
 290 315 290 315 319 328 c 1,44,-1
 349 270 l 1,45,46
 327 263 327 263 306.5 245.5 c 128,-1,47
 286 228 286 228 273 205 c 128,-1,48
 260 182 260 182 260 157 c 0,49,50
 260 126 260 126 276.5 105 c 128,-1,51
 293 84 293 84 319 73 c 128,-1,52
 345 62 345 62 374 62 c 0,53,54
 426 62 426 62 457.5 84.5 c 128,-1,55
 489 107 489 107 505.5 143.5 c 128,-1,56
 522 180 522 180 527.5 224 c 128,-1,57
 533 268 533 268 533 311 c 0,25,26
128 441 m 1,58,59
 141 432 141 432 155.5 426.5 c 128,-1,60
 170 421 170 421 187 421 c 0,61,62
 211 421 211 421 228 436.5 c 128,-1,63
 245 452 245 452 245 479 c 0,64,65
 245 499 245 499 232 517 c 128,-1,66
 219 535 219 535 190 535 c 0,67,68
 165 535 165 535 151.5 520.5 c 128,-1,69
 138 506 138 506 133 486.5 c 128,-1,70
 128 467 128 467 128 450 c 2,71,-1
 128 441 l 1,58,59
EndSplineSet
Substitution2: "Single Substitution lookup 15 subtable" Dha.alt2
Substitution2: "Single Substitution lookup 14 subtable" Dha.alt
EndChar

StartChar: Na
Encoding: 71201 71201 51
Width: 658
GlyphClass: 2
Flags: W
HStem: -10 72<320.126 416.086> 392 128<102.335 254.529> 551 71<0 512 605 658>
VStem: 227 78<77.3433 192.838> 428 78<75.6506 186.996>
AnchorPoint: "+BBEENQQ3BEsEPARPBD0EPQQ+BDUA--6" 375 718 basechar 0
AnchorPoint: "+BBEENQQ3BEsEPARPBD0EPQQ+BDUA--5" 512 718 basechar 0
AnchorPoint: "+BBEENQQ3BEsEPARPBD0EPQQ+BDUA--4" 585 622 basechar 0
AnchorPoint: "+BBEENQQ3BEsEPARPBD0EPQQ+BDUA--3" 363 -70 basechar 0
AnchorPoint: "+BBEENQQ3BEsEPARPBD0EPQQ+BDUA--2" 393 54 basechar 0
AnchorPoint: "+BBEENQQ3BEsEPARPBD0EPQQ+BDUA--1" 363 -80 basechar 0
AnchorPoint: "+BBEENQQ3BEsEPARPBD0EPQQ+BDUA--0" 363 -80 basechar 0
LayerCount: 2
Fore
SplineSet
658 551 m 1,0,-1
 605 551 l 1,1,-1
 413 320 l 1,2,-1
 437 282 l 2,3,4
 469 230 469 230 487.5 185.5 c 128,-1,5
 506 141 506 141 506 120 c 0,6,7
 506 65 506 65 474.5 27.5 c 128,-1,8
 443 -10 443 -10 363 -10 c 0,9,10
 316 -10 316 -10 285.5 8.5 c 128,-1,11
 255 27 255 27 241 55.5 c 128,-1,12
 227 84 227 84 227 113 c 0,13,14
 227 160 227 160 254 210.5 c 128,-1,15
 281 261 281 261 328 322 c 1,16,17
 283 393 283 393 255 407 c 1,18,19
 240 400 240 400 217.5 396 c 128,-1,20
 195 392 195 392 176 392 c 0,21,22
 122 392 122 392 98.5 413 c 128,-1,23
 75 434 75 434 75 457 c 256,24,25
 75 480 75 480 101.5 500 c 128,-1,26
 128 520 128 520 182 520 c 0,27,28
 228 520 228 520 263 498.5 c 128,-1,29
 298 477 298 477 325.5 444.5 c 128,-1,30
 353 412 353 412 374 380 c 1,31,-1
 512 551 l 1,32,-1
 0 551 l 1,33,-1
 0 622 l 1,34,-1
 658 622 l 1,35,-1
 658 551 l 1,0,-1
366 257 m 1,36,37
 305 169 305 169 305 123 c 0,38,39
 305 96 305 96 322 79 c 128,-1,40
 339 62 339 62 363 62 c 0,41,42
 401 62 401 62 414.5 78.5 c 128,-1,43
 428 95 428 95 428 123 c 0,44,45
 428 143 428 143 414 171.5 c 128,-1,46
 400 200 400 200 380 235 c 2,47,-1
 366 257 l 1,36,37
EndSplineSet
PairPos2: "'kern' Horizontal Kerning in Modi lookup 0 subtable" II_dv dx=0 dy=0 dh=0 dv=0 dx=25 dy=0 dh=25 dv=0
PairPos2: "'kern' Horizontal Kerning in Modi lookup 0 subtable" I_dv dx=0 dy=0 dh=0 dv=0 dx=25 dy=0 dh=25 dv=0
EndChar

StartChar: Pa
Encoding: 71202 71202 52
Width: 714
GlyphClass: 2
Flags: W
HStem: -10 74<189.004 284.358 429.973 525.216> 551 71<0 124 195.705 517.844 590 724>
VStem: 60 80<128.211 424.842> 319 76<103.599 213> 574 80<128.211 424.842>
CounterMasks: 1 38
AnchorPoint: "+BBEENQQ3BEsEPARPBD0EPQQ+BDUA--6" 357 718 basechar 0
AnchorPoint: "+BBEENQQ3BEsEPARPBD0EPQQ+BDUA--5" 513 718 basechar 0
AnchorPoint: "+BBEENQQ3BEsEPARPBD0EPQQ+BDUA--4" 575 622 basechar 0
AnchorPoint: "+BBEENQQ3BEsEPARPBD0EPQQ+BDUA--3" 356 -79 basechar 0
AnchorPoint: "+BBEENQQ3BEsEPARPBD0EPQQ+BDUA--1" 357 -80 basechar 0
AnchorPoint: "+BBEENQQ3BEsEPARPBD0EPQQ+BDUA--0" 455 -80 basechar 0
LayerCount: 2
Fore
SplineSet
724 551 m 1,0,-1
 590 551 l 1,1,2
 604 519 604 519 618.5 473.5 c 128,-1,3
 633 428 633 428 643.5 376 c 128,-1,4
 654 324 654 324 654 270 c 0,5,6
 654 121 654 121 605 55.5 c 128,-1,7
 556 -10 556 -10 475 -10 c 0,8,9
 435 -10 435 -10 405.5 8.5 c 128,-1,10
 376 27 376 27 357 58 c 1,11,12
 338 27 338 27 309 8.5 c 128,-1,13
 280 -10 280 -10 239 -10 c 0,14,15
 158 -10 158 -10 109 55.5 c 128,-1,16
 60 121 60 121 60 270 c 0,17,18
 60 324 60 324 70 376 c 128,-1,19
 80 428 80 428 95 473.5 c 128,-1,20
 110 519 110 519 124 551 c 1,21,-1
 0 551 l 1,22,-1
 0 622 l 1,23,-1
 724 622 l 1,24,-1
 724 551 l 1,0,-1
395 213 m 1,25,26
 397 132 397 132 420 98 c 128,-1,27
 443 64 443 64 477 64 c 0,28,29
 501 64 501 64 523 83 c 128,-1,30
 545 102 545 102 559.5 147.5 c 128,-1,31
 574 193 574 193 574 271 c 0,32,33
 574 323 574 323 563.5 375.5 c 128,-1,34
 553 428 553 428 538 474 c 128,-1,35
 523 520 523 520 508 551 c 1,36,-1
 205 551 l 1,37,38
 191 520 191 520 176 474 c 128,-1,39
 161 428 161 428 150.5 375.5 c 128,-1,40
 140 323 140 323 140 271 c 0,41,42
 140 193 140 193 154.5 147.5 c 128,-1,43
 169 102 169 102 191.5 83 c 128,-1,44
 214 64 214 64 237 64 c 0,45,46
 271 64 271 64 294 98 c 128,-1,47
 317 132 317 132 319 213 c 1,48,-1
 395 213 l 1,25,26
EndSplineSet
Substitution2: "Single Substitution lookup 14 subtable" Pa.alt
EndChar

StartChar: Pha
Encoding: 71203 71203 53
Width: 774
GlyphClass: 2
Flags: W
HStem: -10 70<624.805 677.184> 0 21G<226 309> 178 70<434.765 530> 318 71<157.51 252.324> 551 71<0 50 130 271 351 594 668.015 784>
VStem: 50 80<409.707 551> 274 77<187.717 336 410.438 551> 530 80<82.1825 168> 594 81<484.131 551> 679 75<60.397 141.872>
AnchorPoint: "+BBEENQQ3BEsEPARPBD0EPQQ+BDUA--5" 644 718 basechar 0
AnchorPoint: "+BBEENQQ3BEsEPARPBD0EPQQ+BDUA--4" 676 622 basechar 0
AnchorPoint: "+BBEENQQ3BEsEPARPBD0EPQQ+BDUA--3" 653 -50 basechar 0
AnchorPoint: "+BBEENQQ3BEsEPARPBD0EPQQ+BDUA--2" 573 90 basechar 0
AnchorPoint: "+BBEENQQ3BEsEPARPBD0EPQQ+BDUA--1" 471 -80 basechar 0
AnchorPoint: "+BBEENQQ3BEsEPARPBD0EPQQ+BDUA--0" 610 -80 basechar 0
LayerCount: 2
Fore
SplineSet
0 622 m 1,0,-1
 784 622 l 1,1,-1
 784 551 l 1,2,-1
 675 551 l 1,3,4
 642 455 642 455 628.5 375.5 c 128,-1,5
 615 296 615 296 612 239 c 1,6,7
 662 227 662 227 693.5 201.5 c 128,-1,8
 725 176 725 176 739.5 145 c 128,-1,9
 754 114 754 114 754 85 c 0,10,11
 754 72 754 72 746 49 c 128,-1,12
 738 26 738 26 716.5 8 c 128,-1,13
 695 -10 695 -10 652 -10 c 0,14,15
 594 -10 594 -10 563.5 38.5 c 128,-1,16
 533 87 533 87 530 178 c 1,17,18
 504 177 504 177 470.5 168.5 c 128,-1,19
 437 160 437 160 403 140.5 c 128,-1,20
 369 121 369 121 342 86.5 c 128,-1,21
 315 52 315 52 303 0 c 1,22,-1
 226 0 l 1,23,24
 230 12 230 12 234 24 c 0,25,26
 257 98 257 98 265.5 162.5 c 128,-1,27
 274 227 274 227 274 284 c 2,28,-1
 274 336 l 1,29,30
 241 318 241 318 196 318 c 256,31,32
 151 318 151 318 118.5 336 c 128,-1,33
 86 354 86 354 68 397 c 128,-1,34
 50 440 50 440 50 514 c 2,35,-1
 50 551 l 1,36,-1
 0 551 l 1,37,-1
 0 622 l 1,0,-1
130 515 m 2,38,39
 130 462 130 462 139 434.5 c 128,-1,40
 148 407 148 407 164 398 c 128,-1,41
 180 389 180 389 200 389 c 0,42,43
 242 389 242 389 256.5 417 c 128,-1,44
 271 445 271 445 271 515 c 2,45,-1
 271 551 l 1,46,-1
 130 551 l 1,47,-1
 130 515 l 2,38,39
351 289 m 2,48,49
 351 241 351 241 343 186 c 1,50,51
 389 222 389 222 439 235 c 128,-1,52
 489 248 489 248 533 248 c 1,53,54
 536 292 536 292 544.5 344 c 128,-1,55
 553 396 553 396 565.5 449.5 c 128,-1,56
 578 503 578 503 594 551 c 1,57,-1
 351 551 l 1,58,-1
 351 289 l 2,48,49
679 89 m 0,59,60
 679 107 679 107 665.5 131 c 128,-1,61
 652 155 652 155 610 168 c 1,62,63
 612 103 612 103 624.5 81.5 c 128,-1,64
 637 60 637 60 653 60 c 0,65,66
 667 60 667 60 673 71.5 c 128,-1,67
 679 83 679 83 679 89 c 0,59,60
EndSplineSet
EndChar

StartChar: Ba
Encoding: 71204 71204 54
Width: 641
GlyphClass: 2
Flags: W
HStem: -10 74<231.507 408.576> 0 21G<481 561> 551 71<0 67 139.435 481 561 651>
VStem: 40 80<392.839 533.513> 105 80<108.756 253.385> 481 80<0 43 139.5 551>
AnchorPoint: "+BBEENQQ3BEsEPARPBD0EPQQ+BDUA--5" 516 718 basechar 0
AnchorPoint: "+BBEENQQ3BEsEPARPBD0EPQQ+BDUA--4" 561 622 basechar 0
AnchorPoint: "+BBEENQQ3BEsEPARPBD0EPQQ+BDUA--2" 356 54 basechar 0
AnchorPoint: "+BBEENQQ3BEsEPARPBD0EPQQ+BDUA--1" 320 -80 basechar 0
AnchorPoint: "+BBEENQQ3BEsEPARPBD0EPQQ+BDUA--0" 481 0 basechar 0
LayerCount: 2
Fore
SplineSet
561 0 m 1,0,-1
 481 0 l 1,1,-1
 481 43 l 1,2,3
 452 18 452 18 411 4 c 128,-1,4
 370 -10 370 -10 315 -10 c 0,5,6
 251 -10 251 -10 203.5 13.5 c 128,-1,7
 156 37 156 37 130.5 78 c 128,-1,8
 105 119 105 119 105 171 c 0,9,10
 105 209 105 209 116 241.5 c 128,-1,11
 127 274 127 274 153 304 c 1,12,13
 96 315 96 315 68 356 c 128,-1,14
 40 397 40 397 40 446 c 0,15,16
 40 500 40 500 67 551 c 1,17,-1
 0 551 l 1,18,-1
 0 622 l 1,19,-1
 651 622 l 1,20,-1
 651 551 l 1,21,-1
 561 551 l 1,22,-1
 561 0 l 1,0,-1
481 551 m 1,23,-1
 153 551 l 1,24,25
 133 523 133 523 126.5 496.5 c 128,-1,26
 120 470 120 470 120 448 c 0,27,28
 120 414 120 414 140 393 c 128,-1,29
 160 372 160 372 197 372 c 0,30,31
 211 372 211 372 229 376 c 128,-1,32
 247 380 247 380 272 390 c 1,33,-1
 302 331 l 1,34,35
 243 299 243 299 214 263.5 c 128,-1,36
 185 228 185 228 185 175 c 0,37,38
 185 147 185 147 198.5 121.5 c 128,-1,39
 212 96 212 96 241 80 c 128,-1,40
 270 64 270 64 316 64 c 0,41,42
 375 64 375 64 411 87 c 128,-1,43
 447 110 447 110 464 149 c 128,-1,44
 481 188 481 188 481 236 c 2,45,-1
 481 551 l 1,23,-1
EndSplineSet
Substitution2: "Single Substitution lookup 14 subtable" Ba.alt
EndChar

StartChar: Bha
Encoding: 71205 71205 55
Width: 728
GlyphClass: 2
Flags: W
HStem: 0 21G<270 350 568 648> 271 71<167.066 270 350 568> 533 89<157.831 246.705> 551 71<0 93 311 568 648 738>
VStem: 60 80<368.156 515.192> 270 80<0 271 342 508.574> 568 80<0 271 342 551>
AnchorPoint: "+BBEENQQ3BEsEPARPBD0EPQQ+BDUA--5" 603 718 basechar 0
AnchorPoint: "+BBEENQQ3BEsEPARPBD0EPQQ+BDUA--4" 648 622 basechar 0
AnchorPoint: "+BBEENQQ3BEsEPARPBD0EPQQ+BDUA--2" 568 120 basechar 0
AnchorPoint: "+BBEENQQ3BEsEPARPBD0EPQQ+BDUA--1" 449 -80 basechar 0
AnchorPoint: "+BBEENQQ3BEsEPARPBD0EPQQ+BDUA--0" 568 0 basechar 0
LayerCount: 2
Fore
SplineSet
350 0 m 1,0,-1
 270 0 l 1,1,-1
 270 271 l 1,2,-1
 244 271 l 2,3,4
 193 271 193 271 151 287 c 128,-1,5
 109 303 109 303 84.5 338.5 c 128,-1,6
 60 374 60 374 60 432 c 0,7,8
 60 472 60 472 69 501.5 c 128,-1,9
 78 531 78 531 93 551 c 1,10,-1
 0 551 l 1,11,-1
 0 622 l 1,12,-1
 738 622 l 1,13,-1
 738 551 l 1,14,-1
 648 551 l 1,15,-1
 648 0 l 1,16,-1
 568 0 l 1,17,-1
 568 271 l 1,18,-1
 350 271 l 1,19,-1
 350 0 l 1,0,-1
350 342 m 1,20,-1
 568 342 l 1,21,-1
 568 551 l 1,22,-1
 311 551 l 1,23,24
 350 496 350 496 350 388 c 2,25,-1
 350 342 l 1,20,-1
140 431 m 0,26,27
 140 398 140 398 152.5 379.5 c 128,-1,28
 165 361 165 361 183 353 c 128,-1,29
 201 345 201 345 218.5 343.5 c 128,-1,30
 236 342 236 342 246 342 c 2,31,-1
 270 342 l 1,32,-1
 270 387 l 2,33,34
 270 459 270 459 255 496 c 128,-1,35
 240 533 240 533 202 533 c 0,36,37
 178 533 178 533 159 512.5 c 128,-1,38
 140 492 140 492 140 431 c 0,26,27
EndSplineSet
EndChar

StartChar: Ma
Encoding: 71206 71206 56
Width: 646
GlyphClass: 2
Flags: W
HStem: -10 70<496.789 549.184> 0 21G<69 154.5> 178 70<272.898 402> 551 71<0 84.0806 162 465 539.808 656>
VStem: 111 80<184.828 505.782> 402 80<82.1823 167> 465 82<484.017 551> 551 75<60.397 138.084>
AnchorPoint: "+BBEENQQ3BEsEPARPBD0EPQQ+BDUA--5" 500 718 basechar 0
AnchorPoint: "+BBEENQQ3BEsEPARPBD0EPQQ+BDUA--4" 547 622 basechar 0
AnchorPoint: "+BBEENQQ3BEsEPARPBD0EPQQ+BDUA--3" 525 -47 basechar 0
AnchorPoint: "+BBEENQQ3BEsEPARPBD0EPQQ+BDUA--2" 438 90 basechar 0
AnchorPoint: "+BBEENQQ3BEsEPARPBD0EPQQ+BDUA--1" 328 -80 basechar 0
AnchorPoint: "+BBEENQQ3BEsEPARPBD0EPQQ+BDUA--0" 482 -80 basechar 0
LayerCount: 2
Fore
SplineSet
0 622 m 1,0,-1
 656 622 l 1,1,-1
 656 551 l 1,2,-1
 547 551 l 1,3,4
 513 454 513 454 499.5 374.5 c 128,-1,5
 486 295 486 295 483 239 c 1,6,7
 531 227 531 227 562.5 201.5 c 128,-1,8
 594 176 594 176 610 145 c 128,-1,9
 626 114 626 114 626 85 c 0,10,11
 626 72 626 72 618 49 c 128,-1,12
 610 26 610 26 588.5 8 c 128,-1,13
 567 -10 567 -10 524 -10 c 0,14,15
 466 -10 466 -10 435 38.5 c 128,-1,16
 404 87 404 87 402 178 c 1,17,18
 342 177 342 177 290 162 c 128,-1,19
 238 147 238 147 200.5 109 c 128,-1,20
 163 71 163 71 146 0 c 1,21,-1
 69 0 l 1,22,23
 73 13 73 13 77 25.5 c 128,-1,24
 81 38 81 38 85 49 c 0,25,26
 97 95 97 95 104 154.5 c 128,-1,27
 111 214 111 214 111 284 c 0,28,29
 111 343 111 343 103.5 414.5 c 128,-1,30
 96 486 96 486 79 551 c 1,31,-1
 0 551 l 1,32,-1
 0 622 l 1,0,-1
404 248 m 1,33,34
 408 292 408 292 416.5 344 c 128,-1,35
 425 396 425 396 437.5 449.5 c 128,-1,36
 450 503 450 503 465 551 c 1,37,-1
 162 551 l 1,38,39
 191 398 191 398 191 275 c 0,40,41
 191 256 191 256 188.5 232 c 128,-1,42
 186 208 186 208 182 184 c 1,43,44
 226 217 226 217 281.5 232 c 128,-1,45
 337 247 337 247 404 248 c 1,33,34
551 89 m 0,46,47
 551 106 551 106 535.5 130 c 128,-1,48
 520 154 520 154 482 167 c 1,49,50
 484 103 484 103 496.5 81.5 c 128,-1,51
 509 60 509 60 525 60 c 0,52,53
 539 60 539 60 545 71.5 c 128,-1,54
 551 83 551 83 551 89 c 0,46,47
EndSplineSet
Substitution2: "Single Substitution lookup 14 subtable" Ma.alt
EndChar

StartChar: Ya
Encoding: 71207 71207 57
Width: 648
GlyphClass: 2
Flags: W
HStem: -10 74<242.195 404.563> 322 70<140.438 251.795> 533 89<165.657 254.012> 551 71<0 103 312 488 568 658>
VStem: 60 79<400.603 503.703> 270 70<410.392 515.656> 488 80<170.033 551>
AnchorPoint: "+BBEENQQ3BEsEPARPBD0EPQQ+BDUA--6" 324 718 basechar 0
AnchorPoint: "+BBEENQQ3BEsEPARPBD0EPQQ+BDUA--5" 523 718 basechar 0
AnchorPoint: "+BBEENQQ3BEsEPARPBD0EPQQ+BDUA--4" 568 622 basechar 0
AnchorPoint: "+BBEENQQ3BEsEPARPBD0EPQQ+BDUA--3" 323 -70 basechar 0
AnchorPoint: "+BBEENQQ3BEsEPARPBD0EPQQ+BDUA--1" 324 -80 basechar 0
AnchorPoint: "+BBEENQQ3BEsEPARPBD0EPQQ+BDUA--0" 323 -80 basechar 0
LayerCount: 2
Fore
SplineSet
0 622 m 1,0,-1
 658 622 l 1,1,-1
 658 551 l 1,2,-1
 568 551 l 1,3,-1
 568 301 l 2,4,5
 568 242 568 242 555 186.5 c 128,-1,6
 542 131 542 131 513 86.5 c 128,-1,7
 484 42 484 42 437.5 16 c 128,-1,8
 391 -10 391 -10 323 -10 c 0,9,10
 250 -10 250 -10 199.5 21.5 c 128,-1,11
 149 53 149 53 118.5 108 c 128,-1,12
 88 163 88 163 74 235 c 128,-1,13
 60 307 60 307 60 388 c 0,14,15
 60 494 60 494 103 551 c 1,16,-1
 0 551 l 1,17,-1
 0 622 l 1,0,-1
324 64 m 0,18,19
 371 64 371 64 402.5 84.5 c 128,-1,20
 434 105 434 105 452.5 139.5 c 128,-1,21
 471 174 471 174 479.5 216.5 c 128,-1,22
 488 259 488 259 488 302 c 2,23,-1
 488 551 l 1,24,-1
 312 551 l 1,25,26
 325 533 325 533 332.5 510.5 c 128,-1,27
 340 488 340 488 340 462 c 0,28,29
 340 424 340 424 322 392 c 128,-1,30
 304 360 304 360 273 341 c 128,-1,31
 242 322 242 322 203 322 c 0,32,33
 185 322 185 322 169.5 326 c 128,-1,34
 154 330 154 330 140 337 c 1,35,36
 143 293 143 293 152.5 245 c 128,-1,37
 162 197 162 197 182 156 c 128,-1,38
 202 115 202 115 236.5 89.5 c 128,-1,39
 271 64 271 64 324 64 c 0,18,19
210 533 m 0,40,41
 145 533 145 533 139 414 c 1,42,43
 152 404 152 404 167 398 c 128,-1,44
 182 392 182 392 201 392 c 0,45,46
 215 392 215 392 231 399 c 128,-1,47
 247 406 247 406 258.5 421.5 c 128,-1,48
 270 437 270 437 270 461 c 0,49,50
 270 492 270 492 254.5 512.5 c 128,-1,51
 239 533 239 533 210 533 c 0,40,41
EndSplineSet
Substitution2: "Single Substitution lookup 14 subtable" Ya.alt
EndChar

StartChar: Ra
Encoding: 71208 71208 58
Width: 570
GlyphClass: 2
Flags: W
HStem: -10 74<209.922 358.938> 551 71<0 393 467.508 580>
VStem: 378 80<378.839 550.344> 430 80<141.542 346.607>
AnchorPoint: "+BBEENQQ3BEsEPARPBD0EPQQ+BDUA--6" 285 718 basechar 0
AnchorPoint: "+BBEENQQ3BEsEPARPBD0EPQQ+BDUA--5" 415 718 basechar 0
AnchorPoint: "+BBEENQQ3BEsEPARPBD0EPQQ+BDUA--4" 478 622 basechar 0
AnchorPoint: "+BBEENQQ3BEsEPARPBD0EPQQ+BDUA--3" 286 -70 basechar 0
AnchorPoint: "+BBEENQQ3BEsEPARPBD0EPQQ+BDUA--1" 285 -80 basechar 0
AnchorPoint: "+BBEENQQ3BEsEPARPBD0EPQQ+BDUA--0" 284 -80 basechar 0
LayerCount: 2
Fore
SplineSet
580 551 m 1,0,-1
 478 551 l 1,1,2
 466 530 466 530 462 512 c 128,-1,3
 458 494 458 494 458 473 c 0,4,5
 458 445 458 445 471 406 c 128,-1,6
 484 367 484 367 497 321.5 c 128,-1,7
 510 276 510 276 510 227 c 0,8,9
 510 160 510 160 482.5 106.5 c 128,-1,10
 455 53 455 53 404.5 21.5 c 128,-1,11
 354 -10 354 -10 284 -10 c 0,12,13
 195 -10 195 -10 131 47 c 128,-1,14
 67 104 67 104 19 194 c 1,15,-1
 83 234 l 1,16,17
 127 157 127 157 177 110.5 c 128,-1,18
 227 64 227 64 284 64 c 0,19,20
 329 64 329 64 361.5 87 c 128,-1,21
 394 110 394 110 412 149 c 128,-1,22
 430 188 430 188 430 236 c 0,23,24
 430 281 430 281 417 320 c 128,-1,25
 404 359 404 359 391 396.5 c 128,-1,26
 378 434 378 434 378 474 c 0,27,28
 378 492 378 492 381.5 511 c 128,-1,29
 385 530 385 530 393 551 c 1,30,-1
 0 551 l 1,31,-1
 0 622 l 1,32,-1
 580 622 l 1,33,-1
 580 551 l 1,0,-1
EndSplineSet
Substitution2: "Single Substitution lookup 19 subtable" Ra.alt6
Substitution2: "Single Substitution lookup 18 subtable" Ra.alt5
Substitution2: "Single Substitution lookup 17 subtable" Ra.alt4
Substitution2: "Single Substitution lookup 16 subtable" Ra.alt3
Substitution2: "Single Substitution lookup 15 subtable" Ra.alt2
Substitution2: "Single Substitution lookup 14 subtable" Ra.alt
EndChar

StartChar: La
Encoding: 71209 71209 59
Width: 622
GlyphClass: 2
Flags: W
HStem: -10 72<237.846 384.669> 551 71<0 79 151.264 470.069 543 632>
VStem: 60 80<406.842 550.343> 130 80<82.2466 180.986> 412 80<82.0055 180.986> 482 80<407.416 550.467>
AnchorPoint: "+BBEENQQ3BEsEPARPBD0EPQQ+BDUA--6" 311 718 basechar 0
AnchorPoint: "+BBEENQQ3BEsEPARPBD0EPQQ+BDUA--5" 472 718 basechar 0
AnchorPoint: "+BBEENQQ3BEsEPARPBD0EPQQ+BDUA--4" 528 622 basechar 0
AnchorPoint: "+BBEENQQ3BEsEPARPBD0EPQQ+BDUA--3" 311 -70 basechar 0
AnchorPoint: "+BBEENQQ3BEsEPARPBD0EPQQ+BDUA--2" 359 54 basechar 0
AnchorPoint: "+BBEENQQ3BEsEPARPBD0EPQQ+BDUA--1" 301 -80 basechar 0
AnchorPoint: "+BBEENQQ3BEsEPARPBD0EPQQ+BDUA--0" 325 -80 basechar 0
LayerCount: 2
Fore
SplineSet
632 551 m 1,0,-1
 543 551 l 1,1,2
 554 530 554 530 558 505.5 c 128,-1,3
 562 481 562 481 562 457 c 0,4,5
 562 411 562 411 536.5 377.5 c 128,-1,6
 511 344 511 344 471.5 319 c 128,-1,7
 432 294 432 294 388 272 c 1,8,9
 432 245 432 245 462 210.5 c 128,-1,10
 492 176 492 176 492 126 c 0,11,12
 492 71 492 71 449.5 31 c 128,-1,13
 407 -9 407 -9 323 -10 c 2,14,-1
 300 -10 l 2,15,16
 215 -10 215 -10 172.5 30.5 c 128,-1,17
 130 71 130 71 130 126 c 0,18,19
 130 176 130 176 160 210.5 c 128,-1,20
 190 245 190 245 233 272 c 1,21,22
 190 294 190 294 150 319 c 128,-1,23
 110 344 110 344 85 377.5 c 128,-1,24
 60 411 60 411 60 457 c 0,25,26
 60 481 60 481 64 505.5 c 128,-1,27
 68 530 68 530 79 551 c 1,28,-1
 0 551 l 1,29,-1
 0 622 l 1,30,-1
 632 622 l 1,31,-1
 632 551 l 1,0,-1
140 464 m 0,32,33
 140 430 140 430 164.5 403.5 c 128,-1,34
 189 377 189 377 228.5 356 c 128,-1,35
 268 335 268 335 311 314 c 1,36,37
 354 335 354 335 393 356 c 128,-1,38
 432 377 432 377 457 403.5 c 128,-1,39
 482 430 482 430 482 464 c 0,40,41
 482 490 482 490 475 514 c 128,-1,42
 468 538 468 538 460 551 c 1,43,-1
 162 551 l 1,44,45
 153 538 153 538 146.5 514 c 128,-1,46
 140 490 140 490 140 464 c 0,32,33
412 129 m 256,47,48
 412 163 412 163 383 188 c 128,-1,49
 354 213 354 213 311 235 c 1,50,51
 268 213 268 213 239 188 c 128,-1,52
 210 163 210 163 210 129 c 256,53,54
 210 95 210 95 237 78.5 c 128,-1,55
 264 62 264 62 301 62 c 2,56,-1
 321 62 l 2,57,58
 359 62 359 62 385.5 78.5 c 128,-1,59
 412 95 412 95 412 129 c 256,47,48
EndSplineSet
Substitution2: "Single Substitution lookup 14 subtable" La.alt
EndChar

StartChar: Va
Encoding: 71210 71210 60
Width: 631
GlyphClass: 2
Flags: W
HStem: -10 71<208.589 427.987> 551 71<0 83 160.466 464 540.6 641>
VStem: 60 80<147.3 536.398> 83 82<381.483 551> 438 81<148.589 530.891>
AnchorPoint: "+BBEENQQ3BEsEPARPBD0EPQQ+BDUA--6" 315 718 basechar 0
AnchorPoint: "+BBEENQQ3BEsEPARPBD0EPQQ+BDUA--5" 494 718 basechar 0
AnchorPoint: "+BBEENQQ3BEsEPARPBD0EPQQ+BDUA--4" 546 622 basechar 0
AnchorPoint: "+BBEENQQ3BEsEPARPBD0EPQQ+BDUA--3" 333 -70 basechar 0
AnchorPoint: "+BBEENQQ3BEsEPARPBD0EPQQ+BDUA--2" 356 56 basechar 0
AnchorPoint: "+BBEENQQ3BEsEPARPBD0EPQQ+BDUA--1" 351 -80 basechar 0
AnchorPoint: "+BBEENQQ3BEsEPARPBD0EPQQ+BDUA--0" 473 -80 basechar 0
LayerCount: 2
Fore
SplineSet
0 622 m 1,0,-1
 641 622 l 1,1,-1
 641 551 l 1,2,-1
 546 551 l 1,3,4
 533 502 533 502 526 453 c 128,-1,5
 519 404 519 404 519 355 c 0,6,7
 519 276 519 276 526 222 c 128,-1,8
 533 168 533 168 546.5 131.5 c 128,-1,9
 560 95 560 95 578 66 c 1,10,11
 589 57 589 57 601 43 c 128,-1,12
 613 29 613 29 627 9 c 1,13,-1
 553 -21 l 1,14,15
 530 2 530 2 520 11 c 128,-1,16
 510 20 510 20 490 20 c 0,17,18
 460 20 460 20 431 12.5 c 128,-1,19
 402 5 402 5 367 -2.5 c 128,-1,20
 332 -10 332 -10 284 -10 c 0,21,22
 218 -10 218 -10 174.5 16 c 128,-1,23
 131 42 131 42 106 86 c 128,-1,24
 81 130 81 130 70.5 186 c 128,-1,25
 60 242 60 242 60 303 c 0,26,27
 60 343 60 343 63 388.5 c 128,-1,28
 66 434 66 434 71 476.5 c 128,-1,29
 76 519 76 519 83 551 c 1,30,-1
 0 551 l 1,31,-1
 0 622 l 1,0,-1
283 61 m 0,32,33
 320 61 320 61 351.5 67 c 128,-1,34
 383 73 383 73 414 80 c 128,-1,35
 445 87 445 87 479 89 c 1,36,37
 458 135 458 135 448 201 c 128,-1,38
 438 267 438 267 438 352 c 0,39,40
 438 401 438 401 445 451 c 128,-1,41
 452 501 452 501 464 551 c 1,42,-1
 165 551 l 1,43,44
 156 513 156 513 150.5 465 c 128,-1,45
 145 417 145 417 142.5 371.5 c 128,-1,46
 140 326 140 326 140 296 c 0,47,48
 140 256 140 256 145 214.5 c 128,-1,49
 150 173 150 173 165 138.5 c 128,-1,50
 180 104 180 104 208.5 82.5 c 128,-1,51
 237 61 237 61 283 61 c 0,32,33
EndSplineSet
Substitution2: "Single Substitution lookup 14 subtable" Va.alt
EndChar

StartChar: Sha
Encoding: 71211 71211 61
Width: 606
GlyphClass: 2
Flags: W
HStem: -10 72<149.061 318.929> 0 21G<446 526> 551 71<0 124 204 446 526 616>
VStem: 50 80<76.0107 176.766> 124 80<476.927 551> 210 80<315.434 400.23> 446 80<0 551>
AnchorPoint: "+BBEENQQ3BEsEPARPBD0EPQQ+BDUA--5" 481 718 basechar 0
AnchorPoint: "+BBEENQQ3BEsEPARPBD0EPQQ+BDUA--4" 526 622 basechar 0
AnchorPoint: "+BBEENQQ3BEsEPARPBD0EPQQ+BDUA--2" 446 55 basechar 0
AnchorPoint: "+BBEENQQ3BEsEPARPBD0EPQQ+BDUA--1" 303 -80 basechar 0
AnchorPoint: "+BBEENQQ3BEsEPARPBD0EPQQ+BDUA--0" 446 0 basechar 0
LayerCount: 2
Fore
SplineSet
526 0 m 1,0,-1
 446 0 l 1,1,-1
 446 551 l 1,2,-1
 204 551 l 1,3,-1
 204 478 l 1,4,5
 245 467 245 467 267.5 437 c 128,-1,6
 290 407 290 407 290 369 c 256,7,8
 290 331 290 331 274 303 c 128,-1,9
 258 275 258 275 234 253 c 128,-1,10
 210 231 210 231 186 211 c 128,-1,11
 162 191 162 191 146 169.5 c 128,-1,12
 130 148 130 148 130 121 c 0,13,14
 130 87 130 87 154.5 74.5 c 128,-1,15
 179 62 179 62 212 62 c 0,16,17
 244 62 244 62 277.5 70.5 c 128,-1,18
 311 79 311 79 328 88 c 1,19,-1
 347 19 l 1,20,21
 320 6 320 6 284 -2 c 128,-1,22
 248 -10 248 -10 210 -10 c 0,23,24
 169 -10 169 -10 132.5 2 c 128,-1,25
 96 14 96 14 73 42.5 c 128,-1,26
 50 71 50 71 50 119 c 0,27,28
 50 156 50 156 66 185 c 128,-1,29
 82 214 82 214 106 237 c 128,-1,30
 130 260 130 260 154 280.5 c 128,-1,31
 178 301 178 301 194 322.5 c 128,-1,32
 210 344 210 344 210 369 c 0,33,34
 210 385 210 385 195 398 c 128,-1,35
 180 411 180 411 153 411 c 0,36,37
 136 411 136 411 114 404 c 128,-1,38
 92 397 92 397 66 382 c 1,39,-1
 38 448 l 1,40,41
 84 475 84 475 124 482 c 1,42,-1
 124 551 l 1,43,-1
 0 551 l 1,44,-1
 0 622 l 1,45,-1
 616 622 l 1,46,-1
 616 551 l 1,47,-1
 526 551 l 1,48,-1
 526 0 l 1,0,-1
EndSplineSet
EndChar

StartChar: Ssa
Encoding: 71212 71212 62
Width: 587
GlyphClass: 2
Flags: W
HStem: 0 21G<427 507> 146 71<192.181 358.173> 551 71<0 80 205 427 507 597>
VStem: 80 80<249.352 507> 427 80<0 196 308 551>
AnchorPoint: "+BBEENQQ3BEsEPARPBD0EPQQ+BDUA--5" 462 718 basechar 0
AnchorPoint: "+BBEENQQ3BEsEPARPBD0EPQQ+BDUA--4" 507 622 basechar 0
AnchorPoint: "+BBEENQQ3BEsEPARPBD0EPQQ+BDUA--2" 427 140 basechar 0
AnchorPoint: "+BBEENQQ3BEsEPARPBD0EPQQ+BDUA--0" 427 0 basechar 0
LayerCount: 2
Fore
SplineSet
507 0 m 1,0,-1
 427 0 l 1,1,-1
 427 196 l 1,2,3
 378 165 378 165 331 155.5 c 128,-1,4
 284 146 284 146 255 146 c 0,5,6
 191 146 191 146 152.5 173.5 c 128,-1,7
 114 201 114 201 97 249 c 128,-1,8
 80 297 80 297 80 358 c 2,9,-1
 80 551 l 1,10,-1
 0 551 l 1,11,-1
 0 622 l 1,12,-1
 597 622 l 1,13,-1
 597 551 l 1,14,-1
 507 551 l 1,15,-1
 507 0 l 1,0,-1
205 551 m 1,16,-1
 427 308 l 1,17,-1
 427 551 l 1,18,-1
 205 551 l 1,16,-1
263 217 m 0,19,20
 280 217 280 217 316 224.5 c 128,-1,21
 352 232 352 232 388 255 c 1,22,-1
 160 507 l 1,23,-1
 160 355 l 2,24,25
 160 331 160 331 162.5 307 c 128,-1,26
 165 283 165 283 174 262.5 c 128,-1,27
 183 242 183 242 204.5 229.5 c 128,-1,28
 226 217 226 217 263 217 c 0,19,20
EndSplineSet
EndChar

StartChar: Sa
Encoding: 71213 71213 63
Width: 648
GlyphClass: 2
Flags: W
HStem: -10 74<244.005 405.593> 322 70<396.872 506.593> 533 89<393.988 482.917> 551 71<0 107 183.381 335 544 658>
VStem: 80 80<170.033 523.203> 107 83<458.316 551> 308 70<410.392 515.656>
AnchorPoint: "+BBEENQQ3BEsEPARPBD0EPQQ+BDUA--6" 324 718 basechar 0
AnchorPoint: "+BBEENQQ3BEsEPARPBD0EPQQ+BDUA--5" 492 718 basechar 0
AnchorPoint: "+BBEENQQ3BEsEPARPBD0EPQQ+BDUA--4" 524 622 basechar 0
AnchorPoint: "+BBEENQQ3BEsEPARPBD0EPQQ+BDUA--3" 323 -70 basechar 0
AnchorPoint: "+BBEENQQ3BEsEPARPBD0EPQQ+BDUA--2" 359 54 basechar 0
AnchorPoint: "+BBEENQQ3BEsEPARPBD0EPQQ+BDUA--1" 325 -80 basechar 0
AnchorPoint: "+BBEENQQ3BEsEPARPBD0EPQQ+BDUA--0" 325 -80 basechar 0
LayerCount: 2
Fore
SplineSet
0 622 m 1,0,-1
 658 622 l 1,1,-1
 658 551 l 1,2,-1
 544 551 l 1,3,4
 588 495 588 495 588 388 c 0,5,6
 588 307 588 307 574 235 c 128,-1,7
 560 163 560 163 529.5 108 c 128,-1,8
 499 53 499 53 448.5 21.5 c 128,-1,9
 398 -10 398 -10 325 -10 c 0,10,11
 258 -10 258 -10 211 16 c 128,-1,12
 164 42 164 42 135 86.5 c 128,-1,13
 106 131 106 131 93 186.5 c 128,-1,14
 80 242 80 242 80 301 c 2,15,-1
 80 339 l 2,16,17
 80 397 80 397 86.5 450.5 c 128,-1,18
 93 504 93 504 107 551 c 1,19,-1
 0 551 l 1,20,-1
 0 622 l 1,0,-1
308 462 m 0,21,22
 308 488 308 488 315 510.5 c 128,-1,23
 322 533 322 533 335 551 c 1,24,-1
 190 551 l 1,25,26
 175 505 175 505 167.5 453.5 c 128,-1,27
 160 402 160 402 160 352 c 2,28,-1
 160 302 l 2,29,30
 160 259 160 259 168.5 216.5 c 128,-1,31
 177 174 177 174 195.5 139.5 c 128,-1,32
 214 105 214 105 246 84.5 c 128,-1,33
 278 64 278 64 324 64 c 0,34,35
 377 64 377 64 411 89.5 c 128,-1,36
 445 115 445 115 465.5 156 c 128,-1,37
 486 197 486 197 495 245 c 128,-1,38
 504 293 504 293 507 337 c 1,39,40
 494 330 494 330 478 326 c 128,-1,41
 462 322 462 322 445 322 c 0,42,43
 407 322 407 322 375.5 341 c 128,-1,44
 344 360 344 360 326 392 c 128,-1,45
 308 424 308 424 308 462 c 0,21,22
447 392 m 0,46,47
 465 392 465 392 480 398 c 128,-1,48
 495 404 495 404 508 414 c 1,49,50
 505 473 505 473 488.5 503 c 128,-1,51
 472 533 472 533 438 533 c 0,52,53
 409 533 409 533 393.5 512.5 c 128,-1,54
 378 492 378 492 378 461 c 0,55,56
 378 437 378 437 389.5 421.5 c 128,-1,57
 401 406 401 406 417.5 399 c 128,-1,58
 434 392 434 392 447 392 c 0,46,47
EndSplineSet
Substitution2: "Single Substitution lookup 14 subtable" Sa.alt
EndChar

StartChar: Ha
Encoding: 71214 71214 64
Width: 633
GlyphClass: 2
Flags: W
HStem: -10 74<208.719 385.483> 551 71<0 36.8242 114 473 553 643>
VStem: 60 80<132.326 289.839> 473 80<168.844 551>
AnchorPoint: "+BBEENQQ3BEsEPARPBD0EPQQ+BDUA--6" 316 718 basechar 0
AnchorPoint: "+BBEENQQ3BEsEPARPBD0EPQQ+BDUA--5" 508 718 basechar 0
AnchorPoint: "+BBEENQQ3BEsEPARPBD0EPQQ+BDUA--4" 553 622 basechar 0
AnchorPoint: "+BBEENQQ3BEsEPARPBD0EPQQ+BDUA--3" 312 -70 basechar 0
AnchorPoint: "+BBEENQQ3BEsEPARPBD0EPQQ+BDUA--2" 335 54 basechar 0
AnchorPoint: "+BBEENQQ3BEsEPARPBD0EPQQ+BDUA--1" 315 -80 basechar 0
AnchorPoint: "+BBEENQQ3BEsEPARPBD0EPQQ+BDUA--0" 295 -80 basechar 0
LayerCount: 2
Fore
SplineSet
643 551 m 1,0,-1
 553 551 l 1,1,-1
 553 301 l 2,2,3
 553 243 553 243 540 187.5 c 128,-1,4
 527 132 527 132 497.5 87.5 c 128,-1,5
 468 43 468 43 418.5 16.5 c 128,-1,6
 369 -10 369 -10 295 -10 c 0,7,8
 223 -10 223 -10 170 21 c 128,-1,9
 117 52 117 52 88.5 102 c 128,-1,10
 60 152 60 152 60 209 c 0,11,12
 60 252 60 252 77 294.5 c 128,-1,13
 94 337 94 337 129 373 c 1,14,15
 94 415 94 415 68 465 c 128,-1,16
 42 515 42 515 28 551 c 1,17,-1
 0 551 l 1,18,-1
 0 622 l 1,19,-1
 643 622 l 1,20,-1
 643 551 l 1,0,-1
473 551 m 1,21,-1
 114 551 l 1,22,23
 121 530 121 530 135 502.5 c 128,-1,24
 149 475 149 475 166 447.5 c 128,-1,25
 183 420 183 420 200 397.5 c 128,-1,26
 217 375 217 375 229 363 c 1,27,28
 184 331 184 331 162 290.5 c 128,-1,29
 140 250 140 250 140 210 c 0,30,31
 140 171 140 171 158.5 137.5 c 128,-1,32
 177 104 177 104 212 84 c 128,-1,33
 247 64 247 64 295 64 c 0,34,35
 361 64 361 64 400 96 c 128,-1,36
 439 128 439 128 456 182 c 128,-1,37
 473 236 473 236 473 302 c 2,38,-1
 473 551 l 1,21,-1
EndSplineSet
Substitution2: "Single Substitution lookup 14 subtable" Ha.alt
EndChar

StartChar: Lla
Encoding: 71215 71215 65
Width: 782
GlyphClass: 2
Flags: W
HStem: -10 71<163.009 282.723 500.923 620.462> 327 71<161.532 281.15 500.897 622.004> 551 71<0 350 432 792>
VStem: 40 80<106.147 282.926> 350 82<341 551> 662 80<104.929 286.604>
CounterMasks: 1 1c
AnchorPoint: "+BBEENQQ3BEsEPARPBD0EPQQ+BDUA--6" 391 718 basechar 0
AnchorPoint: "+BBEENQQ3BEsEPARPBD0EPQQ+BDUA--5" 634 718 basechar 0
AnchorPoint: "+BBEENQQ3BEsEPARPBD0EPQQ+BDUA--4" 432 622 basechar 0
AnchorPoint: "+BBEENQQ3BEsEPARPBD0EPQQ+BDUA--3" 391 -80 basechar 0
AnchorPoint: "+BBEENQQ3BEsEPARPBD0EPQQ+BDUA--2" 575 50 basechar 0
AnchorPoint: "+BBEENQQ3BEsEPARPBD0EPQQ+BDUA--1" 391 -80 basechar 0
AnchorPoint: "+BBEENQQ3BEsEPARPBD0EPQQ+BDUA--0" 555 -80 basechar 0
LayerCount: 2
Fore
SplineSet
792 551 m 1,0,-1
 432 551 l 1,1,-1
 432 337 l 1,2,3
 462 374 462 374 494.5 386 c 128,-1,4
 527 398 527 398 564 398 c 0,5,6
 628 398 628 398 667 368 c 128,-1,7
 706 338 706 338 724 291 c 128,-1,8
 742 244 742 244 742 193 c 0,9,10
 742 136 742 136 719 90 c 128,-1,11
 696 44 696 44 654 17 c 128,-1,12
 612 -10 612 -10 556 -10 c 0,13,14
 533 -10 533 -10 505.5 -3 c 128,-1,15
 478 4 478 4 449 28.5 c 128,-1,16
 420 53 420 53 391 105 c 1,17,18
 356 40 356 40 314 15 c 128,-1,19
 272 -10 272 -10 222 -10 c 0,20,21
 174 -10 174 -10 132.5 14 c 128,-1,22
 91 38 91 38 65.5 83.5 c 128,-1,23
 40 129 40 129 40 195 c 0,24,25
 40 287 40 287 87.5 342.5 c 128,-1,26
 135 398 135 398 214 398 c 0,27,28
 256 398 256 398 289.5 384.5 c 128,-1,29
 323 371 323 371 350 341 c 1,30,-1
 350 551 l 1,31,-1
 0 551 l 1,32,-1
 0 622 l 1,33,-1
 792 622 l 1,34,-1
 792 551 l 1,0,-1
224 61 m 0,35,36
 262 61 262 61 291 90 c 128,-1,37
 320 119 320 119 348 181 c 2,38,-1
 353 192 l 1,39,40
 334 248 334 248 310 277 c 128,-1,41
 286 306 286 306 263.5 316.5 c 128,-1,42
 241 327 241 327 225 327 c 0,43,44
 180 327 180 327 150 294.5 c 128,-1,45
 120 262 120 262 120 191 c 0,46,47
 120 145 120 145 135.5 116.5 c 128,-1,48
 151 88 151 88 175 74.5 c 128,-1,49
 199 61 199 61 224 61 c 0,35,36
430 189 m 1,50,51
 456 131 456 131 479.5 104 c 128,-1,52
 503 77 503 77 522.5 69 c 128,-1,53
 542 61 542 61 555 61 c 0,54,55
 604 61 604 61 633 95 c 128,-1,56
 662 129 662 129 662 196 c 0,57,58
 662 267 662 267 632 297 c 128,-1,59
 602 327 602 327 557 327 c 0,60,61
 520 327 520 327 493.5 298 c 128,-1,62
 467 269 467 269 438 206 c 2,63,-1
 430 189 l 1,50,51
EndSplineSet
EndChar

StartChar: AA_dv
Encoding: 71216 71216 66
Width: 240
GlyphClass: 2
Flags: W
HStem: 0 21G<80 160> 551 71<0 80 160 250>
VStem: 80 80<0 551>
AnchorPoint: "+BBEENQQ3BEsEPARPBD0EPQQ+BDUA--6" -74 880 basechar 0
AnchorPoint: "+BBEENQQ3BEsEPARPBD0EPQQ+BDUA--5" 115 718 basechar 0
LayerCount: 2
Fore
SplineSet
160 0 m 1,0,-1
 80 0 l 1,1,-1
 80 551 l 1,2,-1
 0 551 l 1,3,-1
 0 622 l 1,4,-1
 250 622 l 1,5,-1
 250 551 l 1,6,-1
 160 551 l 1,7,-1
 160 0 l 1,0,-1
EndSplineSet
Substitution2: "Single Substitution lookup 14 subtable" AA_dv.alt
EndChar

StartChar: I_dv
Encoding: 71217 71217 67
Width: 240
GlyphClass: 2
Flags: W
HStem: 0 21G<80 160> 551 71<-30 75 160 250> 806 72<-104.768 -9.97406>
VStem: -200 80<613.189 786.66> 80 80<0 551>
AnchorPoint: "+BBEENQQ3BEsEPARPBD0EPQQ+BDUA--6" 230 806 basechar 0
AnchorPoint: "+BBEENQQ3BEsEPARPBD0EPQQ+BDUA--5" 195 758 basechar 0
LayerCount: 2
Fore
SplineSet
-30 622 m 1,0,-1
 75 622 l 1,1,2
 56 674 56 674 36.5 715.5 c 128,-1,3
 17 757 17 757 -6.5 781.5 c 128,-1,4
 -30 806 -30 806 -62 806 c 0,5,6
 -93 806 -93 806 -106.5 781.5 c 128,-1,7
 -120 757 -120 757 -120 719 c 0,8,9
 -120 687 -120 687 -113.5 661 c 128,-1,10
 -107 635 -107 635 -98 612 c 1,11,-1
 -180 612 l 1,12,13
 -200 665 -200 665 -200 724 c 0,14,15
 -200 792 -200 792 -164 835 c 128,-1,16
 -128 878 -128 878 -68 878 c 0,17,18
 11 878 11 878 62.5 815.5 c 128,-1,19
 114 753 114 753 154 622 c 1,20,-1
 250 622 l 1,21,-1
 250 551 l 1,22,-1
 160 551 l 1,23,-1
 160 0 l 1,24,-1
 80 0 l 1,25,-1
 80 551 l 1,26,-1
 -30 551 l 1,27,-1
 -30 622 l 1,0,-1
EndSplineSet
Substitution2: "Single Substitution lookup 17 subtable" U.alt4
Substitution2: "Single Substitution lookup 8 subtable" I.lg
Substitution2: "Single Substitution lookup 7 subtable" I.med
EndChar

StartChar: II_dv
Encoding: 71218 71218 68
Width: 326
GlyphClass: 2
Flags: W
HStem: -10 71<137.683 183.191> 551 71<-30 130 234 336> 805 73<-104.067 20.2529>
VStem: -199 78<615.196 784.928> 46 80<66.0035 286.046> 197 80<68.7793 358.653>
AnchorPoint: "+BBEENQQ3BEsEPARPBD0EPQQ+BDUA--6" 264 806 basechar 0
AnchorPoint: "+BBEENQQ3BEsEPARPBD0EPQQ+BDUA--5" 242 758 basechar 0
LayerCount: 2
Fore
SplineSet
-30 622 m 1,0,-1
 130 622 l 1,1,2
 101 701 101 701 55 753 c 128,-1,3
 9 805 9 805 -53 805 c 0,4,5
 -91 805 -91 805 -106 781 c 128,-1,6
 -121 757 -121 757 -121 723 c 0,7,8
 -121 695 -121 695 -114 666 c 128,-1,9
 -107 637 -107 637 -98 612 c 1,10,-1
 -180 612 l 1,11,12
 -199 664 -199 664 -199 718 c 0,13,14
 -199 760 -199 760 -185.5 796.5 c 128,-1,15
 -172 833 -172 833 -141.5 855.5 c 128,-1,16
 -111 878 -111 878 -61 878 c 0,17,18
 8 878 8 878 60.5 843.5 c 128,-1,19
 113 809 113 809 151 751 c 128,-1,20
 189 693 189 693 213 622 c 1,21,-1
 336 622 l 1,22,-1
 336 551 l 1,23,-1
 234 551 l 1,24,25
 257 463 257 463 267 370.5 c 128,-1,26
 277 278 277 278 277 207 c 0,27,28
 277 169 277 169 272 131 c 128,-1,29
 267 93 267 93 254.5 61 c 128,-1,30
 242 29 242 29 218.5 9.5 c 128,-1,31
 195 -10 195 -10 158 -10 c 0,32,33
 103 -10 103 -10 74.5 36 c 128,-1,34
 46 82 46 82 46 161 c 0,35,36
 46 246 46 246 82.5 321.5 c 128,-1,37
 119 397 119 397 175 455 c 1,38,39
 171 479 171 479 165.5 503.5 c 128,-1,40
 160 528 160 528 153 551 c 1,41,-1
 -30 551 l 1,42,-1
 -30 622 l 1,0,-1
197 198 m 0,43,44
 197 274 197 274 188 361 c 1,45,46
 126 275 126 275 126 161 c 0,47,48
 126 119 126 119 134.5 90 c 128,-1,49
 143 61 143 61 160 61 c 0,50,51
 180 61 180 61 188.5 100 c 128,-1,52
 197 139 197 139 197 198 c 0,43,44
EndSplineSet
Substitution2: "Single Substitution lookup 16 subtable" UU.alt3
Substitution2: "Single Substitution lookup 8 subtable" II.lg
Substitution2: "Single Substitution lookup 7 subtable" II.med
EndChar

StartChar: U_dv
Encoding: 71219 71219 69
Width: 0
GlyphClass: 4
Flags: W
HStem: -270 68<-264.989 -79.2064> -98 68<-212.251 -71.4816>
VStem: -61 78<-185.602 -110.662>
AnchorPoint: "+BBEENQQ3BEsEPARPBD0EPQQ+BDUA--0" -159 -50 mark 0
LayerCount: 2
Fore
SplineSet
-442 -144 m 1,0,-1
 -387 -99 l 1,1,2
 -332 -152 -332 -152 -273.5 -177 c 128,-1,3
 -215 -202 -215 -202 -151 -202 c 0,4,5
 -103 -202 -103 -202 -82 -185.5 c 128,-1,6
 -61 -169 -61 -169 -61 -147 c 0,7,8
 -61 -127 -61 -127 -73.5 -116.5 c 128,-1,9
 -86 -106 -86 -106 -102.5 -102 c 128,-1,10
 -119 -98 -119 -98 -131 -98 c 0,11,12
 -150 -98 -150 -98 -169.5 -102 c 128,-1,13
 -189 -106 -189 -106 -213 -117 c 1,14,-1
 -239 -51 l 1,15,16
 -213 -40 -213 -40 -189 -35 c 128,-1,17
 -165 -30 -165 -30 -131 -30 c 0,18,19
 -68 -30 -68 -30 -25.5 -60.5 c 128,-1,20
 17 -91 17 -91 17 -150 c 0,21,22
 17 -199 17 -199 -24 -234.5 c 128,-1,23
 -65 -270 -65 -270 -149 -270 c 0,24,25
 -242 -270 -242 -270 -312.5 -237.5 c 128,-1,26
 -383 -205 -383 -205 -442 -144 c 1,0,-1
EndSplineSet
Substitution2: "Single Substitution lookup 17 subtable" U.alt4
Substitution2: "Single Substitution lookup 16 subtable" U.alt3
Substitution2: "Single Substitution lookup 14 subtable" UU.alt3
EndChar

StartChar: UU_dv
Encoding: 71220 71220 70
Width: 0
GlyphClass: 4
Flags: W
HStem: -270 68<-231.108 -92.7489> -98 68<-224.812 -61.8281>
VStem: -322 78<-187.401 -114.584>
AnchorPoint: "+BBEENQQ3BEsEPARPBD0EPQQ+BDUA--0" -179 -50 mark 0
LayerCount: 2
Fore
SplineSet
159 -188 m 1,0,-1
 102 -237 l 1,1,2
 66 -201 66 -201 22.5 -169.5 c 128,-1,3
 -21 -138 -21 -138 -66 -118 c 128,-1,4
 -111 -98 -111 -98 -154 -98 c 0,5,6
 -202 -98 -202 -98 -223 -114.5 c 128,-1,7
 -244 -131 -244 -131 -244 -154 c 0,8,9
 -244 -174 -244 -174 -231.5 -184.5 c 128,-1,10
 -219 -195 -219 -195 -202 -198.5 c 128,-1,11
 -185 -202 -185 -202 -174 -202 c 0,12,13
 -155 -202 -155 -202 -135.5 -198 c 128,-1,14
 -116 -194 -116 -194 -92 -183 c 1,15,-1
 -66 -249 l 1,16,17
 -92 -259 -92 -259 -115 -264.5 c 128,-1,18
 -138 -270 -138 -270 -167 -270 c 0,19,20
 -235 -270 -235 -270 -278.5 -239.5 c 128,-1,21
 -322 -209 -322 -209 -322 -151 c 0,22,23
 -322 -101 -322 -101 -281 -65.5 c 128,-1,24
 -240 -30 -240 -30 -156 -30 c 0,25,26
 -94 -30 -94 -30 -36.5 -52.5 c 128,-1,27
 21 -75 21 -75 70.5 -111 c 128,-1,28
 120 -147 120 -147 159 -188 c 1,0,-1
EndSplineSet
Substitution2: "Single Substitution lookup 23 subtable" U_dv
Substitution2: "Single Substitution lookup 16 subtable" UU.alt3
Substitution2: "Single Substitution lookup 14 subtable" UU.alt1
EndChar

StartChar: VocR_dv
Encoding: 71221 71221 71
Width: 0
GlyphClass: 4
Flags: W
HStem: -270 68<-137.438 24.1619> -85 65<-125.14 -64>
VStem: -232 78<-186.284 -111.417>
AnchorPoint: "+BBEENQQ3BEsEPARPBD0EPQQ+BDUA--0" -143 -50 mark 0
LayerCount: 2
Fore
SplineSet
18 -185 m 1,0,-1
 39 -247 l 1,1,2
 19 -255 19 -255 -14 -262.5 c 128,-1,3
 -47 -270 -47 -270 -82 -270 c 0,4,5
 -154 -270 -154 -270 -193 -234.5 c 128,-1,6
 -232 -199 -232 -199 -232 -150 c 0,7,8
 -232 -114 -232 -114 -209 -84.5 c 128,-1,9
 -186 -55 -186 -55 -147.5 -37.5 c 128,-1,10
 -109 -20 -109 -20 -64 -20 c 1,11,-1
 -57 -85 l 1,12,13
 -68 -85 -68 -85 -91.5 -92 c 128,-1,14
 -115 -99 -115 -99 -134.5 -113 c 128,-1,15
 -154 -127 -154 -127 -154 -147 c 0,16,17
 -154 -169 -154 -169 -135 -185.5 c 128,-1,18
 -116 -202 -116 -202 -81 -202 c 0,19,20
 -54 -202 -54 -202 -29.5 -197 c 128,-1,21
 -5 -192 -5 -192 18 -185 c 1,0,-1
EndSplineSet
EndChar

StartChar: VocRR_dv
Encoding: 71222 71222 72
Width: 0
GlyphClass: 4
Flags: W
HStem: -400 68<-120.628 18.6403> -247 68<-121.812 -23.5629> -85 60<-146.368 -84>
VStem: -239 72<-169.54 -103.117> -209 72<-318.201 -246.233>
AnchorPoint: "+BBEENQQ3BEsEPARPBD0EPQQ+BDUA--0" -163 -50 mark 0
LayerCount: 2
Fore
SplineSet
-23 -164 m 1,0,-1
 -3 -229 l 1,1,2
 -51 -247 -51 -247 -96 -247 c 0,3,4
 -103 -247 -103 -247 -109.5 -247 c 128,-1,5
 -116 -247 -116 -247 -122 -246 c 1,6,7
 -137 -259 -137 -259 -137 -280 c 0,8,9
 -137 -305 -137 -305 -116 -318.5 c 128,-1,10
 -95 -332 -95 -332 -67 -332 c 0,11,12
 -40 -332 -40 -332 -17.5 -325 c 128,-1,13
 5 -318 5 -318 25 -307 c 1,14,-1
 50 -372 l 1,15,16
 -5 -400 -5 -400 -74 -400 c 0,17,18
 -135 -400 -135 -400 -172 -368.5 c 128,-1,19
 -209 -337 -209 -337 -209 -285 c 0,20,21
 -209 -250 -209 -250 -190 -225 c 1,22,23
 -239 -196 -239 -196 -239 -140 c 0,24,25
 -239 -96 -239 -96 -202 -62.5 c 128,-1,26
 -165 -29 -165 -29 -84 -25 c 1,27,-1
 -79 -85 l 1,28,29
 -127 -89 -127 -89 -147 -103.5 c 128,-1,30
 -167 -118 -167 -118 -167 -136 c 0,31,32
 -167 -161 -167 -161 -146.5 -170 c 128,-1,33
 -126 -179 -126 -179 -101 -179 c 0,34,35
 -80 -179 -80 -179 -60.5 -175.5 c 128,-1,36
 -41 -172 -41 -172 -23 -164 c 1,0,-1
EndSplineSet
EndChar

StartChar: VocL_dv
Encoding: 71223 71223 73
Width: 0
GlyphClass: 4
Flags: W
HStem: -400 68<-79.9096 25.0411> -98 68<-323.966 -250.794 -155.99 -80.6586>
VStem: -406 72<-227.478 -110.184> -231 59<-166 -113.99> -154 72<-327.058 -257.366> -71 72<-192.406 -106.22>
AnchorPoint: "+BBEENQQ3BEsEPARPBD0EPQQ+BDUA--1" -202 -50 mark 0
AnchorPoint: "+BBEENQQ3BEsEPARPBD0EPQQ+BDUA--0" -146 -50 mark 0
LayerCount: 2
Fore
SplineSet
-347 -297 m 1,0,1
 -377 -260 -377 -260 -391.5 -221 c 128,-1,2
 -406 -182 -406 -182 -406 -145 c 0,3,4
 -406 -94 -406 -94 -378 -62 c 128,-1,5
 -350 -30 -350 -30 -293 -30 c 0,6,7
 -270 -30 -270 -30 -245 -41.5 c 128,-1,8
 -220 -53 -220 -53 -202 -78 c 1,9,10
 -185 -55 -185 -55 -159 -42.5 c 128,-1,11
 -133 -30 -133 -30 -102 -30 c 0,12,13
 -59 -30 -59 -30 -29 -57 c 128,-1,14
 1 -84 1 -84 1 -131 c 0,15,16
 1 -171 1 -171 -11.5 -195.5 c 128,-1,17
 -24 -220 -24 -220 -40.5 -236.5 c 128,-1,18
 -57 -253 -57 -253 -69.5 -267.5 c 128,-1,19
 -82 -282 -82 -282 -82 -300 c 256,20,21
 -82 -318 -82 -318 -65.5 -325 c 128,-1,22
 -49 -332 -49 -332 -36 -332 c 0,23,24
 -1 -332 -1 -332 22 -322 c 1,25,-1
 36 -386 l 1,26,27
 21 -392 21 -392 3 -396 c 128,-1,28
 -15 -400 -15 -400 -35 -400 c 0,29,30
 -99 -400 -99 -400 -126.5 -369.5 c 128,-1,31
 -154 -339 -154 -339 -154 -303 c 0,32,33
 -154 -276 -154 -276 -141.5 -255.5 c 128,-1,34
 -129 -235 -129 -235 -112.5 -216.5 c 128,-1,35
 -96 -198 -96 -198 -83.5 -180 c 128,-1,36
 -71 -162 -71 -162 -71 -140 c 0,37,38
 -71 -120 -71 -120 -84.5 -108.5 c 128,-1,39
 -98 -97 -98 -97 -115 -97 c 0,40,41
 -134 -97 -134 -97 -152 -115 c 128,-1,42
 -170 -133 -170 -133 -172 -166 c 1,43,-1
 -231 -166 l 1,44,45
 -238 -129 -238 -129 -253 -113.5 c 128,-1,46
 -268 -98 -268 -98 -289 -98 c 0,47,48
 -311 -98 -311 -98 -322.5 -114.5 c 128,-1,49
 -334 -131 -334 -131 -334 -156 c 0,50,51
 -334 -184 -334 -184 -321.5 -210 c 128,-1,52
 -309 -236 -309 -236 -290 -262 c 1,53,-1
 -347 -297 l 1,0,1
EndSplineSet
EndChar

StartChar: VocLL_dv
Encoding: 71224 71224 74
Width: 0
GlyphClass: 4
Flags: W
HStem: -460 66<-71.6824 35.0409> -340 65<-68.7496 20.0179> -332 59<-25.6561 18.339> -99 69<-323.966 -250.685 -153.575 -78.2354>
VStem: -406 72<-227.478 -110.588> -231 59<-166 -116.535> -144 70<-388.591 -337.325 -270.246 -209.636> -71 72<-167.699 -104.765>
AnchorPoint: "+BBEENQQ3BEsEPARPBD0EPQQ+BDUA--1" -201 -50 mark 0
AnchorPoint: "+BBEENQQ3BEsEPARPBD0EPQQ+BDUA--0" -146 -50 mark 0
LayerCount: 2
Fore
SplineSet
-347 -297 m 1,0,1
 -377 -260 -377 -260 -391.5 -221 c 128,-1,2
 -406 -182 -406 -182 -406 -145 c 0,3,4
 -406 -99 -406 -99 -378 -64.5 c 128,-1,5
 -350 -30 -350 -30 -293 -30 c 0,6,7
 -269 -30 -269 -30 -244 -41.5 c 128,-1,8
 -219 -53 -219 -53 -201 -79 c 1,9,10
 -163 -30 -163 -30 -104 -30 c 0,11,12
 -54 -30 -54 -30 -26.5 -56 c 128,-1,13
 1 -82 1 -82 1 -123 c 0,14,15
 1 -147 1 -147 -10 -164 c 128,-1,16
 -21 -181 -21 -181 -36 -194.5 c 128,-1,17
 -51 -208 -51 -208 -62 -220 c 128,-1,18
 -73 -232 -73 -232 -73 -245 c 0,19,20
 -73 -263 -73 -263 -56 -269 c 128,-1,21
 -39 -275 -39 -275 -26 -275 c 0,22,23
 -15 -275 -15 -275 -3.5 -273 c 128,-1,24
 8 -271 8 -271 18 -268 c 1,25,-1
 28 -332 l 1,26,27
 -2 -340 -2 -340 -35 -340 c 0,28,29
 -52 -340 -52 -340 -66 -337 c 1,30,31
 -74 -350 -74 -350 -74 -362 c 0,32,33
 -74 -380 -74 -380 -57.5 -387 c 128,-1,34
 -41 -394 -41 -394 -28 -394 c 0,35,36
 9 -394 9 -394 32 -384 c 1,37,-1
 46 -446 l 1,38,39
 31 -452 31 -452 13 -456 c 128,-1,40
 -5 -460 -5 -460 -25 -460 c 0,41,42
 -89 -460 -89 -460 -116.5 -429.5 c 128,-1,43
 -144 -399 -144 -399 -144 -363 c 0,44,45
 -144 -346 -144 -346 -138.5 -332.5 c 128,-1,46
 -133 -319 -133 -319 -125 -306 c 1,47,48
 -135 -295 -135 -295 -139 -282 c 128,-1,49
 -143 -269 -143 -269 -143 -258 c 0,50,51
 -143 -231 -143 -231 -132 -213 c 128,-1,52
 -121 -195 -121 -195 -107 -181.5 c 128,-1,53
 -93 -168 -93 -168 -82 -156.5 c 128,-1,54
 -71 -145 -71 -145 -71 -131 c 0,55,56
 -71 -115 -71 -115 -82.5 -107 c 128,-1,57
 -94 -99 -94 -99 -111 -99 c 0,58,59
 -133 -99 -133 -99 -151.5 -116 c 128,-1,60
 -170 -133 -170 -133 -172 -166 c 1,61,-1
 -231 -166 l 1,62,63
 -238 -129 -238 -129 -253 -114 c 128,-1,64
 -268 -99 -268 -99 -289 -99 c 0,65,66
 -311 -99 -311 -99 -322.5 -115 c 128,-1,67
 -334 -131 -334 -131 -334 -156 c 0,68,69
 -334 -184 -334 -184 -321.5 -210 c 128,-1,70
 -309 -236 -309 -236 -290 -262 c 1,71,-1
 -347 -297 l 1,0,1
EndSplineSet
EndChar

StartChar: E_dv
Encoding: 71225 71225 75
Width: 0
GlyphClass: 4
Flags: W
HStem: 781 67<-327 -209.938>
AnchorPoint: "+BBEENQQ3BEsEPARPBD0EPQQ+BDUA--8" 13 758 basemark 0
AnchorPoint: "+BBEENQQ3BEsEPARPBD0EPQQ+BDUA--7" -160 920 basemark 0
AnchorPoint: "+BBEENQQ3BEsEPARPBD0EPQQ+BDUA--4" 0 617 mark 0
LayerCount: 2
Fore
SplineSet
-346 848 m 1,0,1
 -256 848 -256 848 -194 826.5 c 128,-1,2
 -132 805 -132 805 -92.5 770 c 128,-1,3
 -53 735 -53 735 -31 694 c 128,-1,4
 -9 653 -9 653 0 615 c 1,5,-1
 -82 615 l 1,6,7
 -92 645 -92 645 -107 673 c 128,-1,8
 -122 701 -122 701 -148 724 c 128,-1,9
 -174 747 -174 747 -217.5 762 c 128,-1,10
 -261 777 -261 777 -327 781 c 1,11,-1
 -346 848 l 1,0,1
EndSplineSet
EndChar

StartChar: AI_dv
Encoding: 71226 71226 76
Width: 0
GlyphClass: 4
Flags: W
HStem: 725 70<-300.175 -120.102>
AnchorPoint: "+BBEENQQ3BEsEPARPBD0EPQQ+BDUA--8" 63 758 basemark 0
AnchorPoint: "+BBEENQQ3BEsEPARPBD0EPQQ+BDUA--7" -220 900 basemark 0
AnchorPoint: "+BBEENQQ3BEsEPARPBD0EPQQ+BDUA--4" 0 617 mark 0
LayerCount: 2
Fore
SplineSet
-344 847 m 1,0,1
 -319 825 -319 825 -286.5 810 c 128,-1,2
 -254 795 -254 795 -220 795 c 0,3,4
 -171 795 -171 795 -137.5 809 c 128,-1,5
 -104 823 -104 823 -88 836 c 1,6,-1
 -39 819 l 1,7,-1
 0 615 l 1,8,-1
 -79 615 l 1,9,-1
 -102 749 l 1,10,11
 -125 739 -125 739 -154.5 732 c 128,-1,12
 -184 725 -184 725 -215 725 c 0,13,14
 -251 725 -251 725 -300 738.5 c 128,-1,15
 -349 752 -349 752 -393 799 c 1,16,-1
 -344 847 l 1,0,1
EndSplineSet
EndChar

StartChar: O_dv
Encoding: 71227 71227 77
Width: 240
GlyphClass: 2
Flags: W
HStem: 0 21G<80 160> 551 71<0 77 160 250> 781 67<-166 -47.9277>
VStem: 80 80<0 551>
AnchorPoint: "+BBEENQQ3BEsEPARPBD0EPQQ+BDUA--5" 171 758 basechar 0
LayerCount: 2
Fore
SplineSet
160 0 m 1,0,-1
 80 0 l 1,1,-1
 80 551 l 1,2,-1
 0 551 l 1,3,-1
 0 622 l 1,4,-1
 77 622 l 1,5,6
 64 660 64 660 40 694.5 c 128,-1,7
 16 729 16 729 -32 752.5 c 128,-1,8
 -80 776 -80 776 -166 781 c 1,9,-1
 -185 848 l 1,10,11
 -97 848 -97 848 -36 827.5 c 128,-1,12
 25 807 25 807 64.5 773 c 128,-1,13
 104 739 104 739 126.5 699.5 c 128,-1,14
 149 660 149 660 159 622 c 1,15,-1
 250 622 l 1,16,-1
 250 551 l 1,17,-1
 160 551 l 1,18,-1
 160 0 l 1,0,-1
EndSplineSet
MultipleSubs2: "Multiple Substitution lookup 10 subtable" AA_dv.alt E_dv
MultipleSubs2: "Multiple Substitution lookup 9 subtable" AA_dv E_dv
EndChar

StartChar: AU_dv
Encoding: 71228 71228 78
Width: 240
GlyphClass: 2
Flags: W
HStem: 0 21G<80 160> 551 71<0 80 160 250> 725 70<-140.175 39.8977>
VStem: 80 80<0 551 622 657.359>
AnchorPoint: "+BBEENQQ3BEsEPARPBD0EPQQ+BDUA--5" 228 758 basechar 0
LayerCount: 2
Fore
SplineSet
160 0 m 1,0,-1
 80 0 l 1,1,-1
 80 551 l 1,2,-1
 0 551 l 1,3,-1
 0 622 l 1,4,-1
 80 622 l 1,5,-1
 58 749 l 1,6,7
 35 739 35 739 5.5 732 c 128,-1,8
 -24 725 -24 725 -55 725 c 0,9,10
 -91 725 -91 725 -140 738.5 c 128,-1,11
 -189 752 -189 752 -233 799 c 1,12,-1
 -184 847 l 1,13,14
 -159 825 -159 825 -126.5 810 c 128,-1,15
 -94 795 -94 795 -60 795 c 0,16,17
 -11 795 -11 795 22.5 809 c 128,-1,18
 56 823 56 823 72 836 c 1,19,-1
 121 819 l 1,20,-1
 159 622 l 1,21,-1
 250 622 l 1,22,-1
 250 551 l 1,23,-1
 160 551 l 1,24,-1
 160 0 l 1,0,-1
EndSplineSet
MultipleSubs2: "Multiple Substitution lookup 10 subtable" AA_dv.alt AI_dv
MultipleSubs2: "Multiple Substitution lookup 9 subtable" AA_dv AI_dv
EndChar

StartChar: Anusvara
Encoding: 71229 71229 79
Width: 0
GlyphClass: 4
Flags: W
HStem: 680 110<-36.0143 36.0143>
VStem: -52 104<690.893 773.498>
AnchorPoint: "+BBEENQQ3BEsEPARPBD0EPQQ+BDUA--8" 0 680 mark 0
AnchorPoint: "+BBEENQQ3BEsEPARPBD0EPQQ+BDUA--5" 0 680 mark 0
LayerCount: 2
Fore
SplineSet
0 790 m 256,0,1
 21 790 21 790 36.5 774 c 128,-1,2
 52 758 52 758 52 735 c 0,3,4
 52 713 52 713 36.5 696.5 c 128,-1,5
 21 680 21 680 0 680 c 256,6,7
 -21 680 -21 680 -36.5 696.5 c 128,-1,8
 -52 713 -52 713 -52 735 c 0,9,10
 -52 758 -52 758 -36.5 774 c 128,-1,11
 -21 790 -21 790 0 790 c 256,0,1
EndSplineSet
EndChar

StartChar: Visarga
Encoding: 71230 71230 80
Width: 316
GlyphClass: 2
Flags: W
HStem: -10 123<114.872 201.128> 377 123<114.872 201.128>
VStem: 100 116<4.16406 99.2188 391.164 486.219>
LayerCount: 2
Fore
SplineSet
158 500 m 256,0,1
 181 500 181 500 198.5 482 c 128,-1,2
 216 464 216 464 216 438 c 0,3,4
 216 414 216 414 198.5 395.5 c 128,-1,5
 181 377 181 377 158 377 c 256,6,7
 135 377 135 377 117.5 395.5 c 128,-1,8
 100 414 100 414 100 438 c 0,9,10
 100 464 100 464 117.5 482 c 128,-1,11
 135 500 135 500 158 500 c 256,0,1
158 113 m 256,12,13
 181 113 181 113 198.5 95 c 128,-1,14
 216 77 216 77 216 51 c 0,15,16
 216 27 216 27 198.5 8.5 c 128,-1,17
 181 -10 181 -10 158 -10 c 256,18,19
 135 -10 135 -10 117.5 8.5 c 128,-1,20
 100 27 100 27 100 51 c 0,21,22
 100 77 100 77 117.5 95 c 128,-1,23
 135 113 135 113 158 113 c 256,12,13
EndSplineSet
EndChar

StartChar: Virama
Encoding: 71231 71231 81
Width: 0
GlyphClass: 4
Flags: W
HStem: -249 199
VStem: -254 289
AnchorPoint: "+BBEENQQ3BEsEPARPBD0EPQQ+BDUA--0" -129 -50 mark 0
LayerCount: 2
Fore
SplineSet
-254 -108 m 1,0,-1
 -230 -50 l 1,1,2
 -140 -77 -140 -77 -78.5 -114.5 c 128,-1,3
 -17 -152 -17 -152 35 -204 c 1,4,-1
 -15 -249 l 1,5,6
 -50 -215 -50 -215 -92.5 -187.5 c 128,-1,7
 -135 -160 -135 -160 -177.5 -140 c 128,-1,8
 -220 -120 -220 -120 -254 -108 c 1,0,-1
EndSplineSet
EndChar

StartChar: Ardhacandra
Encoding: 71232 71232 82
Width: 0
GlyphClass: 4
Flags: W
HStem: 680 69<-73.743 75.7375>
AnchorPoint: "+BBEENQQ3BEsEPARPBD0EPQQ+BDUA--8" 0 799 basemark 0
AnchorPoint: "+BBEENQQ3BEsEPARPBD0EPQQ+BDUA--8" 80 712 mark 0
AnchorPoint: "+BBEENQQ3BEsEPARPBD0EPQQ+BDUA--7" 0 712 mark 0
AnchorPoint: "+BBEENQQ3BEsEPARPBD0EPQQ+BDUA--6" 0 712 mark 0
AnchorPoint: "+BBEENQQ3BEsEPARPBD0EPQQ+BDUA--5" 80 712 mark 0
LayerCount: 2
Fore
SplineSet
132 840 m 1,0,-1
 200 808 l 1,1,2
 135 680 135 680 1 680 c 0,3,4
 -135 680 -135 680 -200 808 c 1,5,-1
 -132 840 l 1,6,7
 -106 793 -106 793 -74 771 c 128,-1,8
 -42 749 -42 749 1 749 c 0,9,10
 46 749 46 749 77 771 c 128,-1,11
 108 793 108 793 132 840 c 1,0,-1
EndSplineSet
EndChar

StartChar: Danda
Encoding: 71233 71233 83
Width: 280
GlyphClass: 2
Flags: W
HStem: 0 21G<100 180>
VStem: 100 80<0 622>
LayerCount: 2
Fore
SplineSet
180 0 m 1,0,-1
 100 0 l 1,1,-1
 100 622 l 1,2,-1
 180 622 l 1,3,-1
 180 0 l 1,0,-1
EndSplineSet
EndChar

StartChar: DblDanda
Encoding: 71234 71234 84
Width: 460
GlyphClass: 2
Flags: W
HStem: 0 21G<100 180 280 360>
VStem: 100 80<0 622> 280 80<0 622>
LayerCount: 2
Fore
SplineSet
180 0 m 1,0,-1
 100 0 l 1,1,-1
 100 622 l 1,2,-1
 180 622 l 1,3,-1
 180 0 l 1,0,-1
360 0 m 1,4,-1
 280 0 l 1,5,-1
 280 622 l 1,6,-1
 360 622 l 1,7,-1
 360 0 l 1,4,-1
EndSplineSet
EndChar

StartChar: Abbreviation
Encoding: 71235 71235 85
Width: 407
GlyphClass: 2
Flags: W
HStem: -10 67<168.686 267.484> 199 68<169.209 267.484>
VStem: 80 70<76.1418 178.765> 287 70<76.918 179.023>
LayerCount: 2
Fore
SplineSet
80 128 m 0,0,1
 80 167 80 167 98.5 198.5 c 128,-1,2
 117 230 117 230 148.5 248.5 c 128,-1,3
 180 267 180 267 218 267 c 0,4,5
 257 267 257 267 288.5 248.5 c 128,-1,6
 320 230 320 230 338.5 198.5 c 128,-1,7
 357 167 357 167 357 128 c 0,8,9
 357 90 357 90 338.5 58.5 c 128,-1,10
 320 27 320 27 288.5 8.5 c 128,-1,11
 257 -10 257 -10 218 -10 c 0,12,13
 180 -10 180 -10 148.5 8.5 c 128,-1,14
 117 27 117 27 98.5 58.5 c 128,-1,15
 80 90 80 90 80 128 c 0,0,1
150 127 m 256,16,17
 150 97 150 97 169 77 c 128,-1,18
 188 57 188 57 218 57 c 256,19,20
 248 57 248 57 267.5 77.5 c 128,-1,21
 287 98 287 98 287 128 c 256,22,23
 287 158 287 158 267.5 178.5 c 128,-1,24
 248 199 248 199 218 199 c 256,25,26
 188 199 188 199 169 178 c 128,-1,27
 150 157 150 157 150 127 c 256,16,17
EndSplineSet
EndChar

StartChar: Huva
Encoding: 71236 71236 86
Width: 472
GlyphClass: 2
Flags: W
HStem: -10 74<165.989 287.524>
VStem: 312 80<89.2972 622>
LayerCount: 2
Fore
SplineSet
91 189 m 1,0,1
 113 133 113 133 150.5 98.5 c 128,-1,2
 188 64 188 64 230 64 c 0,3,4
 274 64 274 64 293 92 c 128,-1,5
 312 120 312 120 312 161 c 2,6,-1
 312 622 l 1,7,-1
 392 622 l 1,8,-1
 392 157 l 2,9,10
 392 79 392 79 355.5 34.5 c 128,-1,11
 319 -10 319 -10 230 -10 c 0,12,13
 160 -10 160 -10 106.5 37 c 128,-1,14
 53 84 53 84 20 166 c 1,15,-1
 91 189 l 1,0,1
EndSplineSet
EndChar

StartChar: u11650
Encoding: 71248 71248 87
Width: 521
GlyphClass: 2
Flags: W
HStem: 91 71<189.215 327.818> 418 72<193.457 331.645>
VStem: 60 82<210.327 365.228> 379 82<215.544 369.673>
LayerCount: 2
Fore
SplineSet
259 490 m 0,0,1
 317 490 317 490 362.5 464 c 128,-1,2
 408 438 408 438 434.5 393 c 128,-1,3
 461 348 461 348 461 289 c 0,4,5
 461 231 461 231 435 186.5 c 128,-1,6
 409 142 409 142 363.5 116.5 c 128,-1,7
 318 91 318 91 260 91 c 256,8,9
 202 91 202 91 157 116.5 c 128,-1,10
 112 142 112 142 86 187 c 128,-1,11
 60 232 60 232 60 291 c 256,12,13
 60 350 60 350 86 394.5 c 128,-1,14
 112 439 112 439 157 464.5 c 128,-1,15
 202 490 202 490 259 490 c 0,0,1
258 162 m 0,16,17
 311 162 311 162 345 199.5 c 128,-1,18
 379 237 379 237 379 292 c 256,19,20
 379 347 379 347 347 382.5 c 128,-1,21
 315 418 315 418 262 418 c 0,22,23
 210 418 210 418 176 381 c 128,-1,24
 142 344 142 344 142 288 c 0,25,26
 142 233 142 233 174 197.5 c 128,-1,27
 206 162 206 162 258 162 c 0,16,17
EndSplineSet
EndChar

StartChar: u11651
Encoding: 71249 71249 88
Width: 497
GlyphClass: 2
Flags: W
HStem: -10 74<407.502 437.041> 275 73<167.625 310.155> 527 73<167.475 283.293>
VStem: 60 81<374.445 500.132> 311 80<84.5061 289 358.876 496.768>
LayerCount: 2
Fore
SplineSet
436 -10 m 1,0,1
 370 -6 370 -6 340.5 26.5 c 128,-1,2
 311 59 311 59 311 137 c 2,3,-1
 311 289 l 1,4,5
 293 282 293 282 273.5 278.5 c 128,-1,6
 254 275 254 275 231 275 c 0,7,8
 183 275 183 275 144 295.5 c 128,-1,9
 105 316 105 316 82.5 353 c 128,-1,10
 60 390 60 390 60 439 c 0,11,12
 60 482 60 482 79.5 518.5 c 128,-1,13
 99 555 99 555 136.5 577.5 c 128,-1,14
 174 600 174 600 226 600 c 0,15,16
 306 600 306 600 348.5 554 c 128,-1,17
 391 508 391 508 391 408 c 2,18,-1
 391 141 l 2,19,20
 391 100 391 100 407 84 c 128,-1,21
 423 68 423 68 447 64 c 1,22,-1
 436 -10 l 1,0,1
233 348 m 0,23,24
 275 348 275 348 311 370 c 1,25,-1
 311 391 l 2,26,27
 311 459 311 459 292.5 493 c 128,-1,28
 274 527 274 527 227 527 c 0,29,30
 187 527 187 527 164 502 c 128,-1,31
 141 477 141 477 141 434 c 0,32,33
 141 393 141 393 166.5 370.5 c 128,-1,34
 192 348 192 348 233 348 c 0,23,24
EndSplineSet
EndChar

StartChar: u11652
Encoding: 71250 71250 89
Width: 479
GlyphClass: 2
Flags: W
HStem: 53 70<54.0714 164.375> 526 74<72.1555 261.638>
VStem: 323 80<262.416 464.057>
LayerCount: 2
Fore
SplineSet
42 123 m 1,0,1
 87 125 87 125 136 136.5 c 128,-1,2
 185 148 185 148 227.5 175.5 c 128,-1,3
 270 203 270 203 296.5 253 c 128,-1,4
 323 303 323 303 323 383 c 0,5,6
 323 429 323 429 304 460.5 c 128,-1,7
 285 492 285 492 254.5 509 c 128,-1,8
 224 526 224 526 188 526 c 256,9,10
 152 526 152 526 120.5 519.5 c 128,-1,11
 89 513 89 513 54 496 c 1,12,-1
 30 564 l 1,13,14
 67 580 67 580 109 590 c 128,-1,15
 151 600 151 600 192 600 c 0,16,17
 253 600 253 600 300.5 574 c 128,-1,18
 348 548 348 548 375.5 499.5 c 128,-1,19
 403 451 403 451 403 382 c 0,20,21
 403 276 403 276 361 209 c 128,-1,22
 319 142 319 142 249 104 c 1,23,24
 314 83 314 83 366 47.5 c 128,-1,25
 418 12 418 12 449 -20 c 1,26,-1
 393 -74 l 1,27,28
 365 -44 365 -44 323 -15 c 128,-1,29
 281 14 281 14 224.5 33.5 c 128,-1,30
 168 53 168 53 97 53 c 0,31,32
 88 53 88 53 80 53 c 128,-1,33
 72 53 72 53 55 51 c 1,34,-1
 42 123 l 1,0,1
EndSplineSet
EndChar

StartChar: u11653
Encoding: 71251 71251 90
Width: 442
GlyphClass: 2
Flags: W
HStem: -10 74<40.4156 259.657> 270 62<97 209.037> 526 74<61.7205 251.057>
VStem: 282 80<391.164 497.396> 302 80<106.251 231.85>
LayerCount: 2
Fore
SplineSet
44 86 m 1,0,1
 75 79 75 79 112.5 71.5 c 128,-1,2
 150 64 150 64 173 64 c 0,3,4
 241 64 241 64 271.5 96 c 128,-1,5
 302 128 302 128 302 168 c 0,6,7
 302 212 302 212 279 233.5 c 128,-1,8
 256 255 256 255 221.5 262.5 c 128,-1,9
 187 270 187 270 151 270 c 0,10,11
 135 270 135 270 122.5 269.5 c 128,-1,12
 110 269 110 269 91 267 c 1,13,-1
 97 332 l 1,14,15
 163 334 163 334 204 351.5 c 128,-1,16
 245 369 245 369 263.5 395.5 c 128,-1,17
 282 422 282 422 282 450 c 0,18,19
 282 483 282 483 252 504.5 c 128,-1,20
 222 526 222 526 171 526 c 0,21,22
 144 526 144 526 114 522 c 128,-1,23
 84 518 84 518 61 510 c 1,24,-1
 48 584 l 1,25,26
 73 591 73 591 103.5 595.5 c 128,-1,27
 134 600 134 600 173 600 c 0,28,29
 223 600 223 600 266 584 c 128,-1,30
 309 568 309 568 335.5 534 c 128,-1,31
 362 500 362 500 362 444 c 0,32,33
 362 397 362 397 337.5 364.5 c 128,-1,34
 313 332 313 332 276 312 c 1,35,36
 328 294 328 294 355 256 c 128,-1,37
 382 218 382 218 382 173 c 0,38,39
 382 119 382 119 356 78 c 128,-1,40
 330 37 330 37 283.5 13.5 c 128,-1,41
 237 -10 237 -10 177 -10 c 0,42,43
 137 -10 137 -10 96.5 -3.5 c 128,-1,44
 56 3 56 3 30 13 c 1,45,-1
 44 86 l 1,0,1
EndSplineSet
EndChar

StartChar: u11654
Encoding: 71252 71252 91
Width: 575
GlyphClass: 2
Flags: W
HStem: -10 72<222.78 334.662>
VStem: 126 80<80.4573 204.011> 349 80<79.4761 197.856>
LayerCount: 2
Fore
SplineSet
278 -10 m 256,0,1
 217 -10 217 -10 184 11 c 128,-1,2
 151 32 151 32 138.5 63.5 c 128,-1,3
 126 95 126 95 126 126 c 0,4,5
 126 170 126 170 153 220.5 c 128,-1,6
 180 271 180 271 220 320 c 1,7,8
 184 352 184 352 145.5 381 c 128,-1,9
 107 410 107 410 74 434 c 128,-1,10
 41 458 41 458 20 474 c 1,11,-1
 63 534 l 1,12,13
 80 521 80 521 113 497.5 c 128,-1,14
 146 474 146 474 187 443.5 c 128,-1,15
 228 413 228 413 269 376 c 1,16,17
 299 408 299 408 330 437.5 c 128,-1,18
 361 467 361 467 389 492 c 0,19,20
 428 527 428 527 459.5 555.5 c 128,-1,21
 491 584 491 584 506 598 c 1,22,-1
 555 544 l 1,23,24
 482 479 482 479 424 425 c 128,-1,25
 366 371 366 371 322 326 c 1,26,27
 368 279 368 279 398.5 228 c 128,-1,28
 429 177 429 177 429 126 c 0,29,30
 429 95 429 95 416.5 63.5 c 128,-1,31
 404 32 404 32 371.5 11 c 128,-1,32
 339 -10 339 -10 278 -10 c 256,0,1
280 62 m 256,33,34
 321 62 321 62 335 83 c 128,-1,35
 349 104 349 104 349 129 c 0,36,37
 349 162 349 162 327.5 198 c 128,-1,38
 306 234 306 234 272 270 c 1,39,40
 206 189 206 189 206 129 c 0,41,42
 206 104 206 104 222.5 83 c 128,-1,43
 239 62 239 62 280 62 c 256,33,34
EndSplineSet
EndChar

StartChar: u11655
Encoding: 71253 71253 92
Width: 606
GlyphClass: 2
Flags: W
HStem: -10 74<324.251 484.574> 393 74<73.1416 216.184>
VStem: 179 80<138.369 354.979>
LayerCount: 2
Fore
SplineSet
596 82 m 1,0,1
 570 47 570 47 518.5 18.5 c 128,-1,2
 467 -10 467 -10 399 -10 c 0,3,4
 330 -10 330 -10 281 22 c 128,-1,5
 232 54 232 54 205.5 110 c 128,-1,6
 179 166 179 166 179 238 c 0,7,8
 179 322 179 322 217 403 c 1,9,10
 181 393 181 393 145 393 c 0,11,12
 108 393 108 393 76 403.5 c 128,-1,13
 44 414 44 414 20 435 c 1,14,-1
 55 502 l 1,15,16
 75 485 75 485 99 476 c 128,-1,17
 123 467 123 467 146 467 c 0,18,19
 186 467 186 467 216.5 478 c 128,-1,20
 247 489 247 489 277.5 510 c 128,-1,21
 308 531 308 531 347 561 c 0,22,23
 366 576 366 576 387 586.5 c 128,-1,24
 408 597 408 597 430 605 c 1,25,-1
 439 523 l 1,26,27
 374 490 374 490 334 443 c 128,-1,28
 294 396 294 396 276.5 344 c 128,-1,29
 259 292 259 292 259 240 c 0,30,31
 259 191 259 191 275 151 c 128,-1,32
 291 111 291 111 321.5 87.5 c 128,-1,33
 352 64 352 64 396 64 c 0,34,35
 452 64 452 64 485.5 86.5 c 128,-1,36
 519 109 519 109 535 128 c 1,37,-1
 596 82 l 1,0,1
EndSplineSet
EndChar

StartChar: u11656
Encoding: 71254 71254 93
Width: 482
GlyphClass: 2
Flags: W
HStem: -10 74<171.344 380.416> 282 65.5<268.344 316.588> 534 75<230.522 310.653>
VStem: 60 80<93.2388 210.874> 75 80<378.506 477.383>
LayerCount: 2
Fore
SplineSet
452 34 m 1,0,1
 366 -10 366 -10 251 -10 c 0,2,3
 204 -10 204 -10 160 6.5 c 128,-1,4
 116 23 116 23 88 58 c 128,-1,5
 60 93 60 93 60 148 c 0,6,7
 60 194 60 194 84 236.5 c 128,-1,8
 108 279 108 279 162 303 c 1,9,10
 125 321 125 321 100 353 c 128,-1,11
 75 385 75 385 75 429 c 0,12,13
 75 484 75 484 107 522 c 128,-1,14
 139 560 139 560 192.5 582 c 128,-1,15
 246 604 246 604 310 609 c 1,16,-1
 317 534 l 1,17,18
 281 531 281 531 243.5 517.5 c 128,-1,19
 206 504 206 504 180.5 481.5 c 128,-1,20
 155 459 155 459 155 429 c 0,21,22
 155 411 155 411 166.5 391.5 c 128,-1,23
 178 372 178 372 203 359 c 128,-1,24
 228 346 228 346 268 346 c 0,25,26
 279 346 279 346 291 347.5 c 128,-1,27
 303 349 303 349 316 351 c 1,28,-1
 327 282 l 1,29,30
 241 275 241 275 190.5 238 c 128,-1,31
 140 201 140 201 140 149 c 0,32,33
 140 102 140 102 176 83 c 128,-1,34
 212 64 212 64 261 64 c 0,35,36
 302 64 302 64 350.5 77 c 128,-1,37
 399 90 399 90 430 105 c 1,38,-1
 452 34 l 1,0,1
EndSplineSet
EndChar

StartChar: u11657
Encoding: 71255 71255 94
Width: 654
GlyphClass: 2
Flags: W
HStem: -10 74<219.173 392.195> 319 74<403.988 511.543> 526 74<399.134 489.857>
VStem: 30 79<204.528 287.684> 309 75<409.362 509.804> 512 82<216.641 322 393.969 492.992>
LayerCount: 2
Fore
SplineSet
109 305 m 1,0,1
 111 267 111 267 123.5 225 c 128,-1,2
 136 183 136 183 159.5 146.5 c 128,-1,3
 183 110 183 110 217 87 c 128,-1,4
 251 64 251 64 297 64 c 0,5,6
 354 64 354 64 393 86 c 128,-1,7
 432 108 432 108 457 145 c 128,-1,8
 482 182 482 182 495 228 c 128,-1,9
 508 274 508 274 512 322 c 1,10,11
 490 319 490 319 466 319 c 0,12,13
 425 319 425 319 389 332.5 c 128,-1,14
 353 346 353 346 331 376.5 c 128,-1,15
 309 407 309 407 309 459 c 0,16,17
 309 502 309 502 328 533.5 c 128,-1,18
 347 565 347 565 378 582.5 c 128,-1,19
 409 600 409 600 444 600 c 0,20,21
 515 600 515 600 554.5 542.5 c 128,-1,22
 594 485 594 485 594 385 c 0,23,24
 594 312 594 312 578.5 242 c 128,-1,25
 563 172 563 172 528.5 115 c 128,-1,26
 494 58 494 58 437.5 24 c 128,-1,27
 381 -10 381 -10 298 -10 c 0,28,29
 218 -10 218 -10 160 30.5 c 128,-1,30
 102 71 102 71 69 138.5 c 128,-1,31
 36 206 36 206 30 286 c 1,32,-1
 109 305 l 1,0,1
468 393 m 0,33,34
 479 393 479 393 490.5 394 c 128,-1,35
 502 395 502 395 515 397 c 1,36,37
 514 462 514 462 497 494 c 128,-1,38
 480 526 480 526 445 526 c 0,39,40
 416 526 416 526 400 507.5 c 128,-1,41
 384 489 384 489 384 458 c 0,42,43
 384 422 384 422 408 407.5 c 128,-1,44
 432 393 432 393 468 393 c 0,33,34
EndSplineSet
EndChar

StartChar: u11658
Encoding: 71256 71256 95
Width: 463
GlyphClass: 2
Flags: W
HStem: -10 74<123.883 350.227>
VStem: 30 80<80.7842 190.536>
LayerCount: 2
Fore
SplineSet
351 563 m 1,0,1
 308 503 308 503 265.5 436 c 128,-1,2
 223 369 223 369 188 305 c 128,-1,3
 153 241 153 241 131.5 190 c 128,-1,4
 110 139 110 139 110 113 c 0,5,6
 110 85 110 85 148 74.5 c 128,-1,7
 186 64 186 64 239 64 c 0,8,9
 266 64 266 64 298 71 c 128,-1,10
 330 78 330 78 358.5 89 c 128,-1,11
 387 100 387 100 405 112 c 1,12,-1
 433 41 l 1,13,14
 388 15 388 15 337.5 2.5 c 128,-1,15
 287 -10 287 -10 231 -10 c 0,16,17
 183 -10 183 -10 137 0 c 128,-1,18
 91 10 91 10 60.5 35.5 c 128,-1,19
 30 61 30 61 30 108 c 0,20,21
 30 139 30 139 45.5 184 c 128,-1,22
 61 229 61 229 87.5 282.5 c 128,-1,23
 114 336 114 336 147 392.5 c 128,-1,24
 180 449 180 449 215.5 503.5 c 128,-1,25
 251 558 251 558 284 605 c 1,26,-1
 351 563 l 1,0,1
EndSplineSet
EndChar

StartChar: u11659
Encoding: 71257 71257 96
Width: 690
GlyphClass: 2
Flags: W
HStem: -10 74<260.804 437.615> 292 74<145 263.795> 526 74<167.431 272.416>
VStem: 60 79<223.733 294 367.777 495.683> 290 80<395.143 507.417> 583 77<264.401 320.727>
LayerCount: 2
Fore
SplineSet
660 319 m 1,0,1
 637 224 637 224 596 149.5 c 128,-1,2
 555 75 555 75 494 32.5 c 128,-1,3
 433 -10 433 -10 351 -10 c 0,4,5
 252 -10 252 -10 187.5 42 c 128,-1,6
 123 94 123 94 91.5 183.5 c 128,-1,7
 60 273 60 273 60 385 c 0,8,9
 60 485 60 485 102.5 542.5 c 128,-1,10
 145 600 145 600 230 600 c 0,11,12
 263 600 263 600 295 583.5 c 128,-1,13
 327 567 327 567 348.5 535.5 c 128,-1,14
 370 504 370 504 370 459 c 0,15,16
 370 407 370 407 352 374 c 128,-1,17
 334 341 334 341 306 323 c 128,-1,18
 278 305 278 305 246.5 298.5 c 128,-1,19
 215 292 215 292 188 292 c 0,20,21
 178 292 178 292 167 292.5 c 128,-1,22
 156 293 156 293 145 294 c 1,23,24
 159 192 159 192 210.5 128 c 128,-1,25
 262 64 262 64 353 64 c 0,26,27
 416 64 416 64 460.5 101.5 c 128,-1,28
 505 139 505 139 535.5 201.5 c 128,-1,29
 566 264 566 264 583 338 c 1,30,-1
 660 319 l 1,0,1
139 370 m 1,31,32
 151 369 151 369 163 367.5 c 128,-1,33
 175 366 175 366 186 366 c 0,34,35
 210 366 210 366 234 372.5 c 128,-1,36
 258 379 258 379 274 398 c 128,-1,37
 290 417 290 417 290 454 c 0,38,39
 290 485 290 485 272.5 505.5 c 128,-1,40
 255 526 255 526 222 526 c 0,41,42
 176 526 176 526 157.5 491 c 128,-1,43
 139 456 139 456 139 384 c 2,44,-1
 139 370 l 1,31,32
EndSplineSet
EndChar

StartChar: Tha.alt
Encoding: 1114113 -1 97
Width: 632
GlyphClass: 2
Flags: W
HStem: 0 21G<472 552> 105 74<210.474 382.047> 322 70<138.872 206.632> 533 89<141.143 227.591> 551 71<0 81 299 472 552 642>
VStem: 50 70<410.392 512.576> 251 79<407.145 517.165> 472 80<0 172 257.101 551>
AnchorPoint: "+BBEENQQ3BEsEPARPBD0EPQQ+BDUA--5" 507 718 basechar 0
AnchorPoint: "+BBEENQQ3BEsEPARPBD0EPQQ+BDUA--4" 552 622 basechar 0
AnchorPoint: "+BBEENQQ3BEsEPARPBD0EPQQ+BDUA--2" 354 177 basechar 0
AnchorPoint: "+BBEENQQ3BEsEPARPBD0EPQQ+BDUA--0" 472 0 basechar 0
LayerCount: 2
Fore
SplineSet
552 0 m 1,0,-1
 472 0 l 1,1,-1
 472 172 l 1,2,3
 436 140 436 140 388 122.5 c 128,-1,4
 340 105 340 105 290 105 c 0,5,6
 245 105 245 105 203 121.5 c 128,-1,7
 161 138 161 138 130 171.5 c 128,-1,8
 99 205 99 205 86 255 c 1,9,10
 107 262 107 262 142.5 277 c 128,-1,11
 178 292 178 292 207 323 c 1,12,13
 202 322 202 322 197 322 c 128,-1,14
 192 322 192 322 187 322 c 0,15,16
 149 322 149 322 117.5 341 c 128,-1,17
 86 360 86 360 68 392 c 128,-1,18
 50 424 50 424 50 462 c 0,19,20
 50 488 50 488 58.5 510.5 c 128,-1,21
 67 533 67 533 81 551 c 1,22,-1
 0 551 l 1,23,-1
 0 622 l 1,24,-1
 642 622 l 1,25,-1
 642 551 l 1,26,-1
 552 551 l 1,27,-1
 552 0 l 1,0,-1
294 179 m 0,28,29
 345 179 345 179 394.5 207 c 128,-1,30
 444 235 444 235 472 294 c 1,31,-1
 472 551 l 1,32,-1
 299 551 l 1,33,34
 316 529 316 529 323 499.5 c 128,-1,35
 330 470 330 470 330 439 c 0,36,37
 330 400 330 400 317.5 360.5 c 128,-1,38
 305 321 305 321 273 286.5 c 128,-1,39
 241 252 241 252 182 226 c 1,40,41
 201 202 201 202 231 190.5 c 128,-1,42
 261 179 261 179 294 179 c 0,28,29
189 392 m 0,43,44
 207 392 207 392 221.5 397.5 c 128,-1,45
 236 403 236 403 249 413 c 1,46,47
 250 419 250 419 250.5 425.5 c 128,-1,48
 251 432 251 432 251 439 c 0,49,50
 251 461 251 461 246 482.5 c 128,-1,51
 241 504 241 504 228 518.5 c 128,-1,52
 215 533 215 533 190 533 c 0,53,54
 161 533 161 533 140.5 512.5 c 128,-1,55
 120 492 120 492 120 461 c 0,56,57
 120 437 120 437 131.5 421.5 c 128,-1,58
 143 406 143 406 159.5 399 c 128,-1,59
 176 392 176 392 189 392 c 0,43,44
EndSplineSet
EndChar

StartChar: Da.alt
Encoding: 1114114 -1 98
Width: 406
GlyphClass: 2
Flags: W
HStem: -10 74<243.465 380.371> 247 66<285 341.371> 551 71<0 91 167.112 330 405.131 526>
VStem: 60 81<208.626 516.828> 91 84<480.042 551> 318 80<405.485 550.344> 326.5 80<386.194 470.375 472.501 551> 352 80<326.335 417.857> 408 80<91.6553 209.416>
AnchorPoint: "+BBEENQQ3BEsEPARPBD0EPQQ+BDUA--5" 378 718 basechar 0
AnchorPoint: "+BBEENQQ3BEsEPARPBD0EPQQ+BDUA--4" 413 622 basechar 0
AnchorPoint: "+BBEENQQ3BEsEPARPBD0EPQQ+BDUA--3" 306 -70 basechar 0
AnchorPoint: "+BBEENQQ3BEsEPARPBD0EPQQ+BDUA--2" 362 60 basechar 0
AnchorPoint: "+BBEENQQ3BEsEPARPBD0EPQQ+BDUA--1" 283 -80 basechar 0
AnchorPoint: "+BBEENQQ3BEsEPARPBD0EPQQ+BDUA--0" 235 -80 basechar 0
LayerCount: 2
Fore
SplineSet
526 551 m 1,0,-1
 413 551 l 1,1,2
 404 531 404 531 401 510.5 c 128,-1,3
 398 490 398 490 398 471 c 0,4,5
 398 451 398 451 406.5 433 c 128,-1,6
 415 415 415 415 423.5 398 c 128,-1,7
 432 381 432 381 432 363 c 0,8,9
 432 339 432 339 422.5 320.5 c 128,-1,10
 413 302 413 302 397 288 c 1,11,12
 434 271 434 271 461 238 c 128,-1,13
 488 205 488 205 488 152 c 0,14,15
 488 79 488 79 440 34.5 c 128,-1,16
 392 -10 392 -10 306 -10 c 0,17,18
 243 -10 243 -10 197 23.5 c 128,-1,19
 151 57 151 57 120.5 112 c 128,-1,20
 90 167 90 167 75 233 c 128,-1,21
 60 299 60 299 60 364 c 0,22,23
 60 411 60 411 67.5 458.5 c 128,-1,24
 75 506 75 506 91 551 c 1,25,-1
 0 551 l 1,26,-1
 0 622 l 1,27,-1
 526 622 l 1,28,-1
 526 551 l 1,0,-1
281 313 m 1,29,30
 293 313 293 313 309.5 317.5 c 128,-1,31
 326 322 326 322 339 332.5 c 128,-1,32
 352 343 352 343 352 359 c 0,33,34
 352 373 352 373 343.5 389.5 c 128,-1,35
 335 406 335 406 326.5 426.5 c 128,-1,36
 318 447 318 447 318 472 c 0,37,38
 318 488 318 488 320.5 509 c 128,-1,39
 323 530 323 530 330 551 c 1,40,-1
 175 551 l 1,41,42
 157 506 157 506 149 457.5 c 128,-1,43
 141 409 141 409 141 364 c 0,44,45
 141 274 141 274 163.5 206.5 c 128,-1,46
 186 139 186 139 224.5 101.5 c 128,-1,47
 263 64 263 64 311 64 c 256,48,49
 359 64 359 64 383.5 88.5 c 128,-1,50
 408 113 408 113 408 151 c 256,51,52
 408 189 408 189 378.5 218 c 128,-1,53
 349 247 349 247 299 248 c 0,54,55
 295 247 295 247 291.5 247 c 128,-1,56
 288 247 288 247 285 247 c 2,57,-1
 281 313 l 1,29,30
EndSplineSet
EndChar

StartChar: Dha.alt
Encoding: 1114115 -1 99
Width: 503
GlyphClass: 2
Flags: W
HStem: -10 72<294.424 436.504> 353 68<146.386 230.467> 535 87<145.639 231.59> 551 71<0 82 300 513>
VStem: 50 78<430.026 518.444> 185 75<95.1053 219.139> 245 78<434.795 521.084>
AnchorPoint: "+BBEENQQ3BEsEPARPBD0EPQQ+BDUA--5" 433 718 basechar 0
AnchorPoint: "+BBEENQQ3BEsEPARPBD0EPQQ+BDUA--4" 463 622 basechar 0
AnchorPoint: "+BBEENQQ3BEsEPARPBD0EPQQ+BDUA--3" 351 -70 basechar 0
AnchorPoint: "+BBEENQQ3BEsEPARPBD0EPQQ+BDUA--2" 407 59 basechar 0
AnchorPoint: "+BBEENQQ3BEsEPARPBD0EPQQ+BDUA--1" 351 -80 basechar 0
AnchorPoint: "+BBEENQQ3BEsEPARPBD0EPQQ+BDUA--0" 325 -80 basechar 0
LayerCount: 2
Fore
SplineSet
588 161 m 1,0,1
 564 110 564 110 533 71.5 c 128,-1,2
 502 33 502 33 458 11.5 c 128,-1,3
 414 -10 414 -10 351 -10 c 0,4,5
 301 -10 301 -10 263.5 13.5 c 128,-1,6
 226 37 226 37 205.5 75.5 c 128,-1,7
 185 114 185 114 185 158 c 0,8,9
 185 178 185 178 190.5 198 c 128,-1,10
 196 218 196 218 209 237 c 1,11,12
 157 242 157 242 121.5 272.5 c 128,-1,13
 86 303 86 303 68 348.5 c 128,-1,14
 50 394 50 394 50 444 c 0,15,16
 50 471 50 471 58 499.5 c 128,-1,17
 66 528 66 528 82 551 c 1,18,-1
 0 551 l 1,19,-1
 0 622 l 1,20,-1
 513 622 l 1,21,-1
 513 551 l 1,22,-1
 300 551 l 1,23,24
 311 536 311 536 317 518 c 128,-1,25
 323 500 323 500 323 479 c 0,26,27
 323 418 323 418 284.5 385.5 c 128,-1,28
 246 353 246 353 188 353 c 0,29,30
 166 353 166 353 146 359 c 1,31,32
 158 334 158 334 179.5 319 c 128,-1,33
 201 304 201 304 232 304 c 0,34,35
 249 304 249 304 268.5 309 c 128,-1,36
 288 314 288 314 311 324 c 2,37,-1
 319 328 l 1,38,-1
 349 270 l 1,39,40
 327 263 327 263 306.5 245.5 c 128,-1,41
 286 228 286 228 273 206 c 128,-1,42
 260 184 260 184 260 161 c 0,43,44
 260 113 260 113 289.5 87.5 c 128,-1,45
 319 62 319 62 354 62 c 0,46,47
 407 62 407 62 441 86.5 c 128,-1,48
 475 111 475 111 496.5 148.5 c 128,-1,49
 518 186 518 186 533 224 c 1,50,-1
 588 161 l 1,0,1
128 441 m 1,51,52
 141 432 141 432 155.5 426.5 c 128,-1,53
 170 421 170 421 187 421 c 0,54,55
 211 421 211 421 228 436.5 c 128,-1,56
 245 452 245 452 245 479 c 0,57,58
 245 499 245 499 232 517 c 128,-1,59
 219 535 219 535 190 535 c 0,60,61
 165 535 165 535 151.5 520.5 c 128,-1,62
 138 506 138 506 133 486.5 c 128,-1,63
 128 467 128 467 128 450 c 2,64,-1
 128 441 l 1,51,52
EndSplineSet
EndChar

StartChar: Pa.alt
Encoding: 1114116 -1 100
Width: 587
GlyphClass: 2
Flags: W
HStem: 0 21G<427 507> 146 71<192.181 358.017> 551 71<0 80 160 427 507 597>
VStem: 80 80<249.352 551> 427 80<0 196 266.851 551>
AnchorPoint: "+BBEENQQ3BEsEPARPBD0EPQQ+BDUA--5" 462 718 basechar 0
AnchorPoint: "+BBEENQQ3BEsEPARPBD0EPQQ+BDUA--4" 507 622 basechar 0
AnchorPoint: "+BBEENQQ3BEsEPARPBD0EPQQ+BDUA--2" 321 215 basechar 0
AnchorPoint: "+BBEENQQ3BEsEPARPBD0EPQQ+BDUA--0" 427 0 basechar 0
LayerCount: 2
Fore
SplineSet
507 0 m 1,0,-1
 427 0 l 1,1,-1
 427 196 l 1,2,3
 378 165 378 165 331 155.5 c 128,-1,4
 284 146 284 146 255 146 c 0,5,6
 191 146 191 146 152.5 173.5 c 128,-1,7
 114 201 114 201 97 249 c 128,-1,8
 80 297 80 297 80 358 c 2,9,-1
 80 551 l 1,10,-1
 0 551 l 1,11,-1
 0 622 l 1,12,-1
 597 622 l 1,13,-1
 597 551 l 1,14,-1
 507 551 l 1,15,-1
 507 0 l 1,0,-1
263 217 m 0,16,17
 278 217 278 217 306.5 222.5 c 128,-1,18
 335 228 335 228 367.5 243 c 128,-1,19
 400 258 400 258 427 288 c 1,20,-1
 427 551 l 1,21,-1
 160 551 l 1,22,-1
 160 355 l 2,23,24
 160 331 160 331 162.5 307 c 128,-1,25
 165 283 165 283 174 262.5 c 128,-1,26
 183 242 183 242 204.5 229.5 c 128,-1,27
 226 217 226 217 263 217 c 0,16,17
EndSplineSet
EndChar

StartChar: Ma.alt
Encoding: 1114117 -1 101
Width: 587
GlyphClass: 2
Flags: W
HStem: 0 21G<427 507> 551 71<0 84.4419 162 427 507 597>
VStem: 118 80<275 475.119> 427 80<0 287 362.488 551>
AnchorPoint: "+BBEENQQ3BEsEPARPBD0EPQQ+BDUA--5" 462 718 basechar 0
AnchorPoint: "+BBEENQQ3BEsEPARPBD0EPQQ+BDUA--4" 507 622 basechar 0
AnchorPoint: "+BBEENQQ3BEsEPARPBD0EPQQ+BDUA--2" 427 213 basechar 0
AnchorPoint: "+BBEENQQ3BEsEPARPBD0EPQQ+BDUA--0" 427 0 basechar 0
LayerCount: 2
Fore
SplineSet
98 153 m 1,0,1
 108 176 108 176 113 211.5 c 128,-1,2
 118 247 118 247 118 275 c 0,3,4
 118 340 118 340 107.5 413 c 128,-1,5
 97 486 97 486 79 551 c 1,6,-1
 0 551 l 1,7,-1
 0 622 l 1,8,-1
 597 622 l 1,9,-1
 597 551 l 1,10,-1
 507 551 l 1,11,-1
 507 0 l 1,12,-1
 427 0 l 1,13,-1
 427 287 l 1,14,15
 397 278 397 278 364.5 270.5 c 128,-1,16
 332 263 332 263 299 250 c 128,-1,17
 266 237 266 237 234.5 212 c 128,-1,18
 203 187 203 187 176 142 c 1,19,-1
 98 153 l 1,0,1
198 275 m 1,20,21
 233 304 233 304 273 319 c 128,-1,22
 313 334 313 334 353.5 345 c 128,-1,23
 394 356 394 356 427 372 c 1,24,-1
 427 551 l 1,25,-1
 162 551 l 1,26,27
 177 476 177 476 187.5 406.5 c 128,-1,28
 198 337 198 337 198 275 c 1,20,21
EndSplineSet
EndChar

StartChar: Ya.alt
Encoding: 1114118 -1 102
Width: 592
GlyphClass: 2
Flags: W
HStem: 0 21G<432 512> 105 74<163.839 339.276> 551 71<0 98.1708 170 432 512 602>
VStem: 134 76<322.748 505.316> 432 80<0 179 256.398 551>
AnchorPoint: "+BBEENQQ3BEsEPARPBD0EPQQ+BDUA--5" 467 718 basechar 0
AnchorPoint: "+BBEENQQ3BEsEPARPBD0EPQQ+BDUA--4" 512 622 basechar 0
AnchorPoint: "+BBEENQQ3BEsEPARPBD0EPQQ+BDUA--2" 324 185 basechar 0
AnchorPoint: "+BBEENQQ3BEsEPARPBD0EPQQ+BDUA--0" 432 0 basechar 0
LayerCount: 2
Fore
SplineSet
512 0 m 1,0,-1
 432 0 l 1,1,-1
 432 179 l 1,2,3
 395 145 395 145 344 125 c 128,-1,4
 293 105 293 105 241 105 c 0,5,6
 195 105 195 105 153.5 120.5 c 128,-1,7
 112 136 112 136 83.5 169.5 c 128,-1,8
 55 203 55 203 46 255 c 1,9,10
 64 261 64 261 84.5 282.5 c 128,-1,11
 105 304 105 304 119.5 338 c 128,-1,12
 134 372 134 372 134 413 c 0,13,14
 134 445 134 445 122.5 480 c 128,-1,15
 111 515 111 515 83 551 c 1,16,-1
 0 551 l 1,17,-1
 0 622 l 1,18,-1
 602 622 l 1,19,-1
 602 551 l 1,20,-1
 512 551 l 1,21,-1
 512 0 l 1,0,-1
248 179 m 0,22,23
 302 179 302 179 354 208 c 128,-1,24
 406 237 406 237 432 290 c 1,25,-1
 432 551 l 1,26,-1
 170 551 l 1,27,28
 190 519 190 519 200 483.5 c 128,-1,29
 210 448 210 448 210 412 c 0,30,31
 210 357 210 357 190.5 307 c 128,-1,32
 171 257 171 257 131 230 c 1,33,34
 152 203 152 203 183 191 c 128,-1,35
 214 179 214 179 248 179 c 0,22,23
EndSplineSet
EndChar

StartChar: Ra.alt
Encoding: 1114119 -1 103
Width: 517
GlyphClass: 2
Flags: W
HStem: 0 21G<357 437> 210 74<58.2284 258.393> 551 71<0 357 437 527>
VStem: 357 80<0 286 380.32 551>
AnchorPoint: "+BBEENQQ3BEsEPARPBD0EPQQ+BDUA--4" 437 622 basechar 0
AnchorPoint: "+BBEENQQ3BEsEPARPBD0EPQQ+BDUA--2" 357 213 basechar 0
AnchorPoint: "+BBEENQQ3BEsEPARPBD0EPQQ+BDUA--0" 357 0 basechar 0
LayerCount: 2
Fore
SplineSet
437 0 m 1,0,-1
 357 0 l 1,1,-1
 357 286 l 1,2,3
 314 237 314 237 264.5 223.5 c 128,-1,4
 215 210 215 210 164 210 c 0,5,6
 137 210 137 210 103 214.5 c 128,-1,7
 69 219 69 219 40 227 c 1,8,-1
 63 297 l 1,9,10
 110 284 110 284 159 284 c 0,11,12
 221 284 221 284 261 307 c 128,-1,13
 301 330 301 330 324 363 c 128,-1,14
 347 396 347 396 357 426 c 1,15,-1
 357 551 l 1,16,-1
 0 551 l 1,17,-1
 0 622 l 1,18,-1
 527 622 l 1,19,-1
 527 551 l 1,20,-1
 437 551 l 1,21,-1
 437 0 l 1,0,-1
EndSplineSet
EndChar

StartChar: Dha.alt2
Encoding: 1114120 -1 104
Width: 632
GlyphClass: 2
Flags: W
HStem: 0 21G<472 552> 50 74<252.529 391.167> 363 68<139.462 228.576> 535 87<144.928 228.075> 551 71<0 82 301 472 552 642>
VStem: 50 78<439.701 519.229> 155 80<141.078 237.091> 242 78<442.742 522.725> 472 80<0 119 197.429 551>
AnchorPoint: "+BBEENQQ3BEsEPARPBD0EPQQ+BDUA--4" 552 622 basechar 0
AnchorPoint: "+BBEENQQ3BEsEPARPBD0EPQQ+BDUA--0" 472 0 basechar 0
LayerCount: 2
Fore
SplineSet
552 0 m 1,0,-1
 472 0 l 1,1,-1
 472 119 l 1,2,3
 435 82 435 82 391 66 c 128,-1,4
 347 50 347 50 306 50 c 0,5,6
 256 50 256 50 222.5 68 c 128,-1,7
 189 86 189 86 172 114.5 c 128,-1,8
 155 143 155 143 155 175 c 0,9,10
 155 194 155 194 159.5 213 c 128,-1,11
 164 232 164 232 174 250 c 1,12,13
 110 265 110 265 80 320 c 128,-1,14
 50 375 50 375 50 444 c 0,15,16
 50 471 50 471 58 499.5 c 128,-1,17
 66 528 66 528 82 551 c 1,18,-1
 0 551 l 1,19,-1
 0 622 l 1,20,-1
 642 622 l 1,21,-1
 642 551 l 1,22,-1
 552 551 l 1,23,-1
 552 0 l 1,0,-1
472 551 m 1,24,-1
 301 551 l 1,25,26
 320 523 320 523 320 484 c 0,27,28
 320 423 320 423 283 393 c 128,-1,29
 246 363 246 363 188 363 c 0,30,31
 161 363 161 363 139 371 c 1,32,33
 146 342 146 342 171 327 c 128,-1,34
 196 312 196 312 226 312 c 0,35,36
 235 312 235 312 244 313 c 128,-1,37
 253 314 253 314 261 317 c 1,38,-1
 287 257 l 1,39,40
 255 242 255 242 245 221.5 c 128,-1,41
 235 201 235 201 235 181 c 0,42,43
 235 159 235 159 254.5 141.5 c 128,-1,44
 274 124 274 124 308 124 c 0,45,46
 360 124 360 124 402 152.5 c 128,-1,47
 444 181 444 181 472 230 c 1,48,-1
 472 551 l 1,24,-1
190 535 m 256,49,50
 165 535 165 535 151.5 521 c 128,-1,51
 138 507 138 507 133 487.5 c 128,-1,52
 128 468 128 468 128 451 c 1,53,54
 141 442 141 442 155.5 436.5 c 128,-1,55
 170 431 170 431 187 431 c 0,56,57
 207 431 207 431 224.5 444 c 128,-1,58
 242 457 242 457 242 484 c 0,59,60
 242 504 242 504 228.5 519.5 c 128,-1,61
 215 535 215 535 190 535 c 256,49,50
EndSplineSet
EndChar

StartChar: Kaa
Encoding: 1114121 -1 105
Width: 810
GlyphClass: 2
Flags: W
HStem: -10 70<661.024 713.184> 0 21G<88 171 358 438> 174 74<253.422 347.966 511.696 566> 551 71<0 101 177.899 629 704.015 820>
VStem: 40 80<302.831 481.894> 358 80<0 97.9816> 566 80<82.1823 167> 629 82<484.85 551> 715 75<60.397 141.167>
AnchorPoint: "+BBEENQQ3BEsEPARPBD0EPQQ+BDUA--4" 711 622 basechar 0
AnchorPoint: "+BBEENQQ3BEsEPARPBD0EPQQ+BDUA--2" 602 90 basechar 0
LayerCount: 2
Fore
SplineSet
438 0 m 1,0,-1
 358 0 l 1,1,-1
 358 102 l 2,2,3
 358 132 358 132 348 153 c 128,-1,4
 338 174 338 174 308 174 c 0,5,6
 284 174 284 174 255.5 154.5 c 128,-1,7
 227 135 227 135 202 96.5 c 128,-1,8
 177 58 177 58 165 0 c 1,9,-1
 88 0 l 1,10,11
 90 11 90 11 93 21 c 128,-1,12
 96 31 96 31 99 41 c 0,13,14
 110 93 110 93 110 131 c 0,15,16
 110 166 110 166 99.5 196.5 c 128,-1,17
 89 227 89 227 75 257.5 c 128,-1,18
 61 288 61 288 50.5 321.5 c 128,-1,19
 40 355 40 355 40 395 c 0,20,21
 40 438 40 438 54 473 c 128,-1,22
 68 508 68 508 101 551 c 1,23,-1
 0 551 l 1,24,-1
 0 622 l 1,25,-1
 820 622 l 1,26,-1
 820 551 l 1,27,-1
 711 551 l 1,28,29
 678 456 678 456 664.5 377.5 c 128,-1,30
 651 299 651 299 648 242 c 1,31,32
 698 232 698 232 729.5 206.5 c 128,-1,33
 761 181 761 181 775.5 148.5 c 128,-1,34
 790 116 790 116 790 85 c 0,35,36
 790 72 790 72 782 49 c 128,-1,37
 774 26 774 26 752.5 8 c 128,-1,38
 731 -10 731 -10 688 -10 c 0,39,40
 631 -10 631 -10 600.5 37 c 128,-1,41
 570 84 570 84 566 172 c 1,42,43
 514 165 514 165 477 122.5 c 128,-1,44
 440 80 440 80 438 10 c 2,45,-1
 438 0 l 1,0,-1
317 248 m 0,46,47
 358 248 358 248 386.5 229 c 128,-1,48
 415 210 415 210 428 176 c 1,49,50
 452 206 452 206 486.5 224.5 c 128,-1,51
 521 243 521 243 568 247 c 1,52,53
 572 291 572 291 580 343 c 128,-1,54
 588 395 588 395 600.5 448.5 c 128,-1,55
 613 502 613 502 629 551 c 1,56,-1
 199 551 l 1,57,58
 150 503 150 503 135 468.5 c 128,-1,59
 120 434 120 434 120 402 c 0,60,61
 120 362 120 362 132.5 327.5 c 128,-1,62
 145 293 145 293 160.5 259 c 128,-1,63
 176 225 176 225 184 187 c 1,64,65
 245 248 245 248 317 248 c 0,46,47
715 89 m 0,66,67
 715 107 715 107 701 131 c 128,-1,68
 687 155 687 155 646 167 c 1,69,70
 648 103 648 103 660.5 81.5 c 128,-1,71
 673 60 673 60 689 60 c 0,72,73
 703 60 703 60 709 71.5 c 128,-1,74
 715 83 715 83 715 89 c 0,66,67
EndSplineSet
Ligature2: "Ligature Substitution lookup 13 subtable" Ka AA_dv
EndChar

StartChar: Ku
Encoding: 1114122 -1 106
Width: 1176
GlyphClass: 2
Flags: W
HStem: -10 74<234.72 368.471 1025.99 1080.29> 0 21G<599 684.5> 178 70<802.898 932> 275 69<259 344.089> 551 71<0 91 206 361.258 436 578 692 995 1069.81 1186> 726 74<292.753 487.901>
VStem: 60 81<186.526 519.65> 91 81<458.959 551> 384 81<385.08 528.086> 408 80<103.898 236.966> 641 80<184.828 505.782> 932 80<82.1823 167> 995 82<484.017 551> 1081 75<60.397 138.084>
AnchorPoint: "+BBEENQQ3BEsEPARPBD0EPQQ+BDUA--2" 968 90 basechar 0
LayerCount: 2
Fore
SplineSet
641 284 m 0,0,1
 641 343 641 343 633.5 414.5 c 128,-1,2
 626 486 626 486 609 551 c 1,3,-1
 436 551 l 1,4,5
 465 511 465 511 465 464 c 0,6,7
 465 412 465 412 444.5 376 c 128,-1,8
 424 340 424 340 392 318 c 1,9,10
 488 272 488 272 488 172 c 0,11,12
 488 123 488 123 466 81.5 c 128,-1,13
 444 40 444 40 401.5 15 c 128,-1,14
 359 -10 359 -10 299 -10 c 0,15,16
 227 -10 227 -10 173.5 31 c 128,-1,17
 120 72 120 72 90 150.5 c 128,-1,18
 60 229 60 229 60 340 c 0,19,20
 60 398 60 398 68 451 c 128,-1,21
 76 504 76 504 91 551 c 1,22,-1
 0 551 l 1,23,-1
 0 622 l 1,24,-1
 121 622 l 1,25,26
 164 704 164 704 233 752 c 128,-1,27
 302 800 302 800 393 800 c 0,28,29
 490 800 490 800 557.5 750.5 c 128,-1,30
 625 701 625 701 663 622 c 1,31,-1
 1186 622 l 1,32,-1
 1186 551 l 1,33,-1
 1077 551 l 1,34,35
 1043 454 1043 454 1029.5 374.5 c 128,-1,36
 1016 295 1016 295 1013 239 c 1,37,38
 1061 227 1061 227 1092.5 201.5 c 128,-1,39
 1124 176 1124 176 1140 145 c 128,-1,40
 1156 114 1156 114 1156 85 c 0,41,42
 1156 72 1156 72 1148 49 c 128,-1,43
 1140 26 1140 26 1118.5 8 c 128,-1,44
 1097 -10 1097 -10 1054 -10 c 0,45,46
 996 -10 996 -10 965 38.5 c 128,-1,47
 934 87 934 87 932 178 c 1,48,49
 872 177 872 177 820 162 c 128,-1,50
 768 147 768 147 730.5 109 c 128,-1,51
 693 71 693 71 676 0 c 1,52,-1
 599 0 l 1,53,54
 603 13 603 13 607 25.5 c 128,-1,55
 611 38 611 38 615 49 c 0,56,57
 627 95 627 95 634 154.5 c 128,-1,58
 641 214 641 214 641 284 c 0,0,1
393 726 m 0,59,60
 327 726 327 726 281 697.5 c 128,-1,61
 235 669 235 669 206 622 c 1,62,-1
 578 622 l 1,63,64
 563 646 563 646 537.5 670 c 128,-1,65
 512 694 512 694 476 710 c 128,-1,66
 440 726 440 726 393 726 c 0,59,60
259 345 m 2,67,68
 261 345 261 345 265.5 344.5 c 128,-1,69
 270 344 270 344 272 344 c 0,70,71
 315 344 315 344 339 361.5 c 128,-1,72
 363 379 363 379 373.5 406 c 128,-1,73
 384 433 384 433 384 463 c 0,74,75
 384 518 384 518 338 551 c 1,76,-1
 172 551 l 1,77,78
 156 502 156 502 148.5 447 c 128,-1,79
 141 392 141 392 141 338 c 0,80,81
 141 239 141 239 165.5 179 c 128,-1,82
 190 119 190 119 226 91.5 c 128,-1,83
 262 64 262 64 298 64 c 0,84,85
 335 64 335 64 359.5 79.5 c 128,-1,86
 384 95 384 95 396 119.5 c 128,-1,87
 408 144 408 144 408 170 c 0,88,89
 408 221 408 221 375 248 c 128,-1,90
 342 275 342 275 266 275 c 0,91,92
 263 274 263 274 260 274 c 128,-1,93
 257 274 257 274 254 274 c 1,94,-1
 259 345 l 2,67,68
934 248 m 1,95,96
 938 292 938 292 946.5 344 c 128,-1,97
 955 396 955 396 967.5 449.5 c 128,-1,98
 980 503 980 503 995 551 c 1,99,-1
 692 551 l 1,100,101
 721 398 721 398 721 275 c 0,102,103
 721 256 721 256 718.5 232 c 128,-1,104
 716 208 716 208 712 184 c 1,105,106
 756 217 756 217 811.5 232 c 128,-1,107
 867 247 867 247 934 248 c 1,95,96
1081 89 m 0,108,109
 1081 106 1081 106 1065.5 130 c 128,-1,110
 1050 154 1050 154 1012 167 c 1,111,112
 1014 103 1014 103 1026.5 81.5 c 128,-1,113
 1039 60 1039 60 1055 60 c 0,114,115
 1069 60 1069 60 1075 71.5 c 128,-1,116
 1081 83 1081 83 1081 89 c 0,108,109
EndSplineSet
Ligature2: "Ligature Substitution lookup 13 subtable" Ka U_dv
Ligature2: "Ligature Substitution lookup 13 subtable" Ka UU_dv
EndChar

StartChar: Khaa
Encoding: 1114123 -1 107
Width: 918
GlyphClass: 2
Flags: W
HStem: -10 74<394.155 502.034 768.222 822.287> 120 74<167.159 278.235> 551 71<0 187 293 737 812.015 928> 728 72<113.181 208.089>
VStem: 66 80<217.227 377.925> 218 80<622 715.087> 674 80<82.1823 167> 737 82<484.85 551> 823 75<60.397 141.167>
AnchorPoint: "+BBEENQQ3BEsEPARPBD0EPQQ+BDUA--4" 819 622 basechar 0
AnchorPoint: "+BBEENQQ3BEsEPARPBD0EPQQ+BDUA--2" 710 90 basechar 0
LayerCount: 2
Fore
SplineSet
928 551 m 1,0,-1
 819 551 l 1,1,2
 786 456 786 456 772.5 377.5 c 128,-1,3
 759 299 759 299 756 242 c 1,4,5
 806 232 806 232 837.5 206.5 c 128,-1,6
 869 181 869 181 883.5 148.5 c 128,-1,7
 898 116 898 116 898 85 c 0,8,9
 898 72 898 72 890 49 c 128,-1,10
 882 26 882 26 860.5 8 c 128,-1,11
 839 -10 839 -10 796 -10 c 0,12,13
 739 -10 739 -10 708 37.5 c 128,-1,14
 677 85 677 85 674 173 c 1,15,16
 666 172 666 172 657.5 170 c 128,-1,17
 649 168 649 168 641 166 c 1,18,19
 610 109 610 109 586 74.5 c 128,-1,20
 562 40 562 40 540 21.5 c 128,-1,21
 518 3 518 3 494 -3.5 c 128,-1,22
 470 -10 470 -10 440 -10 c 0,23,24
 368 -10 368 -10 331 31 c 128,-1,25
 294 72 294 72 290 133 c 1,26,27
 273 126 273 126 256.5 123 c 128,-1,28
 240 120 240 120 223 120 c 0,29,30
 151 120 151 120 108.5 162.5 c 128,-1,31
 66 205 66 205 66 276 c 0,32,33
 66 333 66 333 87 378 c 128,-1,34
 108 423 108 423 136.5 464 c 128,-1,35
 165 505 165 505 187 551 c 1,36,-1
 0 551 l 1,37,-1
 0 622 l 1,38,-1
 212 622 l 1,39,40
 218 646 218 646 218 675 c 0,41,42
 218 692 218 692 208 710 c 128,-1,43
 198 728 198 728 164 728 c 0,44,45
 145 728 145 728 127.5 717 c 128,-1,46
 110 706 110 706 101 692 c 1,47,-1
 40 732 l 1,48,49
 69 773 69 773 100.5 786.5 c 128,-1,50
 132 800 132 800 166 800 c 0,51,52
 234 800 234 800 266 764 c 128,-1,53
 298 728 298 728 298 679 c 0,54,55
 298 663 298 663 296.5 649 c 128,-1,56
 295 635 295 635 293 622 c 1,57,-1
 928 622 l 1,58,-1
 928 551 l 1,0,-1
421 284 m 1,59,-1
 402 247 l 2,60,61
 378 201 378 201 378 153 c 0,62,63
 378 117 378 117 391 90.5 c 128,-1,64
 404 64 404 64 444 64 c 0,65,66
 480 64 480 64 506 89.5 c 128,-1,67
 532 115 532 115 547 146 c 0,68,69
 561 175 561 175 572 199 c 128,-1,70
 583 223 583 223 585 228 c 0,71,72
 604 236 604 236 628.5 240.5 c 128,-1,73
 653 245 653 245 676 247 c 1,74,75
 680 291 680 291 688 343 c 128,-1,76
 696 395 696 395 708.5 448.5 c 128,-1,77
 721 502 721 502 737 551 c 1,78,-1
 271 551 l 1,79,80
 255 514 255 514 233.5 482.5 c 128,-1,81
 212 451 212 451 192 421 c 128,-1,82
 172 391 172 391 159 357 c 128,-1,83
 146 323 146 323 146 282 c 0,84,85
 146 242 146 242 165 218 c 128,-1,86
 184 194 184 194 220 194 c 0,87,88
 255 194 255 194 283.5 220 c 128,-1,89
 312 246 312 246 348 316 c 1,90,-1
 421 284 l 1,59,-1
823 89 m 0,91,92
 823 107 823 107 809 131 c 128,-1,93
 795 155 795 155 754 167 c 1,94,95
 756 103 756 103 768.5 81.5 c 128,-1,96
 781 60 781 60 797 60 c 0,97,98
 811 60 811 60 817 71.5 c 128,-1,99
 823 83 823 83 823 89 c 0,91,92
EndSplineSet
Ligature2: "Ligature Substitution lookup 13 subtable" Kha AA_dv
EndChar

StartChar: Kha.alt
Encoding: 1114124 -1 108
Width: 390
GlyphClass: 2
Flags: W
HStem: -10 74<234.72 368.471> 275 69<259 344.089> 312 110<490.986 563.014> 551 71<0 91 165.041 361.258 436 540>
VStem: 60 81<186.526 521.184> 91 81<462.35 551> 384 81<385.08 528.086> 408 80<103.898 236.706> 475 104<322.893 405.498>
AnchorPoint: "+BBEENQQ3BEsEPARPBD0EPQQ+BDUA--4" 421 622 basechar 0
LayerCount: 2
Fore
SplineSet
540 551 m 1,0,-1
 436 551 l 1,1,2
 465 511 465 511 465 464 c 0,3,4
 465 412 465 412 444.5 376 c 128,-1,5
 424 340 424 340 392 318 c 1,6,7
 488 272 488 272 488 172 c 0,8,9
 488 123 488 123 466 81.5 c 128,-1,10
 444 40 444 40 401.5 15 c 128,-1,11
 359 -10 359 -10 299 -10 c 0,12,13
 227 -10 227 -10 173.5 31 c 128,-1,14
 120 72 120 72 90 150.5 c 128,-1,15
 60 229 60 229 60 340 c 0,16,17
 60 397 60 397 67.5 450.5 c 128,-1,18
 75 504 75 504 91 551 c 1,19,-1
 0 551 l 1,20,-1
 0 622 l 1,21,-1
 540 622 l 1,22,-1
 540 551 l 1,0,-1
259 345 m 2,23,24
 261 345 261 345 265.5 344.5 c 128,-1,25
 270 344 270 344 272 344 c 0,26,27
 315 344 315 344 339 361.5 c 128,-1,28
 363 379 363 379 373.5 406 c 128,-1,29
 384 433 384 433 384 463 c 0,30,31
 384 518 384 518 338 551 c 1,32,-1
 172 551 l 1,33,34
 155 502 155 502 148 447 c 128,-1,35
 141 392 141 392 141 338 c 0,36,37
 141 239 141 239 165.5 179 c 128,-1,38
 190 119 190 119 226 91.5 c 128,-1,39
 262 64 262 64 298 64 c 0,40,41
 335 64 335 64 359.5 79.5 c 128,-1,42
 384 95 384 95 396 119.5 c 128,-1,43
 408 144 408 144 408 170 c 0,44,45
 408 210 408 210 389.5 233 c 128,-1,46
 371 256 371 256 340.5 265.5 c 128,-1,47
 310 275 310 275 275 275 c 0,48,49
 270 275 270 275 266 275 c 128,-1,50
 262 275 262 275 254 274 c 1,51,-1
 259 345 l 2,23,24
527 422 m 256,52,53
 548 422 548 422 563.5 406 c 128,-1,54
 579 390 579 390 579 367 c 0,55,56
 579 345 579 345 563.5 328.5 c 128,-1,57
 548 312 548 312 527 312 c 256,58,59
 506 312 506 312 490.5 328.5 c 128,-1,60
 475 345 475 345 475 367 c 0,61,62
 475 390 475 390 490.5 406 c 128,-1,63
 506 422 506 422 527 422 c 256,52,53
EndSplineSet
EndChar

StartChar: U.alt3
Encoding: 1114125 -1 109
Width: 547
GlyphClass: 2
Flags: W
HStem: 100 67<100.644 226.136> 285 57<159 180.844> 453 67<88.6323 221.627> 551 71<-50 -28 78 374 474 557> 726 74<149.784 311.559>
VStem: -47 78<255.794 549.812> 232 79<360.547 441.423> 243 77<182.129 266.878> 398.5 79.5<119.881 378.937 383.375 551> 407 80<161.402 549.687>
AnchorPoint: "+BBEENQQ3BEsEPARPBD0EPQQ+BDUA--6" 232 880 basechar 0
AnchorPoint: "+BBEENQQ3BEsEPARPBD0EPQQ+BDUA--5" 487 758 basechar 0
LayerCount: 2
Fore
SplineSet
557 551 m 1,0,-1
 474 551 l 1,1,2
 481 511 481 511 484 468.5 c 128,-1,3
 487 426 487 426 487 382 c 0,4,5
 487 313 487 313 478 238.5 c 128,-1,6
 469 164 469 164 452 94 c 1,7,-1
 376 116 l 1,8,9
 390 178 390 178 398.5 246.5 c 128,-1,10
 407 315 407 315 407 381 c 0,11,12
 407 421 407 421 404.5 465 c 128,-1,13
 402 509 402 509 394 551 c 1,14,-1
 50 551 l 1,15,16
 40 513 40 513 35.5 473.5 c 128,-1,17
 31 434 31 434 31 399 c 0,18,19
 31 329 31 329 43.5 283.5 c 128,-1,20
 56 238 56 238 76.5 212.5 c 128,-1,21
 97 187 97 187 121.5 177 c 128,-1,22
 146 167 146 167 169 167 c 0,23,24
 204 167 204 167 223.5 182.5 c 128,-1,25
 243 198 243 198 243 229 c 0,26,27
 243 243 243 243 231 262 c 128,-1,28
 219 281 219 281 181 286 c 0,29,30
 176 285 176 285 170 285 c 128,-1,31
 164 285 164 285 159 285 c 1,32,-1
 159 342 l 1,33,34
 196 343 196 343 214 362 c 128,-1,35
 232 381 232 381 232 403 c 0,36,37
 232 423 232 423 219.5 438 c 128,-1,38
 207 453 207 453 178 453 c 0,39,40
 156 453 156 453 131.5 446 c 128,-1,41
 107 439 107 439 92 429 c 1,42,-1
 58 486 l 1,43,44
 81 500 81 500 114.5 510 c 128,-1,45
 148 520 148 520 176 520 c 0,46,47
 221 520 221 520 251 503.5 c 128,-1,48
 281 487 281 487 296 460.5 c 128,-1,49
 311 434 311 434 311 404 c 0,50,51
 311 355 311 355 266 320 c 1,52,53
 295 302 295 302 307.5 277 c 128,-1,54
 320 252 320 252 320 231 c 0,55,56
 320 199 320 199 303 169 c 128,-1,57
 286 139 286 139 251.5 119.5 c 128,-1,58
 217 100 217 100 164 100 c 0,59,60
 105 100 105 100 64.5 126.5 c 128,-1,61
 24 153 24 153 -0.5 197.5 c 128,-1,62
 -25 242 -25 242 -36 295 c 128,-1,63
 -47 348 -47 348 -47 400 c 0,64,65
 -47 436 -47 436 -42.5 474.5 c 128,-1,66
 -38 513 -38 513 -28 551 c 1,67,-1
 -50 551 l 1,68,-1
 -50 622 l 1,69,-1
 -5 622 l 1,70,71
 16 672 16 672 48.5 712.5 c 128,-1,72
 81 753 81 753 126.5 776.5 c 128,-1,73
 172 800 172 800 232 800 c 0,74,75
 326 800 326 800 379 750 c 128,-1,76
 432 700 432 700 457 622 c 1,77,-1
 557 622 l 1,78,-1
 557 551 l 1,0,-1
232 726 m 256,79,80
 176 726 176 726 138.5 696.5 c 128,-1,81
 101 667 101 667 78 622 c 1,82,-1
 374 622 l 1,83,84
 356 668 356 668 322 697 c 128,-1,85
 288 726 288 726 232 726 c 256,79,80
EndSplineSet
EndChar

StartChar: UU.alt1
Encoding: 1114126 -1 110
Width: 622
GlyphClass: 2
Flags: W
HStem: 100 67<100.644 226.136 427.207 471.162> 285 57<159 180.844> 453 67<88.6323 221.627> 551 71<-50 -24 90 438 545 632> 726 74<172.759 354.273>
VStem: -47 78<255.794 541.477> 232 79<360.547 441.423> 243 77<182.129 266.878> 344 77<171.55 332.15> 497 75<198.539 416>
AnchorPoint: "+BBEENQQ3BEsEPARPBD0EPQQ+BDUA--6" 261 880 basechar 0
AnchorPoint: "+BBEENQQ3BEsEPARPBD0EPQQ+BDUA--5" 552 758 basechar 0
LayerCount: 2
Fore
SplineSet
56 551 m 1,0,1
 43 513 43 513 37 473.5 c 128,-1,2
 31 434 31 434 31 399 c 0,3,4
 31 329 31 329 43.5 283.5 c 128,-1,5
 56 238 56 238 76.5 212.5 c 128,-1,6
 97 187 97 187 121.5 177 c 128,-1,7
 146 167 146 167 169 167 c 0,8,9
 204 167 204 167 223.5 182.5 c 128,-1,10
 243 198 243 198 243 229 c 0,11,12
 243 243 243 243 231 262 c 128,-1,13
 219 281 219 281 181 286 c 0,14,15
 176 285 176 285 170 285 c 128,-1,16
 164 285 164 285 159 285 c 1,17,-1
 159 342 l 1,18,19
 196 343 196 343 214 362 c 128,-1,20
 232 381 232 381 232 403 c 0,21,22
 232 423 232 423 219.5 438 c 128,-1,23
 207 453 207 453 178 453 c 0,24,25
 156 453 156 453 131.5 446 c 128,-1,26
 107 439 107 439 92 429 c 1,27,-1
 58 486 l 1,28,29
 81 500 81 500 114.5 510 c 128,-1,30
 148 520 148 520 176 520 c 0,31,32
 221 520 221 520 251 503.5 c 128,-1,33
 281 487 281 487 296 460.5 c 128,-1,34
 311 434 311 434 311 404 c 0,35,36
 311 355 311 355 266 320 c 1,37,38
 295 302 295 302 307.5 277 c 128,-1,39
 320 252 320 252 320 231 c 0,40,41
 320 199 320 199 303 169 c 128,-1,42
 286 139 286 139 251.5 119.5 c 128,-1,43
 217 100 217 100 164 100 c 0,44,45
 105 100 105 100 64.5 126.5 c 128,-1,46
 24 153 24 153 -0.5 197.5 c 128,-1,47
 -25 242 -25 242 -36 295 c 128,-1,48
 -47 348 -47 348 -47 400 c 0,49,50
 -47 436 -47 436 -41.5 474.5 c 128,-1,51
 -36 513 -36 513 -24 551 c 1,52,-1
 -50 551 l 1,53,-1
 -50 622 l 1,54,-1
 3 622 l 1,55,56
 28 672 28 672 64 712 c 128,-1,57
 100 752 100 752 149.5 776 c 128,-1,58
 199 800 199 800 261 800 c 0,59,60
 327 800 327 800 376.5 776.5 c 128,-1,61
 426 753 426 753 461 713 c 128,-1,62
 496 673 496 673 519 622 c 1,63,-1
 632 622 l 1,64,-1
 632 551 l 1,65,-1
 545 551 l 1,66,67
 559 501 559 501 565.5 449 c 128,-1,68
 572 397 572 397 572 349 c 0,69,70
 572 326 572 326 570.5 294 c 128,-1,71
 569 262 569 262 562.5 228 c 128,-1,72
 556 194 556 194 543.5 165 c 128,-1,73
 531 136 531 136 508.5 118 c 128,-1,74
 486 100 486 100 452 100 c 0,75,76
 410 100 410 100 386.5 119.5 c 128,-1,77
 363 139 363 139 353.5 171 c 128,-1,78
 344 203 344 203 344 239 c 0,79,80
 344 302 344 302 366 353 c 128,-1,81
 388 404 388 404 420 442 c 128,-1,82
 452 480 452 480 482 504 c 1,83,84
 477 529 477 529 470 551 c 1,85,-1
 56 551 l 1,0,1
260 726 m 0,86,87
 202 726 202 726 160 696.5 c 128,-1,88
 118 667 118 667 90 622 c 1,89,-1
 438 622 l 1,90,91
 410 668 410 668 367 697 c 128,-1,92
 324 726 324 726 260 726 c 0,86,87
497 363 m 0,93,94
 497 376 497 376 496.5 389.5 c 128,-1,95
 496 403 496 403 495 416 c 1,96,97
 471 393 471 393 454.5 359 c 128,-1,98
 438 325 438 325 429.5 291.5 c 128,-1,99
 421 258 421 258 421 235 c 0,100,101
 421 210 421 210 426.5 190 c 128,-1,102
 432 170 432 170 451 170 c 0,103,104
 463 170 463 170 472 190.5 c 128,-1,105
 481 211 481 211 486.5 241.5 c 128,-1,106
 492 272 492 272 494.5 305 c 128,-1,107
 497 338 497 338 497 363 c 0,93,94
EndSplineSet
EndChar

StartChar: Ca.alt
Encoding: 1114127 -1 111
Width: 635
GlyphClass: 2
Flags: W
HStem: -10 74<308.688 448.622> 159 72<31.3435 133.084> 295 69<369 444.29> 551 71<0 587 654.631 670>
VStem: 493 80<109.675 248.099>
AnchorPoint: "+BBEENQQ3BEsEPARPBD0EPQQ+BDUA--4" 662 622 basechar 0
LayerCount: 2
Fore
SplineSet
670 551 m 1,0,-1
 662 551 l 1,1,2
 651 515 651 515 630.5 472 c 128,-1,3
 610 429 610 429 577.5 390 c 128,-1,4
 545 351 545 351 496 326 c 1,5,6
 536 298 536 298 554.5 260 c 128,-1,7
 573 222 573 222 573 180 c 0,8,9
 573 126 573 126 550.5 83 c 128,-1,10
 528 40 528 40 485.5 15 c 128,-1,11
 443 -10 443 -10 383 -10 c 0,12,13
 333 -10 333 -10 296 7 c 128,-1,14
 259 24 259 24 230 49 c 128,-1,15
 201 74 201 74 176 99.5 c 128,-1,16
 151 125 151 125 126.5 142 c 128,-1,17
 102 159 102 159 72 159 c 0,18,19
 62 159 62 159 52 156.5 c 128,-1,20
 42 154 42 154 31 150 c 1,21,-1
 10 218 l 1,22,23
 24 224 24 224 38 227.5 c 128,-1,24
 52 231 52 231 72 231 c 0,25,26
 115 231 115 231 148 214 c 128,-1,27
 181 197 181 197 208 172.5 c 128,-1,28
 235 148 235 148 261 123 c 128,-1,29
 287 98 287 98 316.5 81 c 128,-1,30
 346 64 346 64 385 64 c 0,31,32
 418 64 418 64 442.5 81 c 128,-1,33
 467 98 467 98 480 125 c 128,-1,34
 493 152 493 152 493 181 c 0,35,36
 493 209 493 209 480 234.5 c 128,-1,37
 467 260 467 260 439 277 c 128,-1,38
 411 294 411 294 364 295 c 1,39,-1
 369 365 l 2,40,41
 371 365 371 365 375.5 364.5 c 128,-1,42
 380 364 380 364 382 364 c 0,43,44
 429 364 429 364 463.5 384 c 128,-1,45
 498 404 498 404 522.5 434 c 128,-1,46
 547 464 547 464 562.5 495.5 c 128,-1,47
 578 527 578 527 587 551 c 1,48,-1
 0 551 l 1,49,-1
 0 622 l 1,50,-1
 670 622 l 1,51,-1
 670 551 l 1,0,-1
EndSplineSet
EndChar

StartChar: Guu
Encoding: 1114128 -1 112
Width: 737
GlyphClass: 2
Flags: W
HStem: -10 70<536.237 582.239> 98 67<209.109 324.242> 287 64<236 327.439> 400 110<267.986 340.014> 551 71<0 82 197 542 651 747> 726 74<279.759 459.511>
VStem: 60 78<255.02 541.477> 252 104<410.893 493.498> 340 77<182.019 272.5> 448 80<68.6528 274.23> 611 76<97.4541 399.002>
AnchorPoint: "+BBEENQQ3BEsEPARPBD0EPQQ+BDUA--2" 484 90 basechar 0
LayerCount: 2
Fore
SplineSet
747 551 m 1,0,-1
 651 551 l 1,1,2
 672 482 672 482 679.5 407 c 128,-1,3
 687 332 687 332 687 264 c 0,4,5
 687 225 687 225 682.5 178 c 128,-1,6
 678 131 678 131 664.5 88 c 128,-1,7
 651 45 651 45 624 17.5 c 128,-1,8
 597 -10 597 -10 552 -10 c 0,9,10
 501 -10 501 -10 474.5 29.5 c 128,-1,11
 448 69 448 69 448 139 c 0,12,13
 448 181 448 181 458.5 229.5 c 128,-1,14
 469 278 469 278 487.5 327.5 c 128,-1,15
 506 377 506 377 532 421 c 128,-1,16
 558 465 558 465 589 496 c 1,17,18
 583 523 583 523 574 551 c 1,19,-1
 163 551 l 1,20,21
 150 513 150 513 144 473.5 c 128,-1,22
 138 434 138 434 138 399 c 0,23,24
 138 329 138 329 150.5 283 c 128,-1,25
 163 237 163 237 183.5 211.5 c 128,-1,26
 204 186 204 186 228.5 175.5 c 128,-1,27
 253 165 253 165 276 165 c 0,28,29
 305 165 305 165 322.5 181.5 c 128,-1,30
 340 198 340 198 340 229 c 0,31,32
 340 240 340 240 335.5 253.5 c 128,-1,33
 331 267 331 267 311 277 c 128,-1,34
 291 287 291 287 245 287 c 2,35,-1
 231 287 l 1,36,-1
 236 350 l 1,37,38
 244 351 244 351 247.5 351 c 128,-1,39
 251 351 251 351 256 351 c 0,40,41
 307 351 307 351 339 338 c 128,-1,42
 371 325 371 325 387.5 305 c 128,-1,43
 404 285 404 285 410.5 265 c 128,-1,44
 417 245 417 245 417 231 c 0,45,46
 417 199 417 199 402.5 168.5 c 128,-1,47
 388 138 388 138 356 118 c 128,-1,48
 324 98 324 98 271 98 c 0,49,50
 212 98 212 98 171.5 125 c 128,-1,51
 131 152 131 152 106.5 196.5 c 128,-1,52
 82 241 82 241 71 294.5 c 128,-1,53
 60 348 60 348 60 400 c 0,54,55
 60 436 60 436 65.5 474.5 c 128,-1,56
 71 513 71 513 82 551 c 1,57,-1
 0 551 l 1,58,-1
 0 622 l 1,59,-1
 110 622 l 1,60,61
 135 672 135 672 171 712 c 128,-1,62
 207 752 207 752 256.5 776 c 128,-1,63
 306 800 306 800 368 800 c 0,64,65
 466 800 466 800 528 749.5 c 128,-1,66
 590 699 590 699 625 622 c 1,67,-1
 747 622 l 1,68,-1
 747 551 l 1,0,-1
367 726 m 0,69,70
 309 726 309 726 267 696.5 c 128,-1,71
 225 667 225 667 197 622 c 1,72,-1
 542 622 l 1,73,74
 515 668 515 668 472 697 c 128,-1,75
 429 726 429 726 367 726 c 0,69,70
304 510 m 256,76,77
 325 510 325 510 340.5 494 c 128,-1,78
 356 478 356 478 356 455 c 0,79,80
 356 433 356 433 340.5 416.5 c 128,-1,81
 325 400 325 400 304 400 c 256,82,83
 283 400 283 400 267.5 416.5 c 128,-1,84
 252 433 252 433 252 455 c 0,85,86
 252 478 252 478 267.5 494 c 128,-1,87
 283 510 283 510 304 510 c 256,76,77
611 280 m 0,88,89
 611 337 611 337 605 401 c 1,90,91
 573 358 573 358 556.5 306.5 c 128,-1,92
 540 255 540 255 534 208.5 c 128,-1,93
 528 162 528 162 528 134 c 0,94,95
 528 90 528 90 537 75 c 128,-1,96
 546 60 546 60 556 60 c 0,97,98
 574 60 574 60 586.5 90 c 128,-1,99
 599 120 599 120 605 170.5 c 128,-1,100
 611 221 611 221 611 280 c 0,88,89
EndSplineSet
LCarets2: 1 0
Ligature2: "Ligature Substitution lookup 13 subtable" Ga UU_dv
EndChar

StartChar: Jaa
Encoding: 1114129 -1 113
Width: 746
GlyphClass: 2
Flags: W
HStem: -10 70<596.789 649.184> 0 21G<209 291.714> 178 70<410.737 502> 257 72<131.51 237.706> 448 72<128.93 215.084> 551 71<0 565 639.808 756>
VStem: 40 75<341.771 434.448> 252 80<190.718 280> 502 80<82.1823 167> 651 75<60.397 138.084>
AnchorPoint: "+BBEENQQ3BEsEPARPBD0EPQQ+BDUA--4" 647 622 basechar 0
AnchorPoint: "+BBEENQQ3BEsEPARPBD0EPQQ+BDUA--2" 538 90 basechar 0
LayerCount: 2
Fore
SplineSet
286 0 m 1,0,-1
 209 0 l 1,1,2
 234 80 234 80 243 150 c 128,-1,3
 252 220 252 220 252 275 c 2,4,-1
 252 280 l 1,5,6
 237 270 237 270 215.5 263.5 c 128,-1,7
 194 257 194 257 168 257 c 0,8,9
 113 257 113 257 76.5 294.5 c 128,-1,10
 40 332 40 332 40 390 c 0,11,12
 40 454 40 454 78 487 c 128,-1,13
 116 520 116 520 175 520 c 0,14,15
 212 520 212 520 248 496 c 128,-1,16
 284 472 284 472 308 417.5 c 128,-1,17
 332 363 332 363 332 270 c 0,18,19
 332 253 332 253 330.5 233 c 128,-1,20
 329 213 329 213 327 190 c 1,21,22
 362 216 362 216 406.5 231.5 c 128,-1,23
 451 247 451 247 504 248 c 1,24,25
 508 292 508 292 516.5 344 c 128,-1,26
 525 396 525 396 537.5 449.5 c 128,-1,27
 550 503 550 503 565 551 c 1,28,-1
 0 551 l 1,29,-1
 0 622 l 1,30,-1
 756 622 l 1,31,-1
 756 551 l 1,32,-1
 647 551 l 1,33,34
 613 454 613 454 599.5 374.5 c 128,-1,35
 586 295 586 295 583 239 c 1,36,37
 631 227 631 227 662.5 201.5 c 128,-1,38
 694 176 694 176 710 145 c 128,-1,39
 726 114 726 114 726 85 c 0,40,41
 726 72 726 72 718 49 c 128,-1,42
 710 26 710 26 688.5 8 c 128,-1,43
 667 -10 667 -10 624 -10 c 0,44,45
 566 -10 566 -10 535 38.5 c 128,-1,46
 504 87 504 87 502 178 c 1,47,48
 473 177 473 177 433 164.5 c 128,-1,49
 393 152 393 152 356 123 c 128,-1,50
 319 94 319 94 298 42 c 1,51,-1
 286 0 l 1,0,-1
174 329 m 0,52,53
 196 329 196 329 213.5 336.5 c 128,-1,54
 231 344 231 344 245 357 c 1,55,56
 235 408 235 408 214.5 428 c 128,-1,57
 194 448 194 448 171 448 c 256,58,59
 148 448 148 448 131.5 432.5 c 128,-1,60
 115 417 115 417 115 389 c 0,61,62
 115 354 115 354 136 341.5 c 128,-1,63
 157 329 157 329 174 329 c 0,52,53
651 89 m 0,64,65
 651 106 651 106 635.5 130 c 128,-1,66
 620 154 620 154 582 167 c 1,67,68
 584 103 584 103 596.5 81.5 c 128,-1,69
 609 60 609 60 625 60 c 0,70,71
 639 60 639 60 645 71.5 c 128,-1,72
 651 83 651 83 651 89 c 0,64,65
EndSplineSet
Ligature2: "Ligature Substitution lookup 13 subtable" Ja AA_dv
EndChar

StartChar: Ju
Encoding: 1114130 -1 114
Width: 686
GlyphClass: 2
Flags: W
HStem: -140 74<129.939 269.865> -10 70<536.789 589.184> 178 70<312.721 442> 257 72<131.51 237.267> 448 72<130.23 226.864> 551 71<0 505 579.808 696>
VStem: 40 75<341.771 431.971> 300 80<-35.171 98.0769> 442 80<82.1823 167> 591 75<60.397 138.084>
AnchorPoint: "+BBEENQQ3BEsEPARPBD0EPQQ+BDUA--2" 567 50 basechar 0
LayerCount: 2
Fore
SplineSet
9 92 m 1,0,1
 34 50 34 50 64.5 14 c 128,-1,2
 95 -22 95 -22 129.5 -44 c 128,-1,3
 164 -66 164 -66 202 -66 c 0,4,5
 252 -66 252 -66 276 -38 c 128,-1,6
 300 -10 300 -10 300 33 c 0,7,8
 300 62 300 62 289.5 83 c 128,-1,9
 279 104 279 104 250.5 117 c 128,-1,10
 222 130 222 130 169 133 c 1,11,-1
 179 198 l 1,12,13
 202 208 202 208 217 228 c 128,-1,14
 232 248 232 248 239 273 c 1,15,16
 225 266 225 266 207 261.5 c 128,-1,17
 189 257 189 257 168 257 c 0,18,19
 113 257 113 257 76.5 294.5 c 128,-1,20
 40 332 40 332 40 390 c 256,21,22
 40 448 40 448 78 484 c 128,-1,23
 116 520 116 520 175 520 c 0,24,25
 224 520 224 520 257.5 495 c 128,-1,26
 291 470 291 470 308.5 429.5 c 128,-1,27
 326 389 326 389 326 342 c 0,28,29
 326 279 326 279 296 223 c 1,30,31
 326 234 326 234 362 240.5 c 128,-1,32
 398 247 398 247 444 248 c 1,33,34
 448 292 448 292 456.5 344 c 128,-1,35
 465 396 465 396 477.5 449.5 c 128,-1,36
 490 503 490 503 505 551 c 1,37,-1
 0 551 l 1,38,-1
 0 622 l 1,39,-1
 696 622 l 1,40,-1
 696 551 l 1,41,-1
 587 551 l 1,42,43
 553 454 553 454 539.5 374.5 c 128,-1,44
 526 295 526 295 523 239 c 1,45,46
 571 227 571 227 602.5 201.5 c 128,-1,47
 634 176 634 176 650 145 c 128,-1,48
 666 114 666 114 666 85 c 0,49,50
 666 72 666 72 658 49 c 128,-1,51
 650 26 650 26 628.5 8 c 128,-1,52
 607 -10 607 -10 564 -10 c 0,53,54
 506 -10 506 -10 475 38.5 c 128,-1,55
 444 87 444 87 442 178 c 1,56,57
 396 177 396 177 365.5 170.5 c 128,-1,58
 335 164 335 164 312 156 c 1,59,60
 347 132 347 132 363.5 99 c 128,-1,61
 380 66 380 66 380 31 c 0,62,63
 380 -16 380 -16 360 -55 c 128,-1,64
 340 -94 340 -94 300 -117 c 128,-1,65
 260 -140 260 -140 200 -140 c 0,66,67
 146 -140 146 -140 98.5 -110 c 128,-1,68
 51 -80 51 -80 13.5 -34.5 c 128,-1,69
 -24 11 -24 11 -50 55 c 1,70,-1
 9 92 l 1,0,1
174 329 m 0,71,72
 197 329 197 329 216 338 c 128,-1,73
 235 347 235 347 249 361 c 1,74,75
 247 398 247 398 229.5 423 c 128,-1,76
 212 448 212 448 179 448 c 0,77,78
 147 448 147 448 131 429.5 c 128,-1,79
 115 411 115 411 115 389 c 0,80,81
 115 354 115 354 136 341.5 c 128,-1,82
 157 329 157 329 174 329 c 0,71,72
591 89 m 0,83,84
 591 106 591 106 575.5 130 c 128,-1,85
 560 154 560 154 522 167 c 1,86,87
 524 103 524 103 536.5 81.5 c 128,-1,88
 549 60 549 60 565 60 c 0,89,90
 579 60 579 60 585 71.5 c 128,-1,91
 591 83 591 83 591 89 c 0,83,84
EndSplineSet
Ligature2: "Ligature Substitution lookup 13 subtable" Ja U_dv
Ligature2: "Ligature Substitution lookup 13 subtable" Ja UU_dv
EndChar

StartChar: Jhaa
Encoding: 1114131 -1 115
Width: 950
GlyphClass: 2
Flags: W
HStem: -10 70<87.6805 200.595 801.024 853.184> 0 21G<498 578> 125 70<90.0621 179.572> 174 74<387.272 487.966> 278 70<149.403 256.628> 287 70<188.438 294.133> 551 71<0 161 251.837 769 844.015 960>
VStem: 5 76<67.2119 118.434> 60 80<355.245 446.918> 498 80<0 96.826> 706 80<82.1823 167> 769 82<484.85 551> 855 75<60.397 142.161>
AnchorPoint: "+BBEENQQ3BEsEPARPBD0EPQQ+BDUA--4" 851 622 basechar 0
AnchorPoint: "+BBEENQQ3BEsEPARPBD0EPQQ+BDUA--2" 742 90 basechar 0
LayerCount: 2
Fore
SplineSet
0 622 m 1,0,-1
 960 622 l 1,1,-1
 960 551 l 1,2,-1
 851 551 l 1,3,4
 818 456 818 456 804.5 377.5 c 128,-1,5
 791 299 791 299 788 242 c 1,6,7
 837 232 837 232 868 206 c 128,-1,8
 899 180 899 180 914.5 147.5 c 128,-1,9
 930 115 930 115 930 85 c 0,10,11
 930 72 930 72 922 49 c 128,-1,12
 914 26 914 26 892.5 8 c 128,-1,13
 871 -10 871 -10 828 -10 c 0,14,15
 771 -10 771 -10 740.5 37 c 128,-1,16
 710 84 710 84 706 172 c 1,17,18
 653 165 653 165 615.5 119.5 c 128,-1,19
 578 74 578 74 578 4 c 2,20,-1
 578 0 l 1,21,-1
 498 0 l 1,22,-1
 498 102 l 2,23,24
 498 132 498 132 488 153 c 128,-1,25
 478 174 478 174 448 174 c 0,26,27
 430 174 430 174 407 163.5 c 128,-1,28
 384 153 384 153 364 132 c 1,29,30
 342 94 342 94 304 61.5 c 128,-1,31
 266 29 266 29 218.5 9.5 c 128,-1,32
 171 -10 171 -10 120 -10 c 0,33,34
 91 -10 91 -10 64.5 2 c 128,-1,35
 38 14 38 14 21.5 36 c 128,-1,36
 5 58 5 58 5 88 c 0,37,38
 5 122 5 122 18 143 c 128,-1,39
 31 164 31 164 50.5 175.5 c 128,-1,40
 70 187 70 187 90 191 c 128,-1,41
 110 195 110 195 124 195 c 0,42,43
 168 195 168 195 201 176.5 c 128,-1,44
 234 158 234 158 262 129 c 1,45,46
 282 150 282 150 294 173 c 128,-1,47
 306 196 306 196 306 216 c 0,48,49
 306 245 306 245 295 266 c 128,-1,50
 284 287 284 287 253 287 c 0,51,52
 225 287 225 287 208.5 282.5 c 128,-1,53
 192 278 192 278 169 278 c 0,54,55
 145 278 145 278 119.5 289.5 c 128,-1,56
 94 301 94 301 77 325 c 128,-1,57
 60 349 60 349 60 386 c 0,58,59
 60 433 60 433 87.5 474.5 c 128,-1,60
 115 516 115 516 161 551 c 1,61,-1
 0 551 l 1,62,-1
 0 622 l 1,0,-1
708 246 m 1,63,64
 712 290 712 290 720 342 c 128,-1,65
 728 394 728 394 740.5 448 c 128,-1,66
 753 502 753 502 769 551 c 1,67,-1
 289 551 l 1,68,69
 214 512 214 512 177 467.5 c 128,-1,70
 140 423 140 423 140 388 c 0,71,72
 140 366 140 366 154.5 357 c 128,-1,73
 169 348 169 348 188 348 c 0,74,75
 202 348 202 348 218 352.5 c 128,-1,76
 234 357 234 357 262 357 c 0,77,78
 314 357 314 357 347.5 324.5 c 128,-1,79
 381 292 381 292 386 233 c 1,80,81
 421 248 421 248 457 248 c 0,82,83
 498 248 498 248 526.5 228.5 c 128,-1,84
 555 209 555 209 568 174 c 1,85,86
 622 238 622 238 708 246 c 1,63,64
855 89 m 0,87,88
 855 108 855 108 841.5 131.5 c 128,-1,89
 828 155 828 155 786 167 c 1,90,91
 788 103 788 103 800.5 81.5 c 128,-1,92
 813 60 813 60 829 60 c 0,93,94
 843 60 843 60 849 71.5 c 128,-1,95
 855 83 855 83 855 89 c 0,87,88
127 60 m 0,96,97
 146 60 146 60 165 66.5 c 128,-1,98
 184 73 184 73 203 83 c 1,99,100
 184 102 184 102 165 113.5 c 128,-1,101
 146 125 146 125 128 125 c 0,102,103
 112 125 112 125 96.5 117.5 c 128,-1,104
 81 110 81 110 81 90 c 0,105,106
 81 80 81 80 92 70 c 128,-1,107
 103 60 103 60 127 60 c 0,96,97
EndSplineSet
Ligature2: "Ligature Substitution lookup 13 subtable" Jha AA_dv
EndChar

StartChar: Jha.alt
Encoding: 1114132 -1 116
Width: 570
GlyphClass: 2
Flags: W
HStem: -110 70<459.798 510.52> -10 70<87.6805 200.48> 125 70<90.0621 179.572> 278 70<149.403 256.628> 287 70<188.438 294.651> 551 71<0 161 251.837 580>
VStem: 5 76<67.2119 118.434> 60 80<355.245 446.918> 306 81<205.163 265.342> 376 76<-36.6688 103.064> 515 75<-39.048 81.8274>
AnchorPoint: "+BBEENQQ3BEsEPARPBD0EPQQ+BDUA--4" 480 622 basechar 0
LayerCount: 2
Fore
SplineSet
610 211 m 1,0,1
 556 192 556 192 518 158 c 1,2,3
 554 128 554 128 572 87 c 128,-1,4
 590 46 590 46 590 5 c 0,5,6
 590 -5 590 -5 586 -24 c 128,-1,7
 582 -43 582 -43 571 -62.5 c 128,-1,8
 560 -82 560 -82 540 -96 c 128,-1,9
 520 -110 520 -110 488 -110 c 0,10,11
 428 -110 428 -110 402 -72 c 128,-1,12
 376 -34 376 -34 376 23 c 0,13,14
 376 53 376 53 384 81 c 128,-1,15
 392 109 392 109 406 134 c 1,16,17
 391 137 391 137 374 137 c 2,18,-1
 366 137 l 1,19,20
 345 97 345 97 306.5 63.5 c 128,-1,21
 268 30 268 30 220 10 c 128,-1,22
 172 -10 172 -10 120 -10 c 0,23,24
 91 -10 91 -10 64.5 2 c 128,-1,25
 38 14 38 14 21.5 36 c 128,-1,26
 5 58 5 58 5 88 c 0,27,28
 5 122 5 122 18 143 c 128,-1,29
 31 164 31 164 50.5 175.5 c 128,-1,30
 70 187 70 187 90 191 c 128,-1,31
 110 195 110 195 124 195 c 0,32,33
 168 195 168 195 201 176.5 c 128,-1,34
 234 158 234 158 262 129 c 1,35,36
 282 150 282 150 294 173 c 128,-1,37
 306 196 306 196 306 216 c 0,38,39
 306 245 306 245 295 266 c 128,-1,40
 284 287 284 287 253 287 c 0,41,42
 225 287 225 287 208.5 282.5 c 128,-1,43
 192 278 192 278 169 278 c 0,44,45
 145 278 145 278 119.5 289.5 c 128,-1,46
 94 301 94 301 77 325 c 128,-1,47
 60 349 60 349 60 386 c 0,48,49
 60 433 60 433 87.5 474.5 c 128,-1,50
 115 516 115 516 161 551 c 1,51,-1
 0 551 l 1,52,-1
 0 622 l 1,53,-1
 580 622 l 1,54,-1
 580 551 l 1,55,-1
 289 551 l 1,56,57
 214 512 214 512 177 467.5 c 128,-1,58
 140 423 140 423 140 388 c 0,59,60
 140 366 140 366 154.5 357 c 128,-1,61
 169 348 169 348 188 348 c 0,62,63
 202 348 202 348 218 352.5 c 128,-1,64
 234 357 234 357 262 357 c 0,65,66
 318 357 318 357 352.5 319.5 c 128,-1,67
 387 282 387 282 387 214 c 2,68,-1
 387 207 l 1,69,70
 405 206 405 206 421.5 203 c 128,-1,71
 438 200 438 200 452 195 c 1,72,73
 480 223 480 223 516 245.5 c 128,-1,74
 552 268 552 268 593 284 c 1,75,-1
 610 211 l 1,0,1
127 60 m 0,76,77
 146 60 146 60 165 66.5 c 128,-1,78
 184 73 184 73 203 83 c 1,79,80
 184 102 184 102 165 113.5 c 128,-1,81
 146 125 146 125 128 125 c 0,82,83
 112 125 112 125 96.5 117.5 c 128,-1,84
 81 110 81 110 81 90 c 0,85,86
 81 80 81 80 92 70 c 128,-1,87
 103 60 103 60 127 60 c 0,76,77
515 9 m 0,88,89
 515 32 515 32 505.5 58 c 128,-1,90
 496 84 496 84 473 104 c 1,91,92
 452 68 452 68 452 28 c 0,93,94
 452 -1 452 -1 460.5 -20.5 c 128,-1,95
 469 -40 469 -40 487 -40 c 0,96,97
 501 -40 501 -40 508 -25 c 128,-1,98
 515 -10 515 -10 515 9 c 0,88,89
EndSplineSet
EndChar

